<?xml version="1.0" encoding="utf-8"?>
<!-- Generator: Adobe Illustrator 25.2.0, SVG Export Plug-In . SVG Version: 6.00 Build 0)  -->
<svg version="1.1" xmlns="http://www.w3.org/2000/svg" xmlns:xlink="http://www.w3.org/1999/xlink" x="0px" y="0px"
	 viewBox="0 0 109.44 82.94" style="enable-background:new 0 0 109.44 82.94;" xml:space="preserve">
<style type="text/css">
	.st0{fill:#E5E5E5;}
	.st1{fill:url(#SVGID_1_);}
	.st2{fill:#B7B7B7;}
	.st3{fill:#FFFFFF;}
	.st4{fill:#A0A0A0;}
	.st5{fill:#FCFCFC;}
	.st6{fill:none;}
	.st7{clip-path:url(#SVGID_3_);fill:url(#SVGID_4_);}
	.st8{clip-path:url(#SVGID_3_);}
	.st9{fill:#3D3838;}
	.st10{fill:#FF7A7A;}
	.st11{fill:#191919;}
	.st12{fill:url(#SVGID_5_);}
	.st13{fill:url(#SVGID_6_);}
	.st14{fill:url(#SVGID_7_);}
	.st15{fill:url(#SVGID_8_);}
	.st16{fill:url(#SVGID_9_);}
	.st17{fill:url(#SVGID_10_);}
	.st18{fill:url(#SVGID_11_);}
	.st19{fill:url(#SVGID_12_);}
	.st20{fill:url(#SVGID_13_);}
	.st21{fill:url(#SVGID_14_);}
	.st22{fill:url(#SVGID_15_);}
	.st23{fill:url(#SVGID_16_);}
	.st24{fill:url(#SVGID_17_);}
	.st25{fill:url(#SVGID_18_);}
	.st26{fill:url(#SVGID_19_);}
	.st27{fill:url(#SVGID_20_);}
	.st28{fill:url(#SVGID_21_);}
	.st29{fill:url(#SVGID_22_);}
	.st30{fill:url(#SVGID_23_);}
	.st31{fill:url(#SVGID_24_);}
	.st32{fill:#FF6666;}
</style>
<g id="Layer_1">
</g>
<g id="호랑하마">
</g>
<g id="나그네하마">
</g>
<g id="리더하마">
</g>
<g id="노력하마">
</g>
<g id="스마트하마">
</g>
<g id="센치하마">
</g>
<g id="하마냄새가나는하마">
</g>
<g id="세상시원시원한_하마">
</g>
<g id="스윗하마">
	<g>
		<g>
			<path class="st10" d="M95.34,21.89c4.95-0.39,6.8-3.31,6.9-6.58c0.13-4.63-6.44-7.13-9.38-2.21c-1.31,2.18-3.01,3.37-5.01,3.71
				c-1.28-1.14-2.65-2.14-4.15-2.98c-0.02-0.01-0.04-0.02-0.06-0.03c1.33-1.06,2.76-2.52,3.48-4.35c0.83-2.1,1.71-6.4-1.86-7.92
				c-4.4-0.98-6.5,2.94-5.74,6.14c0.28,1.16,0.75,3.13,0.49,4.49c-7.1-2.51-13.38-0.89-14.17-0.67c-4.1,1.16-6.48,5.42-5.31,9.52
				c1.16,4.1,5.42,6.47,9.52,5.31c0.03-0.01,3.18-0.71,6.08,0.93c2.61,1.47,4.57,4.57,5.84,9.22l0.06,0.22
				c0.01,0.03,0.77,2.59,0.75,5.29c-0.01,1.79,0,25.13,0,25.13h0.06c-0.02,0.2-0.06,0.4-0.06,0.61c0,4.26,3.45,7.71,7.71,7.71
				s7.71-3.45,7.71-7.71c0-0.21-0.05-0.41-0.06-0.61h0.06c0,0-0.01-23.26,0-25.04c0.03-4.71-1.11-8.82-1.39-9.76
				c-1.13-4.11-2.73-7.65-4.75-10.63C93.12,21.87,94.23,21.98,95.34,21.89z"/>
			<path class="st10" d="M62.7,36.81c-0.58-9.01-6.64-26.06-25.36-26.06c-18.68,0-24.85,17.12-25.51,26.17L11.82,67.1
				c0,4.26,3.45,7.71,7.71,7.71s7.71-3.45,7.71-7.71V55.75v-0.35V39.99v-0.97v-1.18c0.26-2.46,1.77-11.67,10.11-11.67
				c8.36,0,9.74,9.18,9.95,11.45v1.39v0.97v15.42v0.35V67.1c0,4.26,3.45,7.71,7.71,7.71s7.71-3.45,7.71-7.71V37.31L62.7,36.81z"/>
			<circle class="st10" cx="37.27" cy="47.95" r="7.74"/>
		</g>
	</g>
</g>
<g id="기본하마">
</g>
</svg>
