<svg width="42" height="50" viewBox="0 0 42 50" fill="none" xmlns="http://www.w3.org/2000/svg">
<g filter="url(#filter0_d_970_559)">
<rect x="6" y="4" width="30" height="38" fill="#FF7A7A"/>
</g>
<path d="M18.6055 21.1914H20.293C20.9492 21.1914 21.4922 21.0781 21.9219 20.8516C22.3594 20.625 22.6836 20.3125 22.8945 19.9141C23.1055 19.5156 23.2109 19.0586 23.2109 18.543C23.2109 18.0039 23.1133 17.543 22.918 17.1602C22.7305 16.7695 22.4414 16.4688 22.0508 16.2578C21.668 16.0469 21.1797 15.9414 20.5859 15.9414C20.0859 15.9414 19.6328 16.043 19.2266 16.2461C18.8281 16.4414 18.5117 16.7227 18.2773 17.0898C18.043 17.4492 17.9258 17.8789 17.9258 18.3789H15.0898C15.0898 17.4727 15.3281 16.668 15.8047 15.9648C16.2812 15.2617 16.9297 14.7109 17.75 14.3125C18.5781 13.9062 19.5078 13.7031 20.5391 13.7031C21.6406 13.7031 22.6016 13.8867 23.4219 14.2539C24.25 14.6133 24.8945 15.1523 25.3555 15.8711C25.8164 16.5898 26.0469 17.4805 26.0469 18.543C26.0469 19.0273 25.9336 19.5195 25.707 20.0195C25.4805 20.5195 25.1445 20.9766 24.6992 21.3906C24.2539 21.7969 23.6992 22.1289 23.0352 22.3867C22.3711 22.6367 21.6016 22.7617 20.7266 22.7617H18.6055V21.1914ZM18.6055 23.3945V21.8477H20.7266C21.7266 21.8477 22.5781 21.9648 23.2812 22.1992C23.9922 22.4336 24.5703 22.7578 25.0156 23.1719C25.4609 23.5781 25.7852 24.043 25.9883 24.5664C26.1992 25.0898 26.3047 25.6445 26.3047 26.2305C26.3047 27.0273 26.1602 27.7383 25.8711 28.3633C25.5898 28.9805 25.1875 29.5039 24.6641 29.9336C24.1406 30.3633 23.5273 30.6875 22.8242 30.9062C22.1289 31.125 21.3711 31.2344 20.5508 31.2344C19.8164 31.2344 19.1133 31.1328 18.4414 30.9297C17.7695 30.7266 17.168 30.4258 16.6367 30.0273C16.1055 29.6211 15.6836 29.1172 15.3711 28.5156C15.0664 27.9062 14.9141 27.2031 14.9141 26.4062H17.7383C17.7383 26.9141 17.8555 27.3633 18.0898 27.7539C18.332 28.1367 18.668 28.4375 19.0977 28.6562C19.5352 28.875 20.0352 28.9844 20.5977 28.9844C21.1914 28.9844 21.7031 28.8789 22.1328 28.668C22.5625 28.457 22.8906 28.1445 23.1172 27.7305C23.3516 27.3164 23.4688 26.8164 23.4688 26.2305C23.4688 25.5664 23.3398 25.0273 23.082 24.6133C22.8242 24.1992 22.457 23.8945 21.9805 23.6992C21.5039 23.4961 20.9414 23.3945 20.293 23.3945H18.6055Z" fill="white"/>
<defs>
<filter id="filter0_d_970_559" x="0" y="0" width="42" height="50" filterUnits="userSpaceOnUse" color-interpolation-filters="sRGB">
<feFlood flood-opacity="0" result="BackgroundImageFix"/>
<feColorMatrix in="SourceAlpha" type="matrix" values="0 0 0 0 0 0 0 0 0 0 0 0 0 0 0 0 0 0 127 0" result="hardAlpha"/>
<feMorphology radius="2" operator="dilate" in="SourceAlpha" result="effect1_dropShadow_970_559"/>
<feOffset dy="2"/>
<feGaussianBlur stdDeviation="2"/>
<feComposite in2="hardAlpha" operator="out"/>
<feColorMatrix type="matrix" values="0 0 0 0 0 0 0 0 0 0 0 0 0 0 0 0 0 0 0.08 0"/>
<feBlend mode="normal" in2="BackgroundImageFix" result="effect1_dropShadow_970_559"/>
<feBlend mode="normal" in="SourceGraphic" in2="effect1_dropShadow_970_559" result="shape"/>
</filter>
</defs>
</svg>
