<svg width="42" height="50" viewBox="0 0 42 50" fill="none" xmlns="http://www.w3.org/2000/svg">
<g filter="url(#filter0_d_970_561)">
<rect x="6" y="4" width="30" height="38" fill="#C4C4C4"/>
</g>
<path d="M18.2539 23.0664L16.0039 22.5156L16.9297 13.9375H26.1289V16.3281H19.2734L18.8047 20.5117C19.0703 20.3555 19.4375 20.2031 19.9062 20.0547C20.375 19.8984 20.9102 19.8203 21.5117 19.8203C22.3164 19.8203 23.0352 19.9531 23.668 20.2188C24.3086 20.4766 24.8516 20.8555 25.2969 21.3555C25.7422 21.8477 26.082 22.4492 26.3164 23.1602C26.5508 23.8633 26.668 24.6562 26.668 25.5391C26.668 26.3281 26.5508 27.0664 26.3164 27.7539C26.0898 28.4414 25.7461 29.0469 25.2852 29.5703C24.8242 30.0938 24.2422 30.5039 23.5391 30.8008C22.8438 31.0898 22.0195 31.2344 21.0664 31.2344C20.3555 31.2344 19.6719 31.1328 19.0156 30.9297C18.3672 30.7188 17.7852 30.4102 17.2695 30.0039C16.7539 29.5898 16.3398 29.082 16.0273 28.4805C15.7148 27.8711 15.5352 27.1719 15.4883 26.3828H18.2539C18.3242 26.9375 18.4766 27.4102 18.7109 27.8008C18.9531 28.1836 19.2734 28.4766 19.6719 28.6797C20.0703 28.8828 20.5312 28.9844 21.0547 28.9844C21.5312 28.9844 21.9414 28.9023 22.2852 28.7383C22.6289 28.5664 22.9141 28.3242 23.1406 28.0117C23.375 27.6914 23.5469 27.3164 23.6562 26.8867C23.7734 26.457 23.832 25.9805 23.832 25.457C23.832 24.957 23.7656 24.5 23.6328 24.0859C23.5078 23.6719 23.3164 23.3125 23.0586 23.0078C22.8086 22.7031 22.4922 22.4688 22.1094 22.3047C21.7266 22.1328 21.2852 22.0469 20.7852 22.0469C20.1133 22.0469 19.5977 22.1445 19.2383 22.3398C18.8867 22.5352 18.5586 22.7773 18.2539 23.0664Z" fill="white"/>
<defs>
<filter id="filter0_d_970_561" x="0" y="0" width="42" height="50" filterUnits="userSpaceOnUse" color-interpolation-filters="sRGB">
<feFlood flood-opacity="0" result="BackgroundImageFix"/>
<feColorMatrix in="SourceAlpha" type="matrix" values="0 0 0 0 0 0 0 0 0 0 0 0 0 0 0 0 0 0 127 0" result="hardAlpha"/>
<feMorphology radius="2" operator="dilate" in="SourceAlpha" result="effect1_dropShadow_970_561"/>
<feOffset dy="2"/>
<feGaussianBlur stdDeviation="2"/>
<feComposite in2="hardAlpha" operator="out"/>
<feColorMatrix type="matrix" values="0 0 0 0 0 0 0 0 0 0 0 0 0 0 0 0 0 0 0.08 0"/>
<feBlend mode="normal" in2="BackgroundImageFix" result="effect1_dropShadow_970_561"/>
<feBlend mode="normal" in="SourceGraphic" in2="effect1_dropShadow_970_561" result="shape"/>
</filter>
</defs>
</svg>
