<svg width="40" height="40" viewBox="0 0 40 40" fill="none" xmlns="http://www.w3.org/2000/svg">
<path d="M14.334 29V27.5C13.5056 27.5 12.834 28.1716 12.834 29H14.334ZM24.334 29H25.834C25.834 28.1716 25.1624 27.5 24.334 27.5V29ZM14.334 30.5H24.334V27.5H14.334V30.5ZM22.834 29V30.6667H25.834V29H22.834ZM15.834 30.6667V29H12.834V30.6667H15.834ZM19.334 34.1667C17.401 34.1667 15.834 32.5997 15.834 30.6667H12.834C12.834 34.2565 15.7441 37.1667 19.334 37.1667V34.1667ZM22.834 30.6667C22.834 32.5997 21.267 34.1667 19.334 34.1667V37.1667C22.9238 37.1667 25.834 34.2565 25.834 30.6667H22.834Z" fill="#7B7B7B"/>
<path d="M22.7447 6.17365C21.6657 5.84422 20.5202 5.66699 19.3333 5.66699C12.89 5.66699 7.66667 10.8903 7.66667 17.3336V23.5376C7.66667 23.834 7.549 24.118 7.33953 24.3275L6.48815 25.1788C6.1756 25.4915 6 25.9153 6 26.3573V27.3336C6 28.2541 6.7462 29.0003 7.66667 29.0003H31C31.9205 29.0003 32.6667 28.2541 32.6667 27.3336V26.3573C32.6667 25.9153 32.491 25.4915 32.1785 25.1788L31.3272 24.3275C31.1177 24.118 31 23.834 31 23.5376V17.3336C31 17.0396 30.9891 16.748 30.9672 16.4606" stroke="#7B7B7B" stroke-width="3" stroke-linecap="round" stroke-linejoin="round"/>
<path d="M34.3333 10.6667C34.3333 14.3486 31.3486 17.3333 27.6667 17.3333C23.9848 17.3333 21 14.3486 21 10.6667C21 6.98477 23.9848 4 27.6667 4C31.3486 4 34.3333 6.98477 34.3333 10.6667Z" fill="#FF7A7A" stroke="#FF7A7A" stroke-width="3" stroke-linecap="round" stroke-linejoin="round"/>
</svg>
