<svg width="40" height="40" viewBox="0 0 40 40" fill="none" xmlns="http://www.w3.org/2000/svg">
<path d="M25 28.333H15V29.9997C15 32.7611 17.2386 34.9997 20 34.9997C22.7614 34.9997 25 32.7611 25 29.9997V28.333Z" stroke="#7B7B7B" stroke-width="3" stroke-linecap="round" stroke-linejoin="round"/>
<path d="M34.9993 9.99967C34.9993 13.6816 32.0146 16.6663 28.3327 16.6663C24.6508 16.6663 21.666 13.6816 21.666 9.99967C21.666 6.31778 24.6508 3.33301 28.3327 3.33301C32.0146 3.33301 34.9993 6.31778 34.9993 9.99967Z" stroke="#7B7B7B" stroke-width="3" stroke-linecap="round" stroke-linejoin="round"/>
<path d="M23.4107 5.50666C22.3317 5.17723 21.1862 5 19.9993 5C13.556 5 8.33268 10.2234 8.33268 16.6666V22.8706C8.33268 23.167 8.21502 23.451 8.00555 23.6605L7.15417 24.5118C6.84162 24.8245 6.66602 25.2483 6.66602 25.6903V26.6666C6.66602 27.5871 7.41222 28.3333 8.33268 28.3333H31.666C32.5865 28.3333 33.3327 27.5871 33.3327 26.6666V25.6903C33.3327 25.2483 33.157 24.8245 32.8445 24.5118L31.9932 23.6605C31.7837 23.451 31.666 23.167 31.666 22.8706V16.6666C31.666 16.3726 31.6551 16.081 31.6332 15.7936" stroke="#7B7B7B" stroke-width="3" stroke-linecap="round" stroke-linejoin="round"/>
</svg>
