<svg width="30" height="30" viewBox="0 0 30 30" fill="none" xmlns="http://www.w3.org/2000/svg">
<path d="M5 25H25" stroke="#666666" stroke-width="2" stroke-linecap="round" stroke-linejoin="round"/>
<path d="M10 25.0001V26.0001C10.2652 26.0001 10.5196 25.8947 10.7071 25.7072L10 25.0001ZM5 25.0001H4C4 25.5523 4.44772 26.0001 5 26.0001V25.0001ZM5 20.0001L4.29289 19.293C4.10536 19.4805 4 19.7348 4 20.0001H5ZM19.1161 5.88394L19.8232 6.59105L19.8232 6.59105L19.1161 5.88394ZM20.8839 5.88394L20.1768 6.59105L20.1768 6.59105L20.8839 5.88394ZM24.1161 9.11617L24.8232 8.40907V8.40907L24.1161 9.11617ZM24.1161 10.8839L23.409 10.1768L24.1161 10.8839ZM10 24.0001H5V26.0001H10V24.0001ZM6 25.0001V20.0001H4V25.0001H6ZM5.70711 20.7072L19.8232 6.59105L18.409 5.17683L4.29289 19.293L5.70711 20.7072ZM20.1768 6.59105L23.409 9.82328L24.8232 8.40907L21.591 5.17683L20.1768 6.59105ZM23.409 10.1768L9.29289 24.293L10.7071 25.7072L24.8232 11.591L23.409 10.1768ZM23.409 9.82328C23.5066 9.92091 23.5066 10.0792 23.409 10.1768L24.8232 11.591C25.7019 10.7124 25.7019 9.28775 24.8232 8.40907L23.409 9.82328ZM19.8232 6.59105C19.9209 6.49341 20.0791 6.49341 20.1768 6.59105L21.591 5.17683C20.7123 4.29815 19.2877 4.29815 18.409 5.17683L19.8232 6.59105Z" fill="#666666"/>
<path d="M15 10L20 15" stroke="#666666" stroke-width="2" stroke-linecap="round" stroke-linejoin="round"/>
</svg>
