<svg width="155" height="150" viewBox="0 0 155 150" fill="none" xmlns="http://www.w3.org/2000/svg">
<path d="M54.7242 104.58H56.7842V93.48H54.7242V96.56H52.1042V98.22H54.7242V99.86H52.1042V101.52H54.7242V104.58ZM45.9242 96.44H48.2242V101.88C47.4442 101.92 46.6842 101.94 45.9242 101.96V96.44ZM52.2442 101.56C51.5842 101.64 50.9042 101.72 50.2042 101.74V96.44H51.8242V94.76H42.3042V96.44H43.9442V102C43.2042 102 42.4842 102 41.8242 102L42.0642 103.7C44.9642 103.7 48.9642 103.64 52.3642 103.06L52.2442 101.56ZM50.7642 109.96C48.1842 109.96 46.7442 109.34 46.7442 108.24C46.7442 107.1 48.1842 106.5 50.7642 106.5C53.3442 106.5 54.8042 107.1 54.8042 108.24C54.8042 109.34 53.3442 109.96 50.7642 109.96ZM50.7642 104.9C46.9842 104.9 44.6842 106.12 44.6842 108.24C44.6842 110.32 46.9842 111.54 50.7642 111.54C54.5442 111.54 56.8642 110.32 56.8642 108.24C56.8642 106.12 54.5442 104.9 50.7642 104.9ZM61.1026 95.38V97.06H67.4226C67.0026 101.22 64.6226 104.4 60.2026 106.66L61.3426 108.24C67.2426 105.26 69.4826 100.62 69.4826 95.38H61.1026ZM76.9426 100.6H74.2026V93.46H72.1426V111.52H74.2026V102.32H76.9426V100.6ZM83.881 105.96C82.421 105.96 81.361 104.96 81.361 103.44C81.361 101.92 82.421 100.92 83.881 100.92C85.341 100.92 86.401 101.92 86.401 103.44C86.401 104.96 85.341 105.96 83.881 105.96ZM83.881 99.22C81.281 99.22 79.401 100.98 79.401 103.44C79.401 105.92 81.281 107.66 83.881 107.66C86.461 107.66 88.361 105.92 88.361 103.44C88.361 100.98 86.461 99.22 83.881 99.22ZM84.881 93.74H82.821V96.26H78.521V97.94H89.101V96.26H84.881V93.74ZM95.421 100.74H92.641V93.48H90.561V111.56H92.641V102.46H95.421V100.74ZM98.0395 95.38V97.06H104.479C104.119 101.22 101.879 104.4 97.1395 106.68L98.2395 108.32C104.439 105.32 106.599 100.76 106.599 95.38H98.0395ZM109.859 93.48V111.54H111.919V93.48H109.859Z" fill="#666666"/>
<g clip-path="url(#clip0_763_819)">
<path d="M92.4122 45.3798L78.7877 59.0498C78.7199 59.1139 78.6663 59.1915 78.6302 59.2776C78.5942 59.3637 78.5765 59.4564 78.5782 59.5498V64.1298H83.8744C84.0618 64.1287 84.2412 64.0532 84.3731 63.9198L97.6385 50.5998C97.7049 50.5346 97.7576 50.4568 97.7936 50.371C97.8296 50.2851 97.8481 50.1929 97.8481 50.0998C97.8481 50.0066 97.8296 49.9145 97.7936 49.8286C97.7576 49.7428 97.7049 49.665 97.6385 49.5998L93.3896 45.3798C93.2591 45.2515 93.0836 45.1797 92.9009 45.1797C92.7181 45.1797 92.5427 45.2515 92.4122 45.3798V45.3798Z" stroke="#666666" stroke-width="3" stroke-miterlimit="10"/>
<path d="M88.2832 49.5195L93.5096 54.7595" stroke="#666666" stroke-width="3" stroke-miterlimit="10" stroke-linecap="round"/>
<path d="M88.2234 42.8708V40.2408C88.2081 39.9861 88.0963 39.7469 87.9109 39.5721C87.7255 39.3974 87.4805 39.3003 87.226 39.3008H66.2806C66.0261 39.3003 65.7811 39.3974 65.5957 39.5721C65.4103 39.7469 65.2985 39.9861 65.2832 40.2408V69.7708C65.2985 70.0255 65.4103 70.2646 65.5957 70.4394C65.7811 70.6141 66.0261 70.7112 66.2806 70.7108H87.226C87.4805 70.7112 87.7255 70.6141 87.9109 70.4394C88.0963 70.2646 88.2081 70.0255 88.2234 69.7708V65.9508" stroke="#666666" stroke-width="3" stroke-miterlimit="10" stroke-linecap="round"/>
<path d="M70.8594 44.6719H82.888" stroke="#666666" stroke-width="3" stroke-miterlimit="10" stroke-linecap="round"/>
<path d="M70.8594 49.8008H79.2575" stroke="#666666" stroke-width="3" stroke-miterlimit="10" stroke-linecap="round"/>
<path d="M70.8594 54.9297H76.9734" stroke="#666666" stroke-width="3" stroke-miterlimit="10" stroke-linecap="round"/>
</g>
<defs>
<clipPath id="clip0_763_819">
<rect width="43.8856" height="44" fill="white" transform="translate(55.6582 33)"/>
</clipPath>
</defs>
</svg>
