<svg width="154" height="150" viewBox="0 0 154 150" fill="none" xmlns="http://www.w3.org/2000/svg">
<rect x="24.9355" y="28" width="103.325" height="56" rx="28" fill="#FF7A7A"/>
<path d="M53.9234 104.58H55.9834V93.48H53.9234V96.56H51.3034V98.22H53.9234V99.86H51.3034V101.52H53.9234V104.58ZM45.1234 96.44H47.4234V101.88C46.6434 101.92 45.8834 101.94 45.1234 101.96V96.44ZM51.4434 101.56C50.7834 101.64 50.1034 101.72 49.4034 101.74V96.44H51.0234V94.76H41.5034V96.44H43.1434V102C42.4034 102 41.6834 102 41.0234 102L41.2634 103.7C44.1634 103.7 48.1634 103.64 51.5634 103.06L51.4434 101.56ZM49.9634 109.96C47.3834 109.96 45.9434 109.34 45.9434 108.24C45.9434 107.1 47.3834 106.5 49.9634 106.5C52.5434 106.5 54.0034 107.1 54.0034 108.24C54.0034 109.34 52.5434 109.96 49.9634 109.96ZM49.9634 104.9C46.1834 104.9 43.8834 106.12 43.8834 108.24C43.8834 110.32 46.1834 111.54 49.9634 111.54C53.7434 111.54 56.0634 110.32 56.0634 108.24C56.0634 106.12 53.7434 104.9 49.9634 104.9ZM60.3018 95.38V97.06H66.6218C66.2018 101.22 63.8218 104.4 59.4018 106.66L60.5418 108.24C66.4418 105.26 68.6818 100.62 68.6818 95.38H60.3018ZM76.1418 100.6H73.4018V93.46H71.3418V111.52H73.4018V102.32H76.1418V100.6ZM83.0803 105.96C81.6203 105.96 80.5603 104.96 80.5603 103.44C80.5603 101.92 81.6203 100.92 83.0803 100.92C84.5403 100.92 85.6003 101.92 85.6003 103.44C85.6003 104.96 84.5403 105.96 83.0803 105.96ZM83.0803 99.22C80.4803 99.22 78.6003 100.98 78.6003 103.44C78.6003 105.92 80.4803 107.66 83.0803 107.66C85.6603 107.66 87.5603 105.92 87.5603 103.44C87.5603 100.98 85.6603 99.22 83.0803 99.22ZM84.0803 93.74H82.0203V96.26H77.7203V97.94H88.3003V96.26H84.0803V93.74ZM94.6203 100.74H91.8403V93.48H89.7603V111.56H91.8403V102.46H94.6203V100.74ZM97.2387 95.38V97.06H103.679C103.319 101.22 101.079 104.4 96.3387 106.68L97.4387 108.32C103.639 105.32 105.799 100.76 105.799 95.38H97.2387ZM109.059 93.48V111.54H111.119V93.48H109.059Z" fill="#666666"/>
<g clip-path="url(#clip0_763_867)">
<path d="M88.6192 45.3798L74.9947 59.0498C74.927 59.1139 74.8733 59.1915 74.8373 59.2776C74.8012 59.3637 74.7835 59.4564 74.7853 59.5498V64.1298H80.0815C80.2689 64.1287 80.4482 64.0532 80.5802 63.9198L93.8456 50.5998C93.9119 50.5346 93.9646 50.4568 94.0006 50.371C94.0366 50.2851 94.0551 50.1929 94.0551 50.0998C94.0551 50.0066 94.0366 49.9145 94.0006 49.8286C93.9646 49.7428 93.9119 49.665 93.8456 49.5998L89.5966 45.3798C89.4661 45.2515 89.2907 45.1797 89.1079 45.1797C88.9252 45.1797 88.7497 45.2515 88.6192 45.3798V45.3798Z" stroke="white" stroke-width="3" stroke-miterlimit="10"/>
<path d="M84.4902 49.5195L89.7166 54.7595" stroke="white" stroke-width="3" stroke-miterlimit="10" stroke-linecap="round"/>
<path d="M84.4304 42.8708V40.2408C84.4151 39.9861 84.3034 39.7469 84.1179 39.5721C83.9325 39.3974 83.6875 39.3003 83.433 39.3008H62.4876C62.2332 39.3003 61.9881 39.3974 61.8027 39.5721C61.6173 39.7469 61.5055 39.9861 61.4902 40.2408V69.7708C61.5055 70.0255 61.6173 70.2646 61.8027 70.4394C61.9881 70.6141 62.2332 70.7112 62.4876 70.7108H83.433C83.6875 70.7112 83.9325 70.6141 84.1179 70.4394C84.3034 70.2646 84.4151 70.0255 84.4304 69.7708V65.9508" stroke="white" stroke-width="3" stroke-miterlimit="10" stroke-linecap="round"/>
<path d="M67.0664 44.6719H79.095" stroke="white" stroke-width="3" stroke-miterlimit="10" stroke-linecap="round"/>
<path d="M67.0664 49.8008H75.4645" stroke="white" stroke-width="3" stroke-miterlimit="10" stroke-linecap="round"/>
<path d="M67.0664 54.9297H73.1805" stroke="white" stroke-width="3" stroke-miterlimit="10" stroke-linecap="round"/>
</g>
<defs>
<clipPath id="clip0_763_867">
<rect width="43.8856" height="44" fill="white" transform="translate(54.8574 33)"/>
</clipPath>
</defs>
</svg>
