<svg width="80" height="80" viewBox="0 0 80 80" fill="none" xmlns="http://www.w3.org/2000/svg">
<path d="M59.7634 6.96769C60.4493 8.25112 61.3985 9.37589 62.5492 10.2687C63.6998 11.1615 65.026 11.8023 66.4414 12.1493V12.1493C68.8381 12.731 70.9481 14.1472 72.3919 16.1431C73.8357 18.1391 74.5185 20.5837 74.3174 23.0372C74.1995 24.4897 74.3903 25.9506 74.8773 27.3243C75.3643 28.698 76.1365 29.9537 77.1433 31.0089V31.0089C78.8439 32.7921 79.8514 35.1221 79.9848 37.5803C80.1183 40.0384 79.3688 42.4635 77.8713 44.4195V44.4195C76.985 45.5772 76.3539 46.9088 76.0193 48.327C75.6848 49.7451 75.6544 51.2178 75.9301 52.6486V52.6486C76.3948 55.0664 75.9802 57.5704 74.7608 59.7104C73.5413 61.8504 71.597 63.4862 69.2773 64.3236C67.9045 64.82 66.6523 65.6002 65.6025 66.6131C64.5528 67.626 63.7292 68.8488 63.1858 70.2014V70.2014C62.2663 72.4832 60.5626 74.3635 58.3801 75.5053C56.1976 76.6471 53.6789 76.9758 51.2756 76.4325V76.4325C49.8517 76.1089 48.3753 76.0891 46.9432 76.3742C45.511 76.6594 44.1553 77.2432 42.9648 78.0874V78.0874C40.9547 79.5138 38.5006 80.1775 36.044 79.9593C33.5873 79.741 31.2893 78.655 29.5633 76.8966V76.8966C28.5411 75.8564 27.3101 75.0435 25.951 74.5113C24.5919 73.9792 23.1354 73.7398 21.6771 73.8089C19.2157 73.92 16.7952 73.1522 14.8497 71.6432C12.9042 70.1342 11.561 67.9828 11.0611 65.5748V65.5748C10.7636 64.1483 10.1683 62.8004 9.31377 61.6189C8.45927 60.4375 7.36487 59.4491 6.10192 58.7181V58.7181C3.96589 57.4861 2.3406 55.5336 1.51858 53.212C0.696564 50.8904 0.731792 48.3522 1.61792 46.0542V46.0542C2.14022 44.6941 2.36921 43.2393 2.28994 41.7848C2.21067 40.3303 1.82493 38.9089 1.15789 37.6133V37.6133C0.0235669 35.4233 -0.290094 32.9011 0.273393 30.5008C0.83688 28.1004 2.24049 25.9798 4.23148 24.5206V24.5206C5.40897 23.6597 6.39097 22.5603 7.11317 21.2943C7.83537 20.0284 8.28147 18.6245 8.42228 17.1745V17.1745C8.66402 14.729 9.77065 12.4495 11.5438 10.7446C13.3169 9.03965 15.6405 8.02084 18.098 7.87081V7.87081C19.5557 7.78081 20.9779 7.38463 22.2715 6.7082C23.5652 6.03178 24.7011 5.09034 25.6051 3.94551V3.94551C27.1306 2.01136 29.2972 0.683617 31.7157 0.200875C34.1341 -0.281867 36.6457 0.112043 38.7993 1.31182V1.31182C40.0732 2.02098 41.4826 2.45403 42.9356 2.5827C44.3885 2.71136 45.8523 2.53276 47.2314 2.05853C49.5638 1.25242 52.1079 1.30403 54.4055 2.20407C56.7031 3.10411 58.6031 4.79342 59.7634 6.96769V6.96769Z" fill="#B3B3B3"/>
<path d="M40.0064 73.3799C33.3903 73.3809 26.9225 71.4238 21.4209 67.756C15.9193 64.0881 11.6311 58.8744 9.09852 52.7742C6.56595 46.6739 5.9028 39.9611 7.19292 33.4846C8.48305 27.0082 11.6685 21.059 16.3464 16.3895C21.0244 11.72 26.9847 8.53984 33.4736 7.25125C39.9625 5.96266 46.6886 6.62351 52.8012 9.15021C58.9138 11.6769 64.1383 15.956 67.8142 21.4463C71.49 26.9366 73.4519 33.3915 73.4519 39.9947C73.4426 48.8452 69.916 57.3307 63.6459 63.5895C57.3759 69.8483 48.8743 73.3693 40.0064 73.3799V73.3799ZM40.0064 7.11897C33.4901 7.11797 27.1198 9.04568 21.7012 12.6583C16.2827 16.2709 12.0592 21.4061 9.56508 27.4145C7.07093 33.4228 6.41808 40.0345 7.68911 46.4132C8.96014 52.7919 12.098 58.6511 16.7057 63.2499C21.3135 67.8487 27.1842 70.9804 33.5753 72.2489C39.9665 73.5175 46.5911 72.8659 52.6112 70.3766C58.6314 67.8873 63.7766 63.6721 67.3963 58.2641C71.016 52.8561 72.9474 46.4983 72.9464 39.9947C72.937 31.2784 69.4636 22.9217 63.2882 16.7584C57.1128 10.595 48.7398 7.12832 40.0064 7.11897V7.11897Z" fill="#FFFAFA"/>
<path d="M40.0079 72.1085C33.6437 72.1095 27.4222 70.2269 22.1301 66.6988C16.838 63.1707 12.7131 58.1556 10.2769 52.2876C7.84079 46.4197 7.20286 39.9625 8.44384 33.7327C9.68481 27.5029 12.7489 21.7803 17.2487 17.2886C21.7485 12.7969 27.4818 9.73783 33.7236 8.4983C39.9654 7.25877 46.4353 7.89444 52.3151 10.3249C58.1949 12.7554 63.2206 16.8715 66.7564 22.1527C70.2922 27.4339 72.1795 33.643 72.1795 39.9947C72.1701 48.5081 68.7778 56.6702 62.7466 62.6905C56.7154 68.7109 48.5379 72.0979 40.0079 72.1085ZM40.0079 8.39046C33.7435 8.38946 27.6195 10.2426 22.4104 13.7155C17.2014 17.1884 13.1412 22.125 10.7435 27.9011C8.34576 33.6771 7.71814 40.0331 8.94001 46.1652C10.1619 52.2973 13.1784 57.93 17.608 62.3509C22.0376 66.7718 27.6813 69.7824 33.8253 71.0019C39.9694 72.2214 46.3378 71.595 52.1252 69.202C57.9125 66.8089 62.8588 62.7567 66.3385 57.5578C69.8182 52.3589 71.675 46.2469 71.674 39.9947C71.6673 31.6134 68.3294 23.577 62.3927 17.6491C56.4561 11.7212 48.4056 8.38601 40.0079 8.37532V8.39046Z" fill="#FFFAFA"/>
<path d="M52.7607 37.0284H46.5124L40.062 31.1454L33.6115 37.0284H27.3379L35.6942 29.1828H29.1578V25.207H51.0015V29.1828H44.3741L52.7607 37.0284ZM51.5273 48.7387C51.5478 49.3855 51.4273 50.0291 51.1742 50.625C50.9211 51.2208 50.5413 51.7547 50.0612 52.1897C49.0135 53.1146 47.647 53.5975 46.2496 53.5368H33.8187C32.4327 53.6007 31.0762 53.1229 30.0374 52.2049C29.5645 51.7689 29.1914 51.2363 28.9437 50.6434C28.6959 50.0504 28.5792 49.411 28.6017 48.7689C28.5805 48.1115 28.6988 47.4569 28.9488 46.8483C29.1989 46.2396 29.575 45.6906 30.0526 45.2372C30.5545 44.7637 31.1463 44.3952 31.7931 44.1534C32.4399 43.9117 33.1286 43.8015 33.8187 43.8295H37.5697V42.0132H27.4592V38.1434H52.6748V42.0334H42.5289V43.8497H46.2496C46.9441 43.823 47.6371 43.9336 48.2886 44.1752C48.9402 44.4168 49.5375 44.7846 50.0461 45.2574C50.5268 45.6992 50.9075 46.2382 51.163 46.8385C51.4184 47.4389 51.5426 48.0867 51.5273 48.7387V48.7387ZM34.7287 49.8487H45.4003C46.3608 49.8487 46.836 49.4803 46.836 48.7387C46.8584 48.5635 46.8385 48.3855 46.7778 48.2195C46.7171 48.0536 46.6174 47.9047 46.4872 47.7851C46.1579 47.5958 45.7792 47.5097 45.4003 47.5379H34.7287C34.3718 47.5109 34.0161 47.6032 33.7176 47.8002C33.5927 47.9201 33.4971 48.0672 33.4384 48.23C33.3796 48.3927 33.3593 48.5668 33.3789 48.7387C33.355 48.9054 33.3751 49.0754 33.4372 49.232C33.4992 49.3886 33.6011 49.5264 33.7328 49.6317C34.0389 49.7924 34.3835 49.8657 34.7287 49.8436V49.8487Z" fill="#212121"/>
</svg>
