<svg width="80" height="80" viewBox="0 0 80 80" fill="none" xmlns="http://www.w3.org/2000/svg">
<path d="M59.7634 6.96769C60.4493 8.25112 61.3985 9.37589 62.5492 10.2687C63.6998 11.1615 65.026 11.8023 66.4414 12.1493V12.1493C68.8381 12.731 70.9481 14.1472 72.3919 16.1431C73.8357 18.1391 74.5185 20.5837 74.3174 23.0372C74.1995 24.4897 74.3903 25.9506 74.8773 27.3243C75.3643 28.698 76.1365 29.9537 77.1433 31.0089V31.0089C78.8439 32.7921 79.8514 35.1221 79.9848 37.5803C80.1183 40.0384 79.3688 42.4635 77.8713 44.4195V44.4195C76.985 45.5772 76.3539 46.9088 76.0193 48.327C75.6848 49.7451 75.6544 51.2178 75.9301 52.6486V52.6486C76.3948 55.0664 75.9802 57.5704 74.7608 59.7104C73.5413 61.8504 71.597 63.4862 69.2773 64.3236C67.9045 64.82 66.6523 65.6002 65.6025 66.6131C64.5528 67.626 63.7292 68.8488 63.1858 70.2014V70.2014C62.2663 72.4832 60.5626 74.3635 58.3801 75.5053C56.1976 76.6471 53.6789 76.9758 51.2756 76.4325V76.4325C49.8517 76.1089 48.3753 76.0891 46.9432 76.3742C45.511 76.6594 44.1553 77.2432 42.9648 78.0874V78.0874C40.9547 79.5138 38.5006 80.1775 36.044 79.9593C33.5873 79.741 31.2893 78.655 29.5633 76.8966V76.8966C28.5411 75.8564 27.3101 75.0435 25.951 74.5113C24.5919 73.9792 23.1354 73.7398 21.6771 73.8089C19.2157 73.92 16.7952 73.1522 14.8497 71.6432C12.9042 70.1342 11.561 67.9828 11.0611 65.5748V65.5748C10.7636 64.1483 10.1683 62.8004 9.31377 61.6189C8.45927 60.4375 7.36487 59.4491 6.10192 58.7181V58.7181C3.96589 57.4861 2.3406 55.5336 1.51858 53.212C0.696564 50.8904 0.731792 48.3522 1.61792 46.0542V46.0542C2.14022 44.6941 2.36921 43.2393 2.28994 41.7848C2.21067 40.3303 1.82493 38.9089 1.15789 37.6133V37.6133C0.0235669 35.4233 -0.290094 32.9011 0.273393 30.5008C0.83688 28.1004 2.24049 25.9798 4.23148 24.5206V24.5206C5.40897 23.6597 6.39097 22.5603 7.11317 21.2943C7.83537 20.0284 8.28147 18.6245 8.42228 17.1745V17.1745C8.66402 14.729 9.77065 12.4495 11.5438 10.7446C13.3169 9.03965 15.6405 8.02084 18.098 7.87081V7.87081C19.5557 7.78081 20.9779 7.38463 22.2715 6.7082C23.5652 6.03178 24.7011 5.09034 25.6051 3.94551V3.94551C27.1306 2.01136 29.2972 0.683617 31.7157 0.200875C34.1341 -0.281867 36.6457 0.112043 38.7993 1.31182V1.31182C40.0732 2.02098 41.4826 2.45403 42.9356 2.5827C44.3885 2.71136 45.8523 2.53276 47.2314 2.05853C49.5638 1.25242 52.1079 1.30403 54.4055 2.20407C56.7031 3.10411 58.6031 4.79342 59.7634 6.96769V6.96769Z" fill="#FFA4A4"/>
<path d="M40.0084 73.376C33.3923 73.377 26.9244 71.4199 21.4229 67.7521C15.9213 64.0842 11.633 58.8705 9.10048 52.7703C6.56791 46.67 5.90475 39.9572 7.19488 33.4807C8.485 27.0043 11.6705 21.0551 16.3484 16.3856C21.0263 11.7161 26.9867 8.53593 33.4756 7.24734C39.9645 5.95875 46.6906 6.6196 52.8031 9.1463C58.9157 11.673 64.1403 15.9521 67.8161 21.4424C71.4919 26.9327 73.4539 33.3876 73.4539 39.9908C73.4445 48.8413 69.918 57.3268 63.6479 63.5856C57.3778 69.8444 48.8763 73.3653 40.0084 73.376V73.376ZM40.0084 7.11507C33.492 7.11407 27.1217 9.04177 21.7032 12.6544C16.2846 16.267 12.0612 21.4022 9.56704 27.4106C7.07288 33.4189 6.42003 40.0306 7.69106 46.4093C8.96209 52.788 12.0999 58.6472 16.7077 63.246C21.3154 67.8448 27.1861 70.9764 33.5773 72.245C39.9685 73.5135 46.5931 72.862 52.6132 70.3727C58.6333 67.8834 63.7786 63.6682 67.3982 58.2602C71.0179 52.8522 72.9494 46.4944 72.9484 39.9908C72.939 31.2745 69.4655 22.9178 63.2901 16.7545C57.1147 10.5911 48.7417 7.12441 40.0084 7.11507V7.11507Z" fill="#FFF5F5"/>
<path d="M40.0059 72.1085C33.6418 72.1095 27.4203 70.2269 22.1282 66.6988C16.8361 63.1707 12.7111 58.1556 10.275 52.2876C7.83883 46.4197 7.20091 39.9625 8.44188 33.7327C9.68286 27.5029 12.747 21.7803 17.2468 17.2886C21.7466 12.7969 27.4799 9.73783 33.7217 8.4983C39.9635 7.25877 46.4334 7.89444 52.3132 10.3249C58.193 12.7554 63.2186 16.8715 66.7544 22.1527C70.2903 27.4339 72.1775 33.643 72.1775 39.9947C72.1682 48.5081 68.7758 56.6702 62.7447 62.6905C56.7135 68.7109 48.536 72.0979 40.0059 72.1085ZM40.0059 8.39046C33.7415 8.38946 27.6176 10.2426 22.4085 13.7155C17.1994 17.1884 13.1393 22.125 10.7415 27.9011C8.34381 33.6771 7.71618 40.0331 8.93806 46.1652C10.1599 52.2973 13.1764 57.93 17.606 62.3509C22.0356 66.7718 27.6793 69.7824 33.8234 71.0019C39.9675 72.2214 46.3359 71.595 52.1232 69.202C57.9106 66.8089 62.8569 62.7567 66.3366 57.5578C69.8163 52.3589 71.673 46.2469 71.672 39.9947C71.6653 31.6134 68.3274 23.577 62.3908 17.6491C56.4541 11.7212 48.4036 8.38601 40.0059 8.37532V8.39046Z" fill="#FFF5F5"/>
<path d="M52.7607 37.0284H46.5124L40.062 31.1454L33.6115 37.0284H27.3379L35.6942 29.1828H29.1578V25.207H51.0015V29.1828H44.3741L52.7607 37.0284ZM51.5273 48.7387C51.5478 49.3855 51.4273 50.0291 51.1742 50.625C50.9211 51.2208 50.5413 51.7547 50.0612 52.1897C49.0135 53.1146 47.647 53.5975 46.2496 53.5368H33.8187C32.4327 53.6007 31.0762 53.1229 30.0374 52.2049C29.5645 51.7689 29.1914 51.2363 28.9437 50.6434C28.6959 50.0504 28.5792 49.411 28.6017 48.7689C28.5805 48.1115 28.6988 47.4569 28.9488 46.8483C29.1989 46.2396 29.575 45.6906 30.0526 45.2372C30.5545 44.7637 31.1463 44.3952 31.7931 44.1534C32.4399 43.9117 33.1286 43.8015 33.8187 43.8295H37.5697V42.0132H27.4592V38.1434H52.6748V42.0334H42.5289V43.8497H46.2496C46.9441 43.823 47.6371 43.9336 48.2886 44.1752C48.9402 44.4168 49.5375 44.7846 50.0461 45.2574C50.5268 45.6992 50.9075 46.2382 51.163 46.8385C51.4184 47.4389 51.5426 48.0867 51.5273 48.7387V48.7387ZM34.7287 49.8487H45.4003C46.3608 49.8487 46.836 49.4803 46.836 48.7387C46.8584 48.5635 46.8385 48.3855 46.7778 48.2195C46.7171 48.0536 46.6174 47.9047 46.4872 47.7851C46.1579 47.5958 45.7792 47.5097 45.4003 47.5379H34.7287C34.3718 47.5109 34.0161 47.6032 33.7176 47.8002C33.5927 47.9201 33.4971 48.0672 33.4384 48.23C33.3796 48.3927 33.3593 48.5668 33.3789 48.7387C33.355 48.9054 33.3751 49.0754 33.4372 49.232C33.4992 49.3886 33.6011 49.5264 33.7328 49.6317C34.0389 49.7924 34.3835 49.8657 34.7287 49.8436V49.8487Z" fill="#212121"/>
</svg>
