<svg width="1350" height="1216" viewBox="0 0 1350 1216" fill="none" xmlns="http://www.w3.org/2000/svg">
<path d="M461.628 618.555C476.767 617.451 532.006 603.319 514.04 635.106C494.884 668.998 457.3 693.899 418.319 696.897C395.175 704.5 418.835 692.984 425.681 668.76C436.188 631.583 429.648 612.55 464.938 601.728C490.657 593.84 538.65 580.678 554.866 612.21C564.211 630.382 562.795 663.834 543.004 674.829C525.179 684.732 496.727 688.329 477.075 684.484C439.542 677.14 455.932 643.259 480.11 629.037C509.357 611.833 579.27 587.315 569.486 645.037C568.366 651.645 538.382 699.272 531.97 678.967C521.533 645.915 595.22 593.281 605.347 630.416C623.357 696.451 550.821 735.749 505.488 683.104C467.346 638.811 506.812 582.069 552.108 566.97C559.766 564.417 551.575 592.899 551.004 595.935C546.836 618.092 541.49 647.345 515.143 652.209C468.195 660.876 420.774 629.419 477.075 593.728C488.813 586.287 544.093 550.952 558.728 557.315C566.612 560.743 560.304 606.105 558.728 612.486C551.903 640.127 523.997 659.705 498.592 668.76C494.485 670.224 464.269 679.836 462.731 668.76C454.323 608.225 580.634 594.488 616.106 605.865C632.955 611.27 658.779 631.531 645.898 652.209C631.521 675.288 584.411 681.626 560.935 673.725C505.364 655.024 552.647 591.527 585.762 574.97C587.908 573.897 576.982 595 565.9 598.693" stroke="#B189A8" stroke-width="20" stroke-linecap="round"/>
<path d="M690.025 633.449C677.46 633.449 631.716 633.449 670.164 633.449C680.673 633.449 700.622 643.38 682.301 643.38C672.83 643.38 644.643 645.159 653.888 643.104C672.873 638.885 690.563 638.415 709.887 638.415" stroke="#B189A8" stroke-width="20" stroke-linecap="round"/>
<path d="M560.926 454.703C559.405 446.147 560.925 421.671 560.925 429C560.925 444.614 558.379 439.422 560.926 454.703Z" stroke="#B189A8" stroke-width="20" stroke-linecap="round"/>
<path d="M615.546 504.351C598.182 488.434 585.753 476.495 585.753 452.49C585.753 432.752 586.716 442.463 583.547 456.904C574.683 497.282 541.893 525.36 537.203 465.731C535.958 449.894 553.399 431.793 557.616 454.145C558.553 459.11 554.11 499.937 547.134 499.937C544.364 499.937 557.755 453.631 558.72 450.283C562.939 435.64 560.927 447.135 560.927 454.697" stroke="#B189A8" stroke-width="20" stroke-linecap="round"/>
<path d="M431.827 648.345C432.018 652.352 439.227 683.574 438.723 674C438.06 661.403 434.752 648.231 437.896 635.656C442.683 616.506 451.688 653.441 451.688 624.622C451.688 607.309 432.178 599.824 431.827 577.727C431.617 564.522 433.3 550.567 431.551 537.452C430.59 530.243 423.028 529.659 419.689 523.935C412.135 510.985 416.931 486.823 416.931 472.627C416.931 440.938 445.052 493.481 448.378 501.04C451.561 508.274 454.683 540.29 441.758 520.901C423.657 493.75 436.736 474.232 449.481 513.177C456.143 533.532 446.567 509.28 443.964 504.074C436.791 489.726 434.345 477.157 430.723 461.868C425.04 437.872 431.467 440.546 431.827 464.627C431.935 471.896 437.478 503.881 425.758 504.35C401.961 505.302 380.963 491.014 398.724 465.179C421.685 431.781 472.133 439.747 453.343 485.868C449.598 495.06 409.669 515.221 413.345 502.971C418.157 486.929 427.657 455.252 437.896 481.872C440.226 487.93 446.175 497.5 462.175 497.5C454.883 500.972 437.382 509 441.758 509" stroke="#B189A8" stroke-width="20" stroke-linecap="round"/>
<path d="M550.997 494.424C523.857 537.679 541.618 497.98 541.618 471.804C561.48 471.804 546.369 438.246 554.859 434.001C570.212 426.324 537.228 529.986 554.859 471.804C559.74 455.696 560.928 584.704 560.928 530.009C560.928 516.687 560.687 503.287 562.031 490.01C562.747 482.941 561.952 463.133 565.893 469.046C574.212 481.523 571.584 516.313 570.583 530.837C570.067 538.316 559.729 557.233 562.031 539.388C563.703 526.431 585.62 460.432 603.409 461.322C606.443 461.473 609.925 535.463 610.306 542.698C610.695 550.092 608.236 623.421 601.754 601.455M601.754 601.455C590.716 564.047 595.134 402.457 595.134 441.46C595.134 466.143 590.856 503.875 576.927 524.768C565.983 541.184 545.938 520.852 545.677 515.5C544.76 496.702 560.928 468.003 560.928 449.184C560.928 439.43 555.134 471.528 562.031 478.425C568.706 485.099 570.901 468.709 576.927 487.252C589.91 527.199 590.72 570.362 590.72 611.938C590.72 643.305 592.38 614.512 601.754 601.455ZM601.754 601.455C605.578 596.129 625.832 542.542 626.177 561.181C653.677 601.455 638.776 638.914 617.754 659.936C601.275 676.415 589.939 674.557 581.893 653.316C567.531 615.4 618.533 580.226 614.443 622.144C605.794 710.804 475.003 727.271 420.794 675.108C400.484 711.9 416.439 658.572 424.656 621.868C427.201 610.499 434.147 517.717 426.863 538.009C418.006 562.683 422.675 534.403 424.656 524.216C427.19 511.186 434.203 471.985 431.828 485.045C428.457 503.59 423.897 504.043 406.175 510.424C381.211 519.41 409.978 473.517 415.277 468.218C427.075 456.42 431.671 436.9 439.001 468.218C441.299 478.038 470.802 546.491 443.966 530.837C431.181 523.379 432.317 494.975 430.725 482.838C430.028 477.524 431.23 444.175 432.104 468.218C433.104 495.707 434.423 523.185 434.587 550.698C434.736 575.714 430.546 570.77 439.001 560.077C449.994 546.174 478.163 525.674 450.862 556.767C447.649 560.427 408.97 546.781 406.175 530.009C401.988 504.889 411.347 529.741 428.518 510.424C445.302 491.542 464.996 567.192 442.862 586.559C421.968 604.842 462.719 564.467 467.689 561.181C471.035 558.968 561.239 509.568 541.618 538.245C531.092 553.63 485.56 576.605 509.619 556.215C518.591 548.612 561.89 521.364 564.79 546.009C567.679 570.563 557.668 598.421 551.273 621.868C549.738 627.496 541.894 634.723 549.342 626.282C555.106 619.749 587.681 591.132 591.823 609.179C599.517 642.701 598.501 675.523 564.514 690.556C549.039 697.401 519.303 712.514 501.343 707.383C484.826 702.664 492.098 673.837 500.792 665.453C518.187 648.679 581.688 624.639 603.685 640.351C615.433 648.742 623.138 692.829 607.271 700.763C588.961 709.918 561.623 712.64 541.618 712.9C519.781 713.184 521.205 702.582 521.205 683.384C521.205 644.932 610.03 629.333 610.03 668.488C610.03 724.22 522.584 734.109 509.619 718.004C488.677 722.109 432.37 723.913 420.794 700.763" stroke="#B189A8" stroke-width="20" stroke-linecap="round"/>
<path d="M605.615 707.923C603.781 711.132 591.547 741.577 587.408 741.577C570.168 741.577 542.949 705.853 532.789 694.13C518.21 677.308 520.611 653.198 523.962 632.615C526.616 616.312 530.202 615.357 531.41 629.856C532.752 645.964 534.696 730.816 552.099 732.75C578.369 735.669 575.822 743.27 575.822 767.507C575.822 779.448 575.796 790.832 573.064 802.541C572.222 806.148 561.608 839.851 563.685 820.471C566.528 793.933 568.726 768.208 576.098 742.404C577.684 736.853 590.299 684.988 595.684 694.682C602.54 707.022 600.551 800.999 611.132 803.644C615.192 804.659 679.754 683.522 620.235 792.058C618.726 794.809 589.216 845.696 586.857 844.194C580.334 840.044 593.586 800.177 594.58 793.437C597.86 771.211 599.889 741.983 600.649 786.817C600.734 791.792 602.959 808.818 595.684 811.092C587.893 813.527 594.112 758.64 594.58 754.266C598.129 721.15 613.44 773.614 616.097 782.955C617.457 787.736 618.081 830.819 615.545 826.54C602.815 805.058 623.567 747.938 625.2 790.403C626.01 811.454 625.641 832.516 626.579 853.573C626.86 859.866 631.698 884.741 627.131 891.917C621.157 901.305 619.736 883.763 619.683 883.366C618.037 871.022 610.465 859.505 608.373 846.953C605.673 830.755 626.222 828.556 636.786 822.126C648.852 814.782 645.337 817.509 645.337 831.505C645.337 844.599 635.173 847.611 625.752 854.677C622.299 857.267 610.243 874.316 605.615 868.47C597.526 858.253 595.684 839.545 595.684 827.092C595.684 787.314 623.635 863.088 607.27 853.573C565.912 829.529 551.662 796.494 550.996 749.852C550.52 716.59 559.178 709.469 593.477 700.199C606.066 696.796 610.58 765.757 610.58 778.817C610.58 799.875 608.349 736.52 611.132 715.647C613.029 701.415 645.003 703.465 654.441 703.785C674.241 704.456 719.751 707.067 728.921 729.991C734.137 743.03 713.567 762.111 703.818 763.369C692.329 764.852 668.348 757.895 663.268 743.784C654.381 719.099 666.503 685.797 683.129 667.372C721.977 624.325 727.35 660.381 723.68 701.854C720.813 734.253 706.735 752.762 675.13 761.438C655.06 766.948 627.244 774.534 632.648 744.335C637.051 719.733 699.152 610.205 703.818 684.199C705.594 712.347 699.234 751.599 667.957 761.438C640.395 770.11 614.076 757.297 605.615 729.991C592.224 686.776 653.438 644.123 659.406 693.854C662.372 718.57 660.351 744.65 637.338 758.956C629.009 764.133 603.916 773.455 593.753 766.68C566.464 748.487 659.081 669.562 672.371 684.751C684.441 698.545 687.277 745.757 689.198 763.369C691.988 788.946 659.934 790.627 636.786 800.058C602.977 813.832 642.34 750.887 655.268 737.715C671.622 721.052 693.586 709.208 715.404 701.302C737.526 693.287 735.367 716.27 734.714 732.75C733.658 759.416 720.934 779.237 692.784 782.955C648.757 788.77 655.794 739.028 665.751 712.061C684.649 660.877 713.649 677.328 719.266 722.267C720.622 733.115 714.479 757.294 704.922 732.75C698.652 716.648 684.358 624.476 723.68 639.511C731.696 642.576 762.22 693.705 747.403 701.854C736.367 707.924 716.652 688.313 712.094 680.337C703.113 664.621 732.287 628.594 747.403 639.511C757.234 646.611 749.265 697.547 747.403 707.371C742.865 731.322 725.467 734.025 703.818 731.646C652.528 726.01 673.436 683.899 706.853 668.476C733.567 656.146 782.819 721.015 771.678 744.887C762.784 763.947 717.206 784.338 693.888 773.576C677.484 766.005 685.424 710.224 719.542 760.335C744.526 797.03 752.944 773.373 715.404 793.437C715.404 826.54 705.087 799.065 712.094 792.058C726.458 777.695 720.951 819.264 727.542 832.057C729.582 836.017 721.556 834.34 712.094 816.992C702.122 798.709 718.428 809.98 729.749 792.334C754.315 754.039 751.02 814.898 731.956 832.057C721.55 841.422 710.422 809.989 725.611 800.058C734.009 794.567 751.132 788.29 761.472 792.886C767.066 795.372 784.004 810.028 782.675 800.058C778.732 770.484 793.747 765.745 793.747 792.61C793.747 804.714 788.183 821.959 772.852 800.058C763.201 786.271 744.231 767.436 769.472 773.576C787.721 778.015 775.924 733.724 740.589 737.724C676.429 744.988 663.268 691.652 663.268 651.097C667.875 665.707 712.519 670.711 729.749 656.614C744.72 644.365 749.827 695.61 739.404 705.164C722.766 720.415 727.558 661.338 746.576 651.097C766.08 640.594 789.333 708.916 789.333 725.026C789.333 739.131 782.4 756.927 776.92 769.714C765.154 797.166 742.762 736.471 733.611 726.681C722.671 714.978 710.641 703.926 709.887 686.958C709.8 684.985 711.035 660.476 708.784 660.476C697.392 660.476 692.591 675.119 677.888 670.958C666.5 667.735 649.642 661.443 650.303 647.235C650.852 635.434 677.776 634.989 659.406 647.235" stroke="#B189A8" stroke-width="20" stroke-linecap="round"/>
<path d="M415.447 561C401.522 538.172 384.279 515.942 385.211 487.052C386.12 458.879 401.66 440.518 426.289 438.162C448.972 435.993 458.153 455.853 459.273 478.992C459.931 492.576 455.221 527.787 462.175 535.767" stroke="black" stroke-width="3" stroke-linecap="round"/>
<path d="M494.417 643C478.114 666.186 513.596 662.028 520.175 651.853" stroke="black" stroke-width="3" stroke-linecap="round"/>
<path d="M570.175 615C575.19 617.274 598.89 625.123 586.76 635.312C581.073 640.09 576.969 640 570.175 640" stroke="black" stroke-width="3" stroke-linecap="round"/>
<path d="M472.175 583L467.175 601" stroke="black" stroke-width="3" stroke-linecap="round"/>
<path d="M554.175 561L561.175 583" stroke="black" stroke-width="3" stroke-linecap="round"/>
<path d="M665.175 642.571L692.375 630H700.535H711.415H722.295H730.455H735.895H744.055H752.215H754.935H757.655H760.375V633.143H763.095H765.815L768.535 639.429H771.255L773.975 645.714H776.695V652H779.415L782.135 658.286V661.429L784.855 664.571L787.575 686.571V692.857V699.143V702.286L790.295 705.429V708.571L793.015 718L795.735 724.286V730.571L798.455 740L801.175 749.429V752.571V765.143V768.286V777.714V784V790.286V802.857V812.286L798.455 815.429V821.714V824.857V828L793.015 831.143L790.295 837.429H787.575L784.855 828L782.135 821.714L776.695 815.429L771.255 802.857L768.535 796.571L765.815 790.286V787.143V784V777.714H763.095L760.375 774.571V768.286L757.655 765.143V762H749.495L744.055 765.143H741.335V768.286V777.714L744.055 787.143L746.775 796.571L749.495 802.857L752.215 812.286V818.571V821.714V828V831.143L741.335 850" stroke="black" stroke-width="3" stroke-linecap="round"/>
<path d="M744.175 837.712C722.785 842.576 700.806 838.459 700.806 806.125C700.806 800.911 702.706 789.792 700.204 785.418C696.042 778.143 677.178 791.286 672.798 793.491C661.145 799.354 659.795 802.062 646.596 802.967C639.653 803.443 646.596 870.057 646.596 877.371C646.596 901.635 643.051 873.261 637.862 862.981C633.979 855.288 605.583 815.238 602.625 818.058C599.054 821.463 593.482 822.712 600.517 827.534C604.804 830.473 606.393 837.006 610.757 840.871C620.436 849.443 618.652 866.68 622.803 878.775C626.369 889.162 614.963 903.041 614.672 901.938C613.461 897.353 616.661 882.18 612.865 879.477C608.16 876.126 602.241 867.079 597.204 866.14C592.294 865.224 580.776 838.795 576.122 832.097C566.624 818.423 564.8 805.92 560.461 789.63C554.416 766.929 543.12 747.049 538.175 724" stroke="black" stroke-width="3" stroke-linecap="round"/>
<path d="M275.175 93.9395C300.118 85.4766 308.33 80.5007 311.257 119.063C312.712 138.218 312.001 157.759 312.001 177" stroke="black" stroke-width="3" stroke-linecap="round"/>
<path d="M365.175 7C366.578 72.4175 379.175 135.785 379.175 201" stroke="black" stroke-width="3" stroke-linecap="round"/>
<path d="M394.175 127C410.841 123.145 426.87 118.435 443.175 113" stroke="black" stroke-width="3" stroke-linecap="round"/>
<path d="M405.175 81C431.708 66.1671 458.27 52.3695 485.175 39" stroke="black" stroke-width="3" stroke-linecap="round"/>
<path d="M450.175 113C451.241 127.786 455.841 159 471.646 159C479.67 159 479.801 132.628 480.464 125.778C482.875 100.87 479.844 90 460.527 90" stroke="black" stroke-width="3" stroke-linecap="round"/>
<path d="M479.175 81C492.124 74.146 505.025 67.8725 518.175 62" stroke="black" stroke-width="3" stroke-linecap="round"/>
<path d="M487.175 142C510.522 141.248 529.621 124.743 548.175 108" stroke="black" stroke-width="3" stroke-linecap="round"/>
<path d="M561.175 2V150" stroke="black" stroke-width="3" stroke-linecap="round"/>
<path d="M484.175 193C490.449 218.41 491.102 260.781 517.675 256.729C553.601 251.251 584.163 222.301 618.175 211.281" stroke="black" stroke-width="3" stroke-linecap="round"/>
<path d="M976.181 845.281C961.801 799.695 955.675 712.893 995.153 678.762C1008.81 666.955 1017.2 646.655 1035.43 645.381C1087.29 641.758 1131.05 664.591 1177.88 686.436C1239.24 715.053 1299.15 755.088 1343.31 813.819C1367 845.33 1297.36 866 1281.73 866" stroke="black" stroke-width="3" stroke-linecap="round"/>
<path d="M976.175 672C953.833 626.157 941.663 575.335 927.175 526" stroke="black" stroke-width="3" stroke-linecap="round"/>
<path d="M940.175 596C961.516 573.592 972.719 553.047 988.175 526" stroke="black" stroke-width="3" stroke-linecap="round"/>
<path d="M958.175 492V561" stroke="black" stroke-width="3" stroke-linecap="round"/>
<path d="M970.175 742C930.768 722.296 894.965 697.069 868.175 658" stroke="black" stroke-width="3" stroke-linecap="round"/>
<path d="M837.175 658.396C869.931 671.762 890.027 698.739 890.99 644.33C891.405 620.912 890.99 597.429 890.99 574" stroke="black" stroke-width="3" stroke-linecap="round"/>
<path d="M850.175 616C870.447 633.867 889.517 654.508 909.175 672" stroke="black" stroke-width="3" stroke-linecap="round"/>
<path d="M1089.57 818C1041.35 818 993.237 819.303 945.917 831.507C919.125 838.418 994.561 855.988 998.456 856.593C1008.08 858.089 1069.49 863.118 1067.62 864.311C1059.51 869.491 992.836 889.302 1001.78 895.957C1034.11 920.009 1084.74 906.19 1039.02 959.25C1033.14 966.077 1017.99 977.419 1013.09 986.265C1006.22 998.659 1038.96 983.548 1050.33 977.002C1100.22 948.294 1147.75 909.881 1196.31 877.819C1213.81 866.259 1230.56 852.734 1251.17 852.734" stroke="black" stroke-width="3" stroke-linecap="round"/>
<path d="M1233.17 791C1243.54 757.192 1255.81 728.027 1272.43 697.709C1282.18 679.93 1276.56 755.187 1276.56 763.013" stroke="black" stroke-width="3" stroke-linecap="round"/>
<path d="M1294.17 798C1273.64 806.287 1253.42 815.012 1233.17 824" stroke="black" stroke-width="3" stroke-linecap="round"/>
<path d="M1245.17 791C1262.93 803.84 1275.27 815.57 1287.17 831" stroke="black" stroke-width="3" stroke-linecap="round"/>
<path d="M1042.17 672C1084.54 682.542 1116.66 707.798 1131.76 757.46C1136.13 771.859 1153.08 773.148 1163.06 781.048C1201.25 811.28 1192.59 853.345 1181.05 898.604C1172.86 930.695 1176.17 958.782 1187.37 989.864C1198.79 1021.56 1214.51 1019.6 1203.36 1057.15C1191.95 1095.57 1174.71 1128.6 1174.05 1170.06C1173.74 1189.51 1175.82 1193.02 1162.06 1201" stroke="black" stroke-width="3" stroke-linecap="round"/>
<path d="M1066.17 658C1100.83 722.506 1124.56 826.82 1105.18 903.181C1096.42 937.648 1121.31 975.384 1115.51 1013.99C1109.17 1056.2 1114.1 1106.58 1123.51 1147.2C1133.44 1190.08 1139.73 1184.4 1114.18 1214" stroke="black" stroke-width="3" stroke-linecap="round"/>
<path d="M500.142 558.137C497.201 573.826 494.936 580.951 478.777 580.951C456.928 580.951 487.391 559.744 466.466 578.054C460.556 583.224 441.158 600.3 432.789 599.419C432.654 599.404 452.024 568.294 454.516 565.38C458.5 560.719 474.257 545.843 469.362 562.845C465.704 575.552 454.975 583.416 444.739 590.728" stroke="#B189A8" stroke-width="20" stroke-linecap="round"/>
<path d="M470.474 593.869V609.553" stroke="black" stroke-width="15" stroke-linecap="round"/>
<path d="M556.737 570.344C559.719 576.432 562.228 582.371 564.579 588.642" stroke="black" stroke-width="15" stroke-linecap="round"/>
<path d="M449.175 835C481.425 835 502.266 824 533.175 824" stroke="black" stroke-width="3" stroke-linecap="round"/>
<path d="M533.175 829.424C523.2 841.64 513.544 851.63 513.544 869.02C513.544 877.019 517.643 879.494 514.362 876.876C499.725 865.196 464.856 851.765 455.743 879.076C442.338 919.247 398.393 919.929 364.133 919.929C348.52 919.929 318.713 927.285 307.423 914.272C299.384 905.007 259.566 833.956 279.885 830.053C314.573 823.389 353.586 835.081 389.217 835.081C411.41 835.081 427.599 829.424 449.745 829.424" stroke="black" stroke-width="3" stroke-linecap="round"/>
<path d="M302.175 909.799C323.883 894.515 342.143 866.785 353.897 898.07C359.521 913.04 384.027 941.179 397.997 932.305C419.673 918.538 433.568 837.105 449.175 909.799" stroke="black" stroke-width="3" stroke-linecap="round"/>
<path d="M444.175 841V875" stroke="black" stroke-width="3" stroke-linecap="round"/>
<path d="M656.513 769.831C654.821 772.065 647.451 780.894 647.528 780.881C651.944 780.145 655.852 779.124 659.302 776.44C663.357 773.286 662.647 775.231 657.546 777.68C648.423 782.059 649.486 780.84 656.513 775.821C657.567 775.068 651.189 775.038 650.936 774.995C644.264 773.848 642.259 770.235 640.712 764.047C637.184 749.936 636.064 736.301 636.064 721.807C636.064 717.172 631.828 720.999 629.764 722.53C622.648 727.81 629.726 728.706 635.238 729.966C647.735 732.822 662.345 730.792 675.103 730.792C683.563 730.792 691.559 728.933 699.993 728.933C706.606 728.933 714.2 730.306 719.718 726.041C740.033 710.344 726.52 741.577 742.439 737.402C747.678 736.028 756.982 728.896 762.372 731.928C768.188 735.2 765.495 743.649 759.79 736.266C755.386 730.567 757.077 723.534 756.898 716.746C756.745 710.922 754.584 704.805 753.18 699.189" stroke="#B189A8" stroke-width="30" stroke-linecap="round"/>
<path d="M764.335 671.307C764.335 689.618 765.232 704.695 768.053 722.325C769.093 728.822 771.521 728.136 773.63 731.827C774.631 733.577 779.932 743.561 778.794 739.263C776.344 730.008 772.727 723.23 771.358 713.65C769.989 704.063 766.628 690.352 762.476 681.634C757.969 672.169 760.06 662.198 756.899 652.717" stroke="#B189A8" stroke-width="30" stroke-linecap="round"/>
<path d="M483.554 694C485.401 694.428 497.589 695.967 491.565 695.556C488.349 695.336 486.791 694.811 483.143 694.8C474.93 694.775 465.153 695.664 457.126 695.111C447.32 694.436 477.159 694.8 487.183 694.8C497.645 694.8 509.679 694.352 519.773 695.444C524.381 695.943 526.713 696.949 531.618 697.2C533.658 697.305 536.062 698.81 538.054 699.2C540.294 699.639 542.549 700 545.175 700" stroke="#B189A8" stroke-width="30" stroke-linecap="round"/>
<path d="M485.487 541.177C494.344 538.452 502.377 537.459 511.513 537.459" stroke="#B189A8" stroke-width="30" stroke-linecap="round"/>
<path d="M777.347 740.088C780.598 752.709 782.376 756.271 790.36 764.255" stroke="#B189A8" stroke-width="30" stroke-linecap="round"/>
<path d="M473.57 535.207C488.252 528.635 503.657 525.874 517.968 518.444C522.613 516.033 533.045 525.807 534.882 520.888C540.151 506.779 535.599 484.396 536.694 469.202C537.869 452.901 539.545 433.709 549.531 421.009C555.961 412.83 592.711 423.301 598.007 429.041C610.037 442.082 611.97 465.728 620.206 481.6C627.49 495.636 603.562 510.364 607.068 529.619C608.061 535.073 615.259 535.641 618.998 536.778C626.621 539.098 630.756 545.925 636.667 551.621C655.096 569.378 662.486 624.363 657.809 650.802C652.362 681.593 628.659 710.124 604.047 721.346C584.066 730.458 564.098 731.461 543.943 737.935C520.902 745.335 497.213 730.5 474.174 730.077C458.914 729.797 447.675 724 434.175 721.346C421.676 714 416.175 703 410.48 687.912C410.48 659.243 410.146 657.536 414.372 629.848C417.749 607.72 424.641 585.751 424.641 563.494" stroke="black" stroke-width="3" stroke-linecap="round"/>
<path d="M580.703 444.663C579.69 444.871 566.9 448.583 567.165 446.458C567.529 443.544 570.698 441.965 570.917 439.009C571.11 436.397 576.099 434.732 571.895 436.834" stroke="#B189A8" stroke-width="30" stroke-linecap="round"/>
<path d="M624.641 591.717C626.023 595.496 628.178 599.638 625.949 603.489C623.526 607.674 620.246 607.162 617.914 603.115C614.183 596.64 608.483 570.124 622.679 576.676C626.653 578.51 631.839 587.974 633.423 592.091C636.112 599.084 639.776 603.507 639.776 611.43C639.776 623.313 634.793 633.556 631.367 644.69C628.483 654.065 620.717 657.325 627.07 643.849C628.522 640.767 630.554 638.003 631.928 634.88C632.377 633.86 632.849 630.935 633.423 631.89C635.903 636.023 634.929 643.538 634.637 648.053C633.976 658.296 632.232 667.083 628.004 676.174C618.592 696.41 567.137 723.417 564.195 686.637C563.42 676.956 565.686 671.895 571.855 664.776C582.484 652.512 591.353 659.854 577.741 671.503C561.667 685.258 542.357 693.347 525.517 705.136C521.386 708.027 508.145 704.363 505.617 708.499C497.73 721.406 525.519 724.64 532.991 722.98C541.119 721.174 550.037 716.634 557.935 713.544C568.308 709.485 583.921 706.243 591.755 698.409C602.986 687.179 617.524 674.899 624.641 660.665C632.845 644.257 641.457 621.773 641.457 603.115C641.457 581.496 621.004 559.23 598.669 558.084C583.768 557.32 566.964 541.371 552.33 550.517C547.556 553.5 541.104 553.039 535.7 553.039C524.255 553.039 514.779 553.488 503.749 556.496C497.69 558.149 493.166 562.332 486.932 563.223C485.147 563.478 480.272 567.306 479.832 568.922C479.012 571.927 496.466 571.538 498.517 571.538C515.267 571.538 524.982 583.089 538.876 590.036" stroke="#B189A8" stroke-width="30" stroke-linecap="round"/>
<path d="M443.022 652.258C448.31 655.893 450.013 653.701 452.365 659.078C454.006 662.83 455.85 663.193 458.531 665.337C465.331 670.777 468.939 667.786 466.566 660.666" stroke="#B189A8" stroke-width="30" stroke-linecap="round"/>
<path d="M513.653 627.033C512.765 622.482 511.972 618.194 511.972 613.58" stroke="#B189A8" stroke-width="30" stroke-linecap="round"/>
<path d="M181.504 597.786C213.084 604.331 234.911 601.706 265.177 607.978" stroke="black" stroke-width="3" stroke-linecap="round"/>
<path d="M264.603 610.754C253.385 615.729 242.744 619.493 240.679 629.456C239.73 634.039 243.449 636.289 240.547 634.123C227.601 624.461 195.053 609.69 182.887 623.488C164.991 643.783 121.879 635.255 88.3327 628.303C73.0439 625.135 42.9837 623.301 33.4737 613.554C26.7026 606.614 -3.85115 557.827 16.5092 559.714C51.2659 562.935 88.0789 577.551 122.969 584.781C144.7 589.285 161.224 589.33 182.909 593.824" stroke="black" stroke-width="3" stroke-linecap="round"/>
<path d="M28.8166 610.165C51.8537 605.978 72.9638 594.096 80.8289 614.068C84.5923 623.624 105.31 644.415 120.023 642.262C142.852 638.921 165.944 595.965 172.758 639.996" stroke="black" stroke-width="3" stroke-linecap="round"/>
<path d="M175.999 599.711L171.94 619.295" stroke="black" stroke-width="3" stroke-linecap="round"/>
<path d="M181.504 597.786C213.084 604.331 234.911 601.706 265.177 607.978" stroke="black" stroke-width="3" stroke-linecap="round"/>
<path d="M264.603 610.754C253.385 615.729 242.744 619.493 240.679 629.456C239.73 634.039 243.449 636.289 240.547 634.123C227.601 624.461 195.053 609.69 182.887 623.488C164.991 643.783 121.879 635.255 88.3327 628.303C73.0439 625.135 42.9837 623.301 33.4737 613.554C26.7026 606.614 -3.85115 557.827 16.5092 559.714C51.2659 562.935 88.0789 577.551 122.969 584.781C144.7 589.285 161.224 589.33 182.909 593.824" stroke="black" stroke-width="3" stroke-linecap="round"/>
<path d="M28.8166 610.165C51.8537 605.978 72.9638 594.096 80.8289 614.068C84.5923 623.624 105.31 644.415 120.023 642.262C142.852 638.921 165.944 595.965 172.758 639.996" stroke="black" stroke-width="3" stroke-linecap="round"/>
<path d="M175.999 599.711L171.94 619.295" stroke="black" stroke-width="3" stroke-linecap="round"/>
<path d="M181.504 597.786C213.084 604.331 234.911 601.706 265.177 607.978" stroke="black" stroke-width="3" stroke-linecap="round"/>
<path d="M264.603 610.754C253.385 615.729 242.744 619.493 240.679 629.456C239.73 634.039 243.449 636.289 240.547 634.123C227.601 624.461 195.053 609.69 182.887 623.488C164.991 643.783 121.879 635.255 88.3327 628.303C73.0439 625.135 42.9837 623.301 33.4737 613.554C26.7026 606.614 -3.85115 557.827 16.5092 559.714C51.2659 562.935 88.0789 577.551 122.969 584.781C144.7 589.285 161.224 589.33 182.909 593.824" stroke="black" stroke-width="3" stroke-linecap="round"/>
<path d="M28.8166 610.165C51.8537 605.978 72.9638 594.096 80.8289 614.068C84.5923 623.624 105.31 644.415 120.023 642.262C142.852 638.921 165.944 595.965 172.758 639.996" stroke="black" stroke-width="3" stroke-linecap="round"/>
<path d="M175.999 599.711L171.94 619.295" stroke="black" stroke-width="3" stroke-linecap="round"/>
<path d="M181.504 597.786C213.084 604.331 234.911 601.706 265.177 607.978" stroke="black" stroke-width="3" stroke-linecap="round"/>
<path d="M264.603 610.754C253.385 615.729 242.744 619.493 240.679 629.456C239.73 634.039 243.449 636.289 240.547 634.123C227.601 624.461 195.053 609.69 182.887 623.488C164.991 643.783 121.879 635.255 88.3327 628.303C73.0439 625.135 42.9837 623.301 33.4737 613.554C26.7026 606.614 -3.85115 557.827 16.5092 559.714C51.2659 562.935 88.0789 577.551 122.969 584.781C144.7 589.285 161.224 589.33 182.909 593.824" stroke="black" stroke-width="3" stroke-linecap="round"/>
<path d="M28.8166 610.165C51.8537 605.978 72.9638 594.096 80.8289 614.068C84.5923 623.624 105.31 644.415 120.023 642.262C142.852 638.921 165.944 595.965 172.758 639.996" stroke="black" stroke-width="3" stroke-linecap="round"/>
<path d="M175.999 599.711L171.94 619.295" stroke="black" stroke-width="3" stroke-linecap="round"/>
<path d="M181.504 597.786C213.084 604.331 234.911 601.706 265.177 607.978" stroke="black" stroke-width="3" stroke-linecap="round"/>
<path d="M264.603 610.754C253.385 615.729 242.744 619.493 240.679 629.456C239.73 634.039 243.449 636.289 240.547 634.123C227.601 624.461 195.053 609.69 182.887 623.488C164.991 643.783 121.879 635.255 88.3327 628.303C73.0439 625.135 42.9837 623.301 33.4737 613.554C26.7026 606.614 -3.85115 557.827 16.5092 559.714C51.2659 562.935 88.0789 577.551 122.969 584.781C144.7 589.285 161.224 589.33 182.909 593.824" stroke="black" stroke-width="3" stroke-linecap="round"/>
<path d="M28.8166 610.165C51.8537 605.978 72.9638 594.096 80.8289 614.068C84.5923 623.624 105.31 644.415 120.023 642.262C142.852 638.921 165.944 595.965 172.758 639.996" stroke="black" stroke-width="3" stroke-linecap="round"/>
<path d="M175.999 599.711L171.94 619.295" stroke="black" stroke-width="3" stroke-linecap="round"/>
</svg>
