<svg width="80" height="80" viewBox="0 0 80 80" fill="none" xmlns="http://www.w3.org/2000/svg">
<path d="M59.7488 6.97091C60.4354 8.25629 61.3862 9.38231 62.539 10.2752C63.6917 11.1681 65.0203 11.8078 66.4378 12.1522C68.8363 12.7308 70.9491 14.1454 72.3959 16.1414C73.8426 18.1374 74.5283 20.5836 74.3293 23.0396V23.0396C74.2115 24.492 74.4021 25.9528 74.8888 27.3265C75.3755 28.7001 76.1472 29.9557 77.1534 31.0109V31.0109C78.8507 32.7958 79.8549 35.1267 79.9855 37.5847C80.116 40.0427 79.3644 42.4666 77.8658 44.4208V44.4208C76.9795 45.5782 76.348 46.9095 76.0128 48.3276C75.6776 49.7456 75.6462 51.2184 75.9207 52.6494V52.6494C76.3855 55.0665 75.9718 57.5698 74.7541 59.7097C73.5364 61.8495 71.5944 63.4855 69.2771 64.3238V64.3238C67.9103 64.8241 66.6641 65.6059 65.6196 66.6185C64.5752 67.6311 63.7557 68.8518 63.2145 70.2014V70.2014C62.2962 72.4857 60.5921 74.3681 58.4085 75.5102C56.2248 76.6523 53.7049 76.9791 51.3015 76.4321V76.4321C49.8793 76.1087 48.4046 76.0889 46.9742 76.374C45.5437 76.6592 44.1897 77.2429 43.0009 78.0869V78.0869C40.9912 79.5136 38.5378 80.1775 36.0818 79.9593C33.6258 79.741 31.3283 78.6549 29.6025 76.8963V76.8963C28.5821 75.8559 27.3527 75.0429 25.9952 74.5108C24.6378 73.9786 23.1829 73.7393 21.7262 73.8086C19.2665 73.9187 16.848 73.1506 14.9039 71.6418C12.9598 70.1331 11.6172 67.9824 11.1167 65.575C10.8172 64.1448 10.2174 62.7943 9.35703 61.6124C8.49663 60.4306 7.39513 59.4443 6.12515 58.7187C3.99193 57.4852 2.36894 55.5327 1.54761 53.2117C0.726279 50.8908 0.760412 48.3535 1.64388 46.0554V46.0554C2.16158 44.6981 2.38643 43.2468 2.30373 41.7966C2.22102 40.3465 1.83261 38.9301 1.16393 37.6402C0.023874 35.4461 -0.291592 32.9169 0.274671 30.5106C0.840934 28.1044 2.25148 25.9802 4.2508 24.5229V24.5229C5.42709 23.662 6.40786 22.5626 7.12878 21.2966C7.8497 20.0307 8.29449 18.6268 8.43398 17.1772V17.1772C8.67771 14.7318 9.78501 12.4529 11.5577 10.7483C13.3303 9.04376 15.6526 8.02486 18.1089 7.87399V7.87399C19.5658 7.78301 20.9869 7.38537 22.279 6.70716C23.5712 6.02896 24.7051 5.08553 25.6063 3.9388C27.1331 2.00602 29.3 0.680159 31.7177 0.199321C34.1354 -0.281516 36.6456 0.114175 38.7975 1.31533V1.31533C40.0709 2.02601 41.4801 2.46031 42.9331 2.58984C44.3861 2.71938 45.8502 2.54124 47.2295 2.06706V2.06706C49.5593 1.263 52.0998 1.31509 54.3945 2.21395C56.6893 3.11282 58.5878 4.79951 59.7488 6.97091V6.97091Z" fill="#747474"/>
<path d="M40.0005 73.3804C33.3886 73.3804 26.9252 71.4225 21.4277 67.7542C15.9301 64.086 11.6453 58.8722 9.11505 52.7722C6.5848 46.6721 5.92277 39.9598 7.21268 33.484C8.50259 27.0083 11.6865 21.0599 16.3618 16.3911C21.0371 11.7223 26.9938 8.54286 33.4786 7.25475C39.9634 5.96664 46.6851 6.62775 52.7936 9.15447C58.9022 11.6812 64.1233 15.96 67.7966 21.4499C71.47 26.9398 73.4306 33.3942 73.4306 39.9968C73.4212 48.8478 69.8961 57.3337 63.6288 63.5923C57.3615 69.8509 48.8638 73.371 40.0005 73.3804V73.3804ZM40.0005 7.12285C33.4883 7.12285 27.1224 9.0513 21.7078 12.6643C16.2932 16.2773 12.0732 21.4126 9.58132 27.4208C7.08946 33.4289 6.43773 40.0401 7.70856 46.4181C8.97938 52.7962 12.1157 58.6546 16.7208 63.2527C21.326 67.8507 27.1931 70.9817 33.5802 72.2498C39.9674 73.5179 46.5876 72.866 52.6038 70.3767C58.6199 67.8874 63.7618 63.6724 67.379 58.2648C70.9962 52.8572 72.9264 46.4999 72.9254 39.9968C72.916 31.2801 69.444 22.9232 63.2712 16.76C57.0985 10.5968 48.7294 7.13086 40.0005 7.12285V7.12285Z" fill="#F9F9F9"/>
<path d="M39.9988 72.1091C33.6388 72.1091 27.4215 70.2258 22.1333 66.6973C16.8451 63.1687 12.7235 58.1535 10.2896 52.2858C7.85573 46.418 7.21891 39.9613 8.4597 33.7322C9.70048 27.503 12.7631 21.7812 17.2604 17.2902C21.7576 12.7993 27.4874 9.74086 33.7253 8.50181C39.9631 7.26275 46.4288 7.89868 52.3048 10.3292C58.1807 12.7597 63.2029 16.8756 66.7364 22.1564C70.2698 27.4372 72.1558 33.6458 72.1558 39.997C72.1464 48.5108 68.7555 56.6732 62.7269 62.6934C56.6983 68.7135 48.5245 72.0998 39.9988 72.1091V72.1091ZM39.9988 8.39434C33.7385 8.39434 27.6187 10.2482 22.4135 13.7215C17.2083 17.1949 13.1514 22.1316 10.7559 27.9074C8.36039 33.6833 7.73388 40.0388 8.95558 46.1702C10.1773 52.3016 13.1923 57.9336 17.6194 62.3538C22.0465 66.774 27.6868 69.7839 33.8269 71.003C39.9671 72.222 46.3314 71.5953 52.1149 69.2022C57.8984 66.8092 62.8414 62.7571 66.3188 57.5586C69.7961 52.3601 71.6516 46.2486 71.6506 39.997C71.6452 31.6148 68.3091 23.5773 62.3747 17.6493C56.4403 11.7213 48.3927 8.38722 39.9988 8.3792V8.39434Z" fill="#F9F9F9"/>
<path d="M43.9858 40.6675H38.6255L34.8465 34.8707L31.1837 40.834H25.8789L32.3255 30.1535V25.1084H37.2766V30.1535L43.9858 40.6675ZM49.6594 44.1487C50.6341 45.2103 51.1749 46.5982 51.1751 48.0385C51.1818 49.459 50.6388 50.8273 49.6594 51.8576C49.1897 52.3934 48.6076 52.8194 47.9545 53.1054C47.3014 53.3914 46.5933 53.5303 45.8804 53.5124H33.4673C32.7599 53.533 32.0567 53.3966 31.4085 53.113C30.7602 52.8295 30.1831 52.4059 29.7185 51.8728C28.7621 50.8378 28.2379 49.477 28.2534 48.0687C28.2589 46.642 28.7852 45.2661 29.7337 44.1991C30.1819 43.6439 30.7514 43.1985 31.3985 42.8968C32.0456 42.5951 32.7532 42.4452 33.4673 42.4586H45.8905C46.6067 42.4451 47.3168 42.5916 47.9689 42.8876C48.621 43.1835 49.1986 43.6213 49.6594 44.1689V44.1487ZM34.3766 49.6479H45.0266C45.222 49.6441 45.4141 49.5969 45.5889 49.5096C45.7637 49.4223 45.9168 49.2972 46.037 49.1433C46.318 48.8247 46.4694 48.4125 46.4614 47.988C46.4828 47.5437 46.3429 47.1065 46.0673 46.757C45.9414 46.6045 45.7821 46.4828 45.6016 46.4015C45.4212 46.3201 45.2245 46.2813 45.0266 46.2878H34.3766C34.1842 46.2843 33.9939 46.3285 33.8228 46.4166C33.6518 46.5046 33.5053 46.6337 33.3965 46.7923C33.1402 47.1447 33.0103 47.573 33.0277 48.0082C33.0084 48.4368 33.1488 48.8574 33.4218 49.1887C33.5345 49.3353 33.6789 49.4546 33.8442 49.5376C34.0096 49.6206 34.1916 49.6652 34.3766 49.668V49.6479ZM50.6698 41.2225H45.7137V25.0781H50.6698V31.0314H54.1205V35.0372H50.6648L50.6698 41.2225Z" fill="#212121"/>
</svg>
