<svg width="80" height="80" viewBox="0 0 80 80" fill="none" xmlns="http://www.w3.org/2000/svg">
<path d="M59.7488 6.97091C60.4354 8.25629 61.3862 9.38231 62.539 10.2752C63.6917 11.1681 65.0203 11.8078 66.4378 12.1522C68.8363 12.7308 70.9491 14.1454 72.3959 16.1414C73.8426 18.1374 74.5283 20.5836 74.3293 23.0396V23.0396C74.2115 24.492 74.4021 25.9528 74.8888 27.3265C75.3755 28.7001 76.1472 29.9557 77.1534 31.0109V31.0109C78.8507 32.7958 79.8549 35.1267 79.9855 37.5847C80.116 40.0427 79.3644 42.4666 77.8658 44.4208V44.4208C76.9795 45.5782 76.348 46.9095 76.0128 48.3276C75.6776 49.7456 75.6462 51.2184 75.9207 52.6494V52.6494C76.3855 55.0665 75.9718 57.5698 74.7541 59.7097C73.5364 61.8495 71.5944 63.4855 69.2771 64.3238V64.3238C67.9103 64.8241 66.6641 65.6059 65.6196 66.6185C64.5752 67.6311 63.7557 68.8518 63.2145 70.2014V70.2014C62.2962 72.4857 60.5921 74.3681 58.4085 75.5102C56.2248 76.6523 53.7049 76.9791 51.3015 76.4321V76.4321C49.8793 76.1087 48.4046 76.0889 46.9742 76.374C45.5437 76.6592 44.1897 77.2429 43.0009 78.0869V78.0869C40.9912 79.5136 38.5378 80.1775 36.0818 79.9593C33.6258 79.741 31.3283 78.6549 29.6025 76.8963V76.8963C28.5821 75.8559 27.3527 75.0429 25.9952 74.5108C24.6378 73.9786 23.1829 73.7393 21.7262 73.8086C19.2665 73.9187 16.848 73.1506 14.9039 71.6418C12.9598 70.1331 11.6172 67.9824 11.1167 65.575C10.8172 64.1448 10.2174 62.7943 9.35703 61.6124C8.49663 60.4306 7.39513 59.4443 6.12515 58.7187C3.99193 57.4852 2.36894 55.5327 1.54761 53.2117C0.726279 50.8908 0.760412 48.3535 1.64388 46.0554V46.0554C2.16158 44.6981 2.38643 43.2468 2.30373 41.7966C2.22102 40.3465 1.83261 38.9301 1.16393 37.6402C0.023874 35.4461 -0.291592 32.9169 0.274671 30.5106C0.840934 28.1044 2.25148 25.9802 4.2508 24.5229V24.5229C5.42709 23.662 6.40786 22.5626 7.12878 21.2966C7.8497 20.0307 8.29449 18.6268 8.43398 17.1772V17.1772C8.67771 14.7318 9.78501 12.4529 11.5577 10.7483C13.3303 9.04376 15.6526 8.02486 18.1089 7.87399V7.87399C19.5658 7.78301 20.9869 7.38537 22.279 6.70716C23.5712 6.02896 24.7051 5.08553 25.6063 3.9388C27.1331 2.00602 29.3 0.680159 31.7177 0.199321C34.1354 -0.281516 36.6456 0.114175 38.7975 1.31533V1.31533C40.0709 2.02601 41.4801 2.46031 42.9331 2.58984C44.3861 2.71938 45.8502 2.54124 47.2295 2.06706V2.06706C49.5593 1.263 52.0998 1.31509 54.3945 2.21395C56.6893 3.11282 58.5878 4.79951 59.7488 6.97091V6.97091Z" fill="#FF7A7A"/>
<path d="M40.0024 73.3804C33.3906 73.3804 26.9272 71.4225 21.4296 67.7542C15.9321 64.086 11.6472 58.8722 9.117 52.7722C6.58675 46.6721 5.92472 39.9598 7.21463 33.484C8.50454 27.0083 11.6885 21.0599 16.3637 16.3911C21.039 11.7223 26.9957 8.54286 33.4805 7.25475C39.9653 5.96664 46.687 6.62775 52.7956 9.15447C58.9041 11.6812 64.1252 15.96 67.7986 21.4499C71.4719 26.9398 73.4325 33.3942 73.4325 39.9968C73.4232 48.8478 69.8981 57.3336 63.6307 63.5922C57.3634 69.8509 48.8658 73.371 40.0024 73.3804V73.3804ZM40.0024 7.12285C33.4903 7.12285 27.1244 9.0513 21.7098 12.6643C16.2952 16.2773 12.0751 21.4126 9.58327 27.4208C7.09141 33.4289 6.43968 40.0401 7.71051 46.4181C8.98133 52.7962 12.1176 58.6546 16.7228 63.2527C21.3279 67.8507 27.195 70.9817 33.5822 72.2498C39.9693 73.5178 46.5896 72.866 52.6057 70.3767C58.6219 67.8874 63.7637 63.6724 67.3809 58.2648C70.9982 52.8572 72.9283 46.4999 72.9273 39.9968C72.918 31.2801 69.4459 22.9232 63.2732 16.76C57.1005 10.5968 48.7313 7.13086 40.0024 7.12285V7.12285Z" fill="#FFF5F5"/>
<path d="M40.0008 72.1072C33.6407 72.1072 27.4235 70.2238 22.1353 66.6953C16.8471 63.1668 12.7255 58.1515 10.2916 52.2838C7.85768 46.4161 7.22087 39.9594 8.46165 33.7302C9.70244 27.5011 12.7651 21.7792 17.2623 17.2883C21.7596 12.7973 27.4894 9.73891 33.7272 8.49985C39.9651 7.2608 46.4308 7.89673 52.3067 10.3272C58.1826 12.7577 63.2049 16.8736 66.7383 22.1544C70.2718 27.4353 72.1578 33.6438 72.1578 39.995C72.1484 48.5088 68.7574 56.6712 62.7289 62.6914C56.7003 68.7116 48.5265 72.0978 40.0008 72.1072V72.1072ZM40.0008 8.39238C33.7404 8.39238 27.6207 10.2463 22.4154 13.7196C17.2102 17.1929 13.1533 22.1296 10.7578 27.9055C8.36235 33.6813 7.73583 40.0368 8.95753 46.1683C10.1792 52.2997 13.1943 57.9316 17.6214 62.3518C22.0484 66.772 27.6887 69.782 33.8289 71.001C39.9691 72.22 46.3334 71.5934 52.1169 69.2003C57.9004 66.8072 62.8434 62.7552 66.3207 57.5567C69.7981 52.3581 71.6535 46.2466 71.6525 39.995C71.6472 31.6128 68.3111 23.5754 62.3767 17.6473C56.4422 11.7193 48.3946 8.38527 40.0008 8.37725V8.39238Z" fill="#FFF5F5"/>
<path d="M44.1069 41.5894H38.7466L34.9676 35.7926L31.3048 41.7559H26L32.4466 31.0754V26.0303H37.3977V31.0754L44.1069 41.5894ZM49.7805 45.0706C50.7552 46.1321 51.296 47.5201 51.2962 48.9603C51.3029 50.3809 50.7599 51.7492 49.7805 52.7795C49.3108 53.3153 48.7287 53.7413 48.0756 54.0273C47.4225 54.3132 46.7144 54.4522 46.0015 54.4343H33.5883C32.881 54.4549 32.1778 54.3185 31.5296 54.0349C30.8813 53.7514 30.3042 53.3278 29.8396 52.7946C28.8832 51.7597 28.359 50.3988 28.3745 48.9906C28.38 47.5638 28.9063 46.188 29.8548 45.121C30.303 44.5658 30.8725 44.1204 31.5196 43.8187C32.1667 43.517 32.8743 43.3671 33.5883 43.3804H46.0116C46.7278 43.3669 47.4379 43.5135 48.09 43.8094C48.7421 44.1054 49.3197 44.5431 49.7805 45.0907V45.0706ZM34.4977 50.5697H45.1477C45.3431 50.566 45.5352 50.5188 45.71 50.4315C45.8848 50.3442 46.0379 50.2191 46.1581 50.0652C46.4391 49.7465 46.5905 49.3344 46.5825 48.9099C46.6039 48.4655 46.464 48.0284 46.1884 47.6789C46.0625 47.5263 45.9032 47.4047 45.7227 47.3234C45.5423 47.242 45.3455 47.2031 45.1477 47.2097H34.4977C34.3053 47.2061 34.115 47.2504 33.9439 47.3384C33.7729 47.4265 33.6264 47.5556 33.5176 47.7142C33.2613 48.0666 33.1314 48.4949 33.1488 48.9301C33.1295 49.3587 33.2699 49.7793 33.5429 50.1106C33.6556 50.2572 33.8 50.3765 33.9653 50.4595C34.1307 50.5425 34.3127 50.5871 34.4977 50.5899V50.5697ZM50.7909 42.1444H45.8348V26H50.7909V31.9532H54.2416V35.9591H50.7859L50.7909 42.1444Z" fill="#212121"/>
</svg>
