<svg width="216" height="61" viewBox="0 0 216 61" fill="none" xmlns="http://www.w3.org/2000/svg">
<rect y="19" width="216" height="42" rx="21" fill="#FAA2A1"/>
<path d="M186 0C186 13.6 173.333 18.3333 167 19H186V0Z" fill="#FAA2A1"/>
<path d="M36.908 44.556C35.302 44.556 34.136 43.456 34.136 41.784C34.136 40.112 35.302 39.012 36.908 39.012C38.514 39.012 39.68 40.112 39.68 41.784C39.68 43.456 38.514 44.556 36.908 44.556ZM36.908 37.142C34.048 37.142 31.98 39.078 31.98 41.784C31.98 44.512 34.048 46.426 36.908 46.426C39.746 46.426 41.836 44.512 41.836 41.784C41.836 39.078 39.746 37.142 36.908 37.142ZM38.008 31.114H35.742V33.886H31.012V35.734H42.65V33.886H38.008V31.114ZM49.602 38.814H46.544V30.828H44.256V50.716H46.544V40.706H49.602V38.814ZM54.2863 34.568H59.1043V43.94H54.2863V34.568ZM52.0423 45.744H61.3483V32.764H52.0423V45.744ZM69.8403 38.594H66.7383V30.828H64.4723V50.716H66.7383V40.464H69.8403V38.594ZM79.378 40.266H83.734V38.484H79.378V34.942H84.57V33.116H77.2V46.096H78.52C81.534 46.096 83.404 46.03 85.648 45.634L85.45 43.786C83.492 44.138 81.82 44.226 79.378 44.248V40.266ZM87.276 38.22H84.724V40.09H87.276V49.748H89.41V31.246H87.276V38.22ZM91.324 30.806V50.672H93.502V30.806H91.324ZM114.004 40.53C110.088 39.826 106.898 36.768 106.898 33.6V32.104H104.5V33.6C104.5 36.746 101.31 39.804 97.3943 40.53L98.3623 42.4C101.596 41.74 104.39 39.672 105.688 36.944C106.986 39.672 109.78 41.74 113.014 42.4L114.004 40.53ZM96.7783 46.272V48.142H114.774V46.272H96.7783ZM133.011 41.322H121.549V38.594H132.417V36.812H121.549V34.26H132.857V32.434H119.239V43.148H133.011V41.322ZM117.017 46.404V48.252H135.035V46.404H117.017ZM143.041 44.556C141.435 44.556 140.269 43.456 140.269 41.784C140.269 40.112 141.435 39.012 143.041 39.012C144.647 39.012 145.813 40.112 145.813 41.784C145.813 43.456 144.647 44.556 143.041 44.556ZM143.041 37.142C140.181 37.142 138.113 39.078 138.113 41.784C138.113 44.512 140.181 46.426 143.041 46.426C145.879 46.426 147.969 44.512 147.969 41.784C147.969 39.078 145.879 37.142 143.041 37.142ZM144.141 31.114H141.875V33.886H137.145V35.734H148.783V33.886H144.141V31.114ZM155.735 38.814H152.677V30.828H150.389V50.716H152.677V40.706H155.735V38.814ZM158.615 32.918V34.766H165.699C165.303 39.342 162.839 42.84 157.625 45.348L158.835 47.152C165.655 43.852 168.031 38.836 168.031 32.918H158.615ZM171.617 30.828V50.694H173.883V30.828H171.617Z" fill="white"/>
</svg>
