<svg width="153" height="150" viewBox="0 0 153 150" fill="none" xmlns="http://www.w3.org/2000/svg">
<path d="M83.4441 94.88H77.2241V93.26H75.1441V94.88H68.8241V96.46H83.4441V94.88ZM72.0041 107.68H80.3441V109.78H72.0041V107.68ZM69.9641 111.32H82.3641V106.12H69.9641V111.32ZM72.4441 99.62C72.4441 98.82 73.7241 98.46 76.1841 98.46C78.6241 98.46 79.9241 98.82 79.9241 99.62C79.9241 100.4 78.6241 100.78 76.1841 100.78C73.7241 100.78 72.4441 100.4 72.4441 99.62ZM77.2241 103.32V102.18C80.3641 102.02 82.1041 101.14 82.1041 99.62C82.1041 97.92 79.9841 97.04 76.1841 97.04C72.3641 97.04 70.2441 97.92 70.2441 99.62C70.2441 101.14 71.9841 102.02 75.1441 102.18V103.32H68.0041V104.94H84.3441V103.32H77.2241Z" fill="#666666"/>
<path d="M90.6874 50.7863L77.904 39.5571C77.2155 38.9523 76.1874 38.9523 75.4989 39.5571L62.7154 50.7863C62.3191 51.1344 62.0918 51.6374 62.0918 52.166V67.8341C62.0918 68.8466 62.9094 69.6674 63.918 69.6674H71.2228C72.2314 69.6674 73.049 68.8466 73.049 67.8341V60.5008C73.049 59.4883 73.8666 58.6674 74.8752 58.6674H78.5276C79.5362 58.6674 80.3538 59.4883 80.3538 60.5008V67.8341C80.3538 68.8466 81.1714 69.6674 82.18 69.6674H89.4848C90.4934 69.6674 91.311 68.8466 91.311 67.8341V52.166C91.311 51.6374 91.0837 51.1344 90.6874 50.7863Z" stroke="#666666" stroke-width="3" stroke-linecap="round" stroke-linejoin="round"/>
</svg>
