<svg width="874" height="761" viewBox="0 0 874 761" fill="none" xmlns="http://www.w3.org/2000/svg">
<path d="M168.423 83.3899C152.709 83.3899 124.265 80.081 112.031 92.7424C104.94 100.081 95.0432 105.42 87.2677 112.318C80.1627 118.62 77.6975 123.657 75.2538 132.328C73.7757 137.573 64.1714 161.434 58.0911 161.69C43.4503 162.309 28.6239 161.69 13.9585 161.69C3.24132 161.69 6.42434 170.678 3.41572 177.35C0.547254 183.712 2.92536 194.423 2.92536 201.276C2.92536 212.744 2.45601 218.493 10.6486 227.376C23.4863 241.295 41.1001 250.723 60.543 255.651C85.1683 261.892 105.96 261.523 132.381 261.523C198.632 261.523 264.992 262.665 331.223 261.415C342.257 261.206 370.54 263.359 379.033 254.455C388.181 244.865 392.893 227.004 396.687 215.304C401.551 200.304 403.2 184.21 404.41 168.65C404.733 164.496 406.026 156.781 403.306 152.99C394.709 141.006 378.719 135.977 364.813 130.37" stroke="black" stroke-width="3" stroke-linecap="round"/>
<path d="M146.336 88C146.336 71.0815 142.755 50.6266 147.319 34.0037C149.793 24.995 155.754 9.04551 164.036 2.96122C169.914 -1.35684 187.868 10.1511 193.905 12.2521C227.714 24.0163 221.562 51.9333 221.562 80.1301" stroke="black" stroke-width="3" stroke-linecap="round"/>
<path d="M248 83.3476C268.743 83.3476 292.383 81.1076 312 88" stroke="black" stroke-width="3" stroke-linecap="round"/>
<path d="M312 87.3874C329.646 79.0805 343.58 65.8469 358.278 53.9658C362.889 50.2378 370.361 38.5508 376.887 38.3981C390.966 38.0687 405.199 36.4857 417.533 43.1882C429.873 49.8941 427.654 60.0263 429.286 71.2754C430.878 82.2456 431 92.8314 431 103.935C431 119.512 416.482 121.724 402.842 130.063C390.923 137.349 374.472 134.417 360.481 134.417" stroke="black" stroke-width="3" stroke-linecap="round"/>
<path d="M184.154 129C181.483 136.675 183.731 136.559 188 141" stroke="black" stroke-width="3" stroke-linecap="round"/>
<path d="M110 116C111.089 120.938 112.205 126.528 115 131" stroke="black" stroke-width="3" stroke-linecap="round"/>
<path d="M27 204C28.2245 206.5 30 209.129 30 212" stroke="black" stroke-width="3" stroke-linecap="round"/>
<path d="M52 203C51.9386 206.07 51.7432 209.027 51 212" stroke="black" stroke-width="3" stroke-linecap="round"/>
<path d="M85.6572 260.642C85.2872 272.635 82.3795 284.488 81.4477 296.488C80.7236 305.813 81.2001 315.292 81.2001 324.636C81.2001 351.813 81.2001 378.991 81.2001 406.168C81.2001 433.958 80.7499 461.781 81.2001 489.569C81.3741 500.308 83.2861 511.311 85.6572 521.84C87.1176 528.325 85.7867 534.776 86.7714 541.247C87.3276 544.902 113.55 541.71 117.104 541.687C131.882 541.591 145.117 541.001 159.57 538.279C173.007 535.747 177.215 530.008 182.599 519.421C191.147 502.611 189.871 484.127 194.856 466.698C197.525 457.361 198.198 446.418 198.198 436.79C198.198 432.044 214.687 435.06 217.574 437.23C220.293 439.273 223.881 440.552 226.922 442.288C231.866 445.111 232.549 448.366 233.236 453.943C235.601 473.143 233.855 493.264 233.855 512.549C233.855 517.77 232.758 518.794 237.941 521.016C251.49 526.825 267.296 529.133 282.14 530.582C291.36 531.482 301.225 531.055 310.492 530.802C317.204 530.618 319.597 525.783 325.163 523.929C329.216 522.58 330.848 516.177 331.911 512.769C334.217 505.372 334.139 497.821 334.139 490.228C334.139 474.395 334.139 458.561 334.139 442.728C334.139 437.399 348.794 436.476 352.834 436.02C370.826 433.991 390.282 435.801 408.424 435.801C418.471 435.801 418.413 441.231 420.433 449.105C422.809 458.365 422.615 468.121 424.952 477.254C427.249 486.227 428.562 495.571 432.195 504.302C433.715 507.957 435.777 511.406 437.209 514.968C438.499 518.176 443.233 519.141 446.433 520.686C453.805 524.244 463.513 523.874 471.566 523.874C477.769 523.874 490.415 526.292 495.708 523.27C506.274 517.237 513.41 506.958 516.26 496.111C521.217 477.245 520.222 457.213 520.222 438C520.222 437.118 519.816 435.195 520.346 434.371C522.835 430.503 548.232 434.122 551.917 434.481C567.424 435.992 582.94 438.132 598.345 440.309C603.123 440.984 609.326 441.246 613.573 443.717C618.435 446.546 619.392 450.809 619.392 455.592C619.392 472.676 615.593 487.461 610.54 503.918C609.246 508.13 604.398 516.252 605.154 520.686C606.487 528.496 647.031 525.835 653.192 525.854C668.286 525.9 678.588 522.496 691.201 515.463C697.739 511.817 706.304 506.174 710.638 500.399C719.471 488.632 722.317 471.061 724.505 457.462C730.911 417.639 728.591 377.015 728.591 336.896C728.591 323.427 728.591 309.957 728.591 296.488C728.591 279.413 708.993 269.338 693.801 262.237C671.852 251.977 649.979 242.047 627.192 233.374C605.457 225.101 584.293 223.038 561.017 223.038C533.32 223.038 505.793 221.492 478.128 221.114C456.794 220.822 434.403 220.672 413.748 226.226C400.773 229.716 390.185 235.603 378.772 241.84C372.862 245.07 366.387 252.245 359.767 253.715" stroke="black" stroke-width="3" stroke-linecap="round"/>
<path d="M195.773 434C184.923 434 177.31 431.955 168.565 426.222C160.602 421.002 156.543 416.062 150.693 409.056C148.817 406.808 148.06 405.255 150.755 402.556C153.872 399.434 161.994 393.589 166.833 392.222C174.332 390.105 181.911 390 189.713 390C199.096 390 207.41 395.715 214.448 400.889C222.024 406.457 225.698 414.887 228.3 422.778C229.418 426.166 230.769 431.016 234.175 433.056C240.239 436.688 235.409 441.848 230.279 443" stroke="black" stroke-width="3" stroke-linecap="round"/>
<path d="M411 50C406.524 71.7697 389.393 85.2756 377.079 103.609C371.701 111.615 364.943 118.04 355 121" stroke="black" stroke-width="3" stroke-linecap="round"/>
<path d="M476.688 655.012C459.569 661.309 445.751 671.229 462.762 684.643C471.691 691.684 496.679 681.103 504.927 676.974C512.299 673.283 508.607 656.633 502.219 653.618C490.013 647.856 479.083 644.881 466.244 648.738" stroke="black" stroke-width="3" stroke-linecap="round"/>
<path d="M551 624C561.721 641.916 564.104 661.284 572 680" stroke="black" stroke-width="3" stroke-linecap="round"/>
<path d="M484 715C491.058 727.444 497.172 741.42 506.248 752.85C514.365 763.073 536.359 757.762 547.816 756.463C574.615 753.426 596.051 739.82 621 736.678" stroke="black" stroke-width="3" stroke-linecap="round"/>
<path d="M667.244 649.236C604.108 684.505 683.779 697.607 691.566 670.541C692.534 667.176 694.429 649.207 691.174 646.85C682.905 640.863 650.321 646.168 639 646.168" stroke="black" stroke-width="3" stroke-linecap="round"/>
<path d="M752 599C757.625 630.129 756.51 662.949 764.698 693.617C766.051 698.684 777 718.923 777 717.967" stroke="black" stroke-width="3" stroke-linecap="round"/>
<path d="M791 661C818.109 652.982 844.99 643.989 872 636" stroke="black" stroke-width="3" stroke-linecap="round"/>
<path d="M643.102 234.575C668.312 234.071 679.043 229.021 697.585 212.54C702.008 208.608 730.599 169.386 728.822 182.271C724.861 210.983 706.846 241.386 691.047 265.085" stroke="black" stroke-width="3" stroke-linecap="round"/>
</svg>
