<svg width="1959" height="1857" viewBox="0 0 1959 1857" fill="none" xmlns="http://www.w3.org/2000/svg">
<path d="M184.801 641.162C168.911 669.662 162.301 716.162 172.801 762.162L154.801 769.162C132.871 770.411 122.663 779.318 100.179 780.303C80.4442 781.168 74.3008 786.662 52.3008 792.662C39.8008 798.162 19.7259 807.564 11.3014 817.162C-1.90826 832.212 1.9803 833.646 4.80977 854.6C7.41783 873.915 45.4611 894.916 60.8171 902.57C82.4691 913.363 106.582 913.677 127.987 924.882C147.431 935.06 185.785 931.742 207.102 928.006C224.106 925.025 240.727 920.866 258.018 920.866C274.048 920.866 287.693 908.838 303.45 905.248C332.587 898.608 362.358 888.794 388.636 872.673C401.584 864.729 414.024 854.999 428.39 850.361C438.204 847.193 448.299 850.72 457.96 848.13C503.812 835.838 496.935 744.916 484.789 708.013C465.13 648.284 444.201 615.406 397.84 574.59C369.156 549.337 332.932 560.449 298.75 565.442C255.094 571.819 207.102 601.162 184.801 641.162Z" stroke="black" stroke-width="3" stroke-linecap="round"/>
<path d="M64.8008 808.662C65.144 824.69 66.7731 835.437 81.9047 839.746C86.388 841.023 96.048 841.787 98.6243 836.244C105.702 821.016 78.8285 813.843 71.7192 816.543" stroke="black" stroke-width="3" stroke-linecap="round"/>
<path d="M139.051 820.662C139.051 836.685 135.547 862.482 154.776 864.819C163.564 865.888 179.691 867.441 185.838 858.767C204.502 832.43 151.889 824.697 139.051 824.697" stroke="black" stroke-width="3" stroke-linecap="round"/>
<path d="M99.8008 856.662C90.2878 861.419 82.7892 866.271 74.8008 872.662" stroke="black" stroke-width="3" stroke-linecap="round"/>
<path d="M99.8008 852.662C116.173 864.071 132.288 871.226 148.801 880.662" stroke="black" stroke-width="3" stroke-linecap="round"/>
<path d="M268.801 655.662C248.654 655.662 244.455 655.852 230.801 671.662" stroke="black" stroke-width="3" stroke-linecap="round"/>
<path d="M265.387 687.662C243.096 724.883 286.59 703.691 262.017 691.755" stroke="black" stroke-width="3" stroke-linecap="round"/>
<path d="M325.801 659.662C336.678 687.712 357.665 699.71 378.801 715.662" stroke="black" stroke-width="3" stroke-linecap="round"/>
<path d="M321.801 715.662C319.501 717.745 297.542 746.001 316.361 739.766C320.482 738.4 318.304 719.499 318.304 715.662" stroke="black" stroke-width="3" stroke-linecap="round"/>
<path d="M395.789 880.662C393.576 896.124 388.729 913.285 388.729 928.986C388.729 939.167 383.063 943.583 381.865 953.148C380.071 967.471 416.467 981.464 425.6 971.046C437.457 957.519 427.471 933.563 436.582 923.169C452.233 905.316 479.9 912.878 501.302 912.878C519.017 912.878 538.511 910.02 555.431 916.01C566.15 919.805 577.064 920.932 588.183 920.932C597.029 920.932 592.458 934.07 594.262 941.067C599.151 960.029 630.812 978.865 647.215 972.388C662.499 966.353 649.96 925.887 649.96 912.878" stroke="black" stroke-width="3" stroke-linecap="round"/>
<path d="M508.801 752.662C549.49 764.734 615.196 778.1 628.49 830.884C630.867 840.322 635.345 844.658 638.481 853.551C641.04 860.811 641.56 873.806 646.316 878.662C650.478 882.911 653.16 897.383 653.368 903.773C653.832 917.978 660.376 922.272 649.842 924.662" stroke="black" stroke-width="3" stroke-linecap="round"/>
<path d="M455.954 920.662C455.954 946.652 452.345 969.662 480.155 969.662C497.699 969.662 498.801 936.436 498.801 920.662" stroke="black" stroke-width="3" stroke-linecap="round"/>
<path d="M642.801 868.662C658.049 876.308 681.801 899.589 681.801 921.31C681.801 943.097 665.873 931.464 656.983 921.31" stroke="black" stroke-width="3" stroke-linecap="round"/>
<path d="M630.455 299.298C624.898 325.085 581.11 488.206 637.069 495.727C669.031 500.022 711.245 495.697 723.415 447.039C729.355 423.29 736.477 403.912 710.188 387.02C689.603 373.793 656.91 398.591 656.91 363.515C656.91 324.118 651.027 271.04 604 306.853" stroke="black" stroke-width="3" stroke-linecap="round"/>
<path d="M657 428C672.281 424.37 687.385 420 703 420" stroke="black" stroke-width="3" stroke-linecap="round"/>
<path d="M663 443H710" stroke="black" stroke-width="3" stroke-linecap="round"/>
<path d="M657 473C672.337 470.333 687.607 468.05 703 466" stroke="black" stroke-width="3" stroke-linecap="round"/>
<path d="M831 337C927.453 274.219 1023.3 211.55 1125 161" stroke="black" stroke-width="3" stroke-linecap="round"/>
<path d="M845.873 245C845.729 245.839 821.844 370.501 828.02 371.575C845.71 374.651 879.247 360.254 897 353.493" stroke="black" stroke-width="3" stroke-linecap="round"/>
<path d="M1228 61C1268.28 41.1865 1308.62 21.5419 1349 2" stroke="black" stroke-width="3" stroke-linecap="round"/>
<path d="M1272 23C1272 87.0798 1268 151.125 1268 215" stroke="black" stroke-width="3" stroke-linecap="round"/>
<path d="M1297.75 56C1297.94 98.0546 1293.3 145.414 1305 186" stroke="black" stroke-width="3" stroke-linecap="round"/>
<path d="M1367 77C1384.23 73.9392 1478.92 37.3217 1465.75 15" stroke="black" stroke-width="3" stroke-linecap="round"/>
<path d="M1378 90C1393.48 123.462 1407.6 152.101 1407.6 190.168C1407.6 204.033 1402.85 218.934 1415 215.501" stroke="black" stroke-width="3" stroke-linecap="round"/>
<path d="M1418 73C1424.79 101.778 1440.3 129.079 1444.72 157.821C1448.12 179.907 1450.74 202.283 1455 224" stroke="black" stroke-width="3" stroke-linecap="round"/>
<path d="M326.703 766.864C316.71 781.929 309.902 793.544 312.274 812.617C313.494 822.423 328.547 815.497 332.393 812.15C346.523 799.855 333.305 776.19 330.361 762.662" stroke="black" stroke-width="3" stroke-linecap="round"/>
<path d="M1152.21 389.155C1167.97 382.402 1242.6 340.531 1249.38 379.165C1255.89 416.345 1209.63 466.349 1192.8 492.549C1173.47 522.638 1157.2 554.285 1139.28 585.317C1131.45 598.887 1146.19 570.718 1147.21 568.984" stroke="black" stroke-width="3" stroke-linecap="round"/>
<path d="M1237 475C1251.45 508.235 1265.38 541.971 1280 575" stroke="black" stroke-width="3" stroke-linecap="round"/>
<path d="M1285 358C1288.31 417.08 1289.86 476.43 1294.07 535.416C1296.01 562.667 1297 529.73 1297 520.817" stroke="black" stroke-width="3" stroke-linecap="round"/>
<path d="M1300 469.085C1315.37 471.061 1358 487.663 1358 461" stroke="black" stroke-width="3" stroke-linecap="round"/>
<path d="M1342.7 398C1342.7 434.37 1338.02 475.029 1344.2 510.97C1345.62 519.212 1347.3 538.016 1355 541" stroke="black" stroke-width="3" stroke-linecap="round"/>
<path d="M1373 377.801C1391.54 368.847 1406.54 359.359 1423.22 346.976C1430.82 341.341 1431.26 338.882 1436.47 348.406C1450.85 374.715 1449.99 405.376 1449.99 435" stroke="black" stroke-width="3" stroke-linecap="round"/>
<path d="M1360 503C1393.33 485.137 1426.37 466.532 1459.77 448.851C1464.53 446.329 1467.2 445.065 1470.61 440.665C1473.5 436.945 1484.93 429.404 1475.06 434.999" stroke="black" stroke-width="3" stroke-linecap="round"/>
<path d="M1418 481V535" stroke="black" stroke-width="3" stroke-linecap="round"/>
<path d="M1445 469C1451.92 481.096 1451.64 494.525 1457.29 506.471C1459.34 510.825 1461.86 512.867 1463 518" stroke="black" stroke-width="3" stroke-linecap="round"/>
<path d="M1393 561C1398.14 574.593 1402.7 586.41 1403 601.142C1403.35 618.705 1424.62 605.37 1433 601.613C1451.23 593.441 1469.68 582.619 1485.78 569.938C1492.68 564.502 1494.77 561 1503 561" stroke="black" stroke-width="3" stroke-linecap="round"/>
<path d="M278.045 567.846C273.04 562.841 268.012 558.346 262.017 554.539C254.263 549.616 245.875 548.258 237.184 545.601C231.192 543.769 225.354 542.622 219.073 543.114C210.546 543.783 204.228 555.05 199.885 561.193C193.047 570.866 187.306 581.436 184.092 592.913C182.696 597.901 183.16 601.944 186.512 605.951C189.797 609.879 193.574 610.185 198.205 610.185" stroke="#242424" stroke-width="3" stroke-linecap="round"/>
<path d="M218.77 589.016C218.77 583.423 217.359 575.599 221.257 570.971C224.321 567.333 228.036 566.461 232.379 568.249C237.755 570.463 241.733 573.226 243.569 578.733" stroke="#242424" stroke-width="3" stroke-linecap="round"/>
<path d="M468.022 654.592C471.92 650.457 471.644 647.405 471.644 641.873C471.644 633.569 471.779 625.438 470.195 617.242C468.328 607.578 466.247 591.461 456.31 586.492C445.201 580.938 433.884 577.074 421.415 577.074C418.16 577.074 415.696 576.701 412.963 578.523" stroke="#242424" stroke-width="3" stroke-linecap="round"/>
<path d="M428.176 598.807C436.424 597.95 449.16 595.57 451.64 606.253C452.915 611.745 453.895 618.366 451.358 623.438" stroke="#242424" stroke-width="3" stroke-linecap="round"/>
<path d="M1344.71 803.581C1341.66 805.955 1302.22 835.202 1323.43 838.314C1331.25 839.461 1349.85 835.628 1355.37 830.088C1375.03 810.356 1349.8 793.324 1331.45 808.912" stroke="#242424" stroke-width="3" stroke-linecap="round"/>
<path d="M1388.03 846.207C1384.62 850.056 1369.5 862.149 1370.42 868.775C1371.24 874.737 1377.17 877.623 1378.46 883.246C1380.94 894.025 1379.76 918.194 1395.36 900.575C1408.31 885.942 1407.88 859.514 1392.54 845.933" stroke="#242424" stroke-width="3" stroke-linecap="round"/>
<path d="M1265.81 883.05C1284.71 872.269 1297.28 868.466 1317.18 863.586C1333.56 859.567 1344.02 848.162 1338.5 871.091C1332.21 897.223 1312.95 946.129 1336.53 967.007" stroke="#242424" stroke-width="3" stroke-linecap="round"/>
<path d="M1258.63 876.697C1243.76 892.245 1230.78 894.23 1211.88 901.664C1210.05 902.381 1196.78 906.991 1199.54 909.705C1210.59 920.58 1225.07 936.639 1238.85 944.277C1242.84 946.488 1265.75 917.572 1269.98 914.477C1282.51 905.303 1293.29 894.58 1279.34 882.228" stroke="#242424" stroke-width="3" stroke-linecap="round"/>
<path d="M1307.01 928.069C1295.16 941.457 1283.35 954.484 1269.43 965.427C1253.73 977.771 1265.54 980.943 1279.15 992.997C1290.8 1003.31 1291.61 998.47 1301.56 987.236C1306.82 981.287 1327.5 963.693 1324.58 956.42" stroke="#242424" stroke-width="3" stroke-linecap="round"/>
<path d="M1380.95 1027.67C1363.59 1012.29 1339.07 996.896 1327.06 976.635C1322.12 968.303 1313.14 961.272 1310.24 952.262C1303.04 929.846 1278.75 915.558 1268.28 894.718C1257.24 872.754 1233.9 861.262 1256.17 836.115C1273.18 816.9 1289.13 792.255 1313.91 782.949C1336.01 774.651 1353.32 761.687 1379.42 768.661C1393.61 772.451 1409.19 791.999 1418.19 802.512C1440.65 828.742 1451.51 861.862 1465.55 893.043C1487.48 941.725 1509.42 990.029 1532.33 1038.21C1552.94 1081.58 1581.07 1120.23 1604.71 1161.8C1613.55 1177.35 1629.94 1191.14 1636.23 1206.77" stroke="#242424" stroke-width="3" stroke-linecap="round"/>
<path d="M1246.15 858.284C1186.8 925.311 1130.8 996.093 1059.31 1050.29C1040.77 1064.34 1012.15 1074.76 990.204 1082.02C959.688 1092.11 926.744 1097.01 895.411 1104.75C887.011 1106.83 812.289 1126.23 813.985 1119.88" stroke="#242424" stroke-width="3" stroke-linecap="round"/>
<path d="M767.379 1171.3C783.62 1157.3 803.782 1130.03 827.101 1127.95C847.4 1126.13 853.79 1157.72 848.807 1172.77C842.482 1191.86 814.195 1224.2 792.664 1215.02" stroke="#242424" stroke-width="3" stroke-linecap="round"/>
<path d="M900.083 1344.27C908.967 1323.9 925.233 1289.23 947.383 1278.54C956.894 1273.95 987.245 1275.27 983.193 1292.71C977.711 1316.3 933.933 1375.49 904.573 1364.37C896.388 1361.27 888.613 1351.18 882.047 1345.37" stroke="#242424" stroke-width="3" stroke-linecap="round"/>
<path d="M826.691 1253.69C848.891 1244.37 870.04 1232.89 893.133 1225.77C920.575 1217.3 887.596 1257.18 883.741 1261.54C878.587 1267.36 859.523 1297.69 848.496 1295.99C841.239 1294.87 833.502 1285.32 828.335 1280.74" stroke="#242424" stroke-width="3" stroke-linecap="round"/>
<path d="M792.389 1210.52C819.527 1235.6 824.995 1269.25 852.235 1293.37C867.818 1307.17 876.023 1321.87 888.399 1338.19" stroke="#242424" stroke-width="3" stroke-linecap="round"/>
<path d="M1374.33 1030.34C1397.19 1072.14 1388.25 1122.33 1365.17 1161.13C1353.68 1180.47 1353.97 1202.03 1341.66 1221.15C1329.43 1240.14 1319.45 1259.75 1305.09 1277.18C1297.41 1286.49 1291.82 1296.98 1283.6 1306.26C1268.72 1323.07 1249.23 1332.02 1232.09 1346.23C1200.15 1372.72 1159.97 1377.46 1121.01 1386.29C1084.6 1394.54 1049.49 1402 1013.63 1410.92C996.614 1415.15 979.418 1414.9 962.03 1416.19C945.494 1417.42 944.091 1417.37 930.973 1405.76" stroke="#242424" stroke-width="3" stroke-linecap="round"/>
<path d="M920.584 1383.76C939.894 1373.04 960.507 1360.53 977.93 1346.84C996.168 1332.5 984.215 1344.91 975.845 1358.03C968.728 1369.17 946.691 1423.94 928.854 1408.15" stroke="#242424" stroke-width="3" stroke-linecap="round"/>
<path d="M880.201 1352.27L890.041 1365.25" stroke="#242424" stroke-width="3" stroke-linecap="round"/>
<path d="M1593.6 1250.09C1568.65 1223.06 1544.51 1207.46 1511.5 1192.1C1500.79 1187.11 1487.94 1183.2 1480.52 1195.24C1457.81 1232.07 1554.85 1296.85 1577.28 1316.71C1585.59 1324.07 1590.66 1328.98 1602.62 1326.11C1609.39 1324.48 1629.32 1314.43 1631.89 1307.23C1638.56 1288.62 1601.29 1252.64 1588.54 1241.35" stroke="#242424" stroke-width="3" stroke-linecap="round"/>
<path d="M1577.41 1244.29C1569.25 1253.5 1557.89 1262.72 1553.86 1274.64C1553.42 1275.93 1545.25 1285.93 1549.89 1283.93C1559.89 1279.63 1569.18 1266.12 1577.82 1259.35C1586.91 1252.23 1566.36 1276.04 1563.21 1279.6C1549.8 1294.75 1594.51 1244.24 1584.39 1255.68C1576.78 1264.27 1563.73 1274.3 1559.27 1285.12C1553.92 1298.07 1572.31 1278.96 1573.17 1277.99C1574.97 1275.95 1596.15 1252.03 1587.05 1262.31C1580.31 1269.93 1573.56 1277.54 1566.82 1285.16C1565.55 1286.6 1586.2 1254.98 1562.87 1274.09C1543.86 1289.65 1581.41 1234.95 1553.84 1266.09C1551.92 1268.26 1539.72 1284.11 1551.95 1280.53C1558.9 1278.5 1564.74 1268.23 1569.48 1262.87" stroke="#242424" stroke-width="3" stroke-linecap="round"/>
<path d="M1667.52 1200.35C1696.63 1178.28 1730.92 1165.38 1764.37 1151.47C1790.51 1140.6 1809.66 1131.64 1837.83 1127.39C1874.53 1121.86 1939.07 1108.03 1930.9 1167.37C1914.85 1284.03 1751.91 1291.23 1666.3 1254.73" stroke="#242424" stroke-width="3" stroke-linecap="round"/>
<path d="M1738.57 1177.93C1767.88 1173.81 1791.02 1189.28 1802.96 1217.64C1808.67 1231.2 1812.1 1239.44 1801.84 1251.02" stroke="#242424" stroke-width="3" stroke-linecap="round"/>
<path d="M724.004 1239.56C703.4 1262.83 702.884 1270.31 706.287 1299.73C709.171 1324.66 722.578 1362.03 741.647 1378.92C754.076 1389.92 762.146 1403.87 772.359 1416.78C789.817 1438.84 814.61 1456.32 835.607 1474.91C853.366 1490.64 871.126 1506.36 888.885 1522.09C896.183 1528.55 900.654 1538.13 909.745 1540.56" stroke="#242424" stroke-width="3" stroke-linecap="round"/>
<path d="M1677.78 1294.76C1702.59 1327.76 1692.85 1374.82 1681.33 1411.21C1669.71 1447.95 1639.8 1478.12 1614.43 1506.05C1587.11 1536.12 1543.06 1555.63 1506.69 1572.31C1456.08 1595.52 1402.99 1613.25 1348.35 1625.05C1298.06 1635.91 1242.49 1630.98 1191.91 1626.38C1164.6 1623.9 1139.77 1616.27 1115.25 1604.01C1086.22 1589.49 1053.91 1584.99 1022.82 1576.68C998.167 1570.1 986.776 1561.83 967.715 1544.96C957.004 1535.47 941.583 1534.62 931.468 1525.66" stroke="#242424" stroke-width="3" stroke-linecap="round"/>
<path d="M1347.27 1031.98C1331.69 1044.02 1308.81 1058.61 1335.61 1071.91C1352.67 1080.38 1361.49 1068.92 1371.46 1057.66" stroke="#242424" stroke-width="3" stroke-linecap="round"/>
<path d="M1371.53 1096.13C1369.78 1098.66 1341.79 1129.46 1343.69 1134.53C1346.56 1142.18 1361.81 1131.39 1366.82 1130.36" stroke="#242424" stroke-width="3" stroke-linecap="round"/>
<path d="M1024.84 1386.48C1035.21 1374.76 1053.13 1343.13 1072.55 1356.42C1082.95 1363.54 1081.85 1370.28 1074.17 1378.95" stroke="#242424" stroke-width="3" stroke-linecap="round"/>
</svg>
