<svg id="Layer_1" data-name="Layer 1" xmlns="http://www.w3.org/2000/svg" viewBox="0 0 500 80"><defs><style>.cls-1{fill:#fee500;}.cls-2{fill:#3c3c3c;}.cls-3{fill:#3b3b3b;}</style></defs><rect class="cls-1" width="500" height="80" rx="10"/><path class="cls-2" d="M166.8,32.34v2h7.42a18.73,18.73,0,0,1-.58,3.39l-7.94.5.33,2.14,6.87-.68c-1.27,2.67-3.55,4.92-7.35,6.82l1.35,1.92c7.87-4,9.77-9.62,9.77-16.1Zm18.75,6.38h-3.29V30.15h-2.47V51.82h2.47v-11h3.29Zm3.33-6.38v2h7.42a18.73,18.73,0,0,1-.58,3.39l-7.94.5.33,2.14L195,39.7c-1.28,2.67-3.56,4.92-7.35,6.82L189,48.44c7.87-4,9.76-9.62,9.76-16.1Zm18.74,6.38h-3.28V30.15h-2.48V51.82h2.48v-11h3.28Zm6.24-1.46c0-2.36,2.33-3.84,5.57-3.84S225,34.9,225,37.26s-2.32,3.84-5.54,3.84S213.86,39.61,213.86,37.26Zm6.79,9.91V43c4-.36,6.75-2.57,6.75-5.78,0-3.53-3.39-5.81-8-5.81s-8,2.28-8,5.81c0,3.21,2.76,5.4,6.72,5.76v4.15h-8.54v2h19.63v-2Zm13.23.19h12.48v4.49h2.47V45.39h-15Zm8.85-5.57v-2h6.39V37.9H236.66V36.15h11.78V34.3H236.66V32.62H249V30.73H234.19V39.8h6.05v2h-8.57v2H251.3v-2Zm17.29-10v2h7.56c-.43,3.43-3.5,6.24-8.47,7.75l1,2c6.32-1.92,10.13-6,10.13-11.74Zm4.83,12.46h-2.5v7.15H277v-2h-12.1Zm11.23-7.78V30.18h-2.47V45.87h2.47V38.55h3.1v-2Zm20.66,9.72h2.47v-16h-2.47v4h-3.19v2h3.19v2.23h-3.19v2h3.19ZM286.18,33.85h2.76v7.22c-.93,0-1.84.07-2.76.1Zm7.59,6.84c-.77.09-1.61.17-2.45.21v-7h1.94v-2H281.84v2h2v7.37h-2.55l.29,2a80.81,80.81,0,0,0,12.36-.75Zm-6.15,8.73V45h-2.47v6.48h14.62v-2Zm32.13-2.16V43.57h6.77v-2h-13v-3H326V31.69h-15v2h12.53v2.9H311.11v7h6.17v3.69h-8.55v2h19.63v-2Zm25.68-12.6a49,49,0,0,1-.84,10.28l2.49.26a53.47,53.47,0,0,0,.82-10.54V32.34h-15v2h12.53ZM330.81,46.78v2h19.61v-2Zm39.93-16.6h-2.47V45.92h2.47Zm-15,6.86a3.34,3.34,0,1,1,3.34,3.29A3.17,3.17,0,0,1,355.72,37Zm9.07,0a5.75,5.75,0,1,0-5.73,5.42A5.42,5.42,0,0,0,364.79,37Zm-5.71,12.38V44.34h-2.5v7.1h14.79v-2Z"/><path class="cls-3" d="M153,40c0,6.63-6.27,12-14,12a15.65,15.65,0,0,1-7.49-1.86L125,52l2.17-5.58A10.77,10.77,0,0,1,125,40c0-6.63,6.27-12,14-12S153,33.37,153,40Z"/><path class="cls-3" d="M131.51,50.14l.48-.88a1,1,0,0,0-.75-.08ZM125,52l-.93-.36a1,1,0,0,0,.19,1,1,1,0,0,0,1,.29Zm2.17-5.58.93.36a1,1,0,0,0-.13-1ZM139,53c8.13,0,15-5.68,15-13h-2c0,5.94-5.67,11-13,11Zm-8-2a16.69,16.69,0,0,0,8,2V51a14.65,14.65,0,0,1-7-1.74Zm.21-1.84L124.72,51l.56,1.92,6.51-1.86Zm-5.31,3.18,2.17-5.58-1.86-.72-2.17,5.58ZM124,40a11.73,11.73,0,0,0,2.37,7l1.6-1.18A9.8,9.8,0,0,1,126,40Zm15-13c-8.13,0-15,5.68-15,13h2c0-5.94,5.67-11,13-11Zm15,13c0-7.32-6.87-13-15-13v2c7.33,0,13,5.06,13,11Z"/></svg>