<svg id="Layer_1" data-name="Layer 1" xmlns="http://www.w3.org/2000/svg" viewBox="0 0 37 36"><defs><style>.cls-1{fill:#7b7b7b;}.cls-2{fill:#f55;}</style></defs><path class="cls-1" d="M10.33,27.33v-1.5a1.5,1.5,0,0,0-1.5,1.5Zm10,0h1.5a1.5,1.5,0,0,0-1.5-1.5Zm-10,1.5h10v-3h-10Zm8.5-1.5V29h3V27.33Zm-7,1.67V27.33h-3V29Zm3.5,3.5a3.5,3.5,0,0,1-3.5-3.5h-3a6.5,6.5,0,0,0,6.5,6.5Zm3.5-3.5a3.5,3.5,0,0,1-3.5,3.5v3a6.5,6.5,0,0,0,6.5-6.5Z"/><path class="cls-1" d="M2.49,23.51,1.43,22.45h0Zm.85-.85L4.4,23.72h0Zm24,0,1.06-1.06h0Zm.85.85,1.06-1.06h0ZM15.33,4V4ZM27,25.83H3.67v3H27ZM3.5,25.67v-1H.5v1Zm0-1.1.85-.85L2.28,21.6l-.85.85Zm1.62-2.7v-6.2h-3v6.2Zm20.33-6.2v6.2h3v-6.2Zm.77,8,.85.85,2.12-2.12-.85-.85Zm.9,1v1h3v-1Zm-.05-.12a.18.18,0,0,1,.05.12h3a3.2,3.2,0,0,0-.93-2.24Zm-1.62-2.7a2.63,2.63,0,0,0,.77,1.85l2.12-2.12a.39.39,0,0,1,.11.27Zm3-6.2A13.16,13.16,0,0,0,15.33,2.5v3A10.17,10.17,0,0,1,25.5,15.67Zm-23.33,0A10.16,10.16,0,0,1,15.33,5.5v-3A13.16,13.16,0,0,0,2.17,15.67Zm-.77,8a2.63,2.63,0,0,0,.77-1.85h-3a.39.39,0,0,1,.11-.27Zm-.9,1a.18.18,0,0,1,0-.12L1.43,22.45A3.16,3.16,0,0,0,.5,24.69Zm.17,1.14a.16.16,0,0,1-.17-.16H.5a3.16,3.16,0,0,0,3.17,3.16Zm23.33,3a3.16,3.16,0,0,0,3.17-3.16h-3a.17.17,0,0,1-.17.16Z"/><circle class="cls-2" cx="27.33" cy="9" r="9"/></svg>