<svg id="Layer_1" data-name="Layer 1" xmlns="http://www.w3.org/2000/svg" viewBox="0 0 40 40"><defs><style>.cls-1{fill:#7b7b7b;}</style></defs><path class="cls-1" d="M15,28.33v-1.5a1.5,1.5,0,0,0-1.5,1.5Zm10,0h1.5a1.5,1.5,0,0,0-1.5-1.5Zm-10,1.5H25v-3H15Zm8.5-1.5V30h3V28.33ZM16.5,30V28.33h-3V30ZM20,33.5A3.5,3.5,0,0,1,16.5,30h-3A6.5,6.5,0,0,0,20,36.5ZM23.5,30A3.5,3.5,0,0,1,20,33.5v3A6.5,6.5,0,0,0,26.5,30Z"/><path class="cls-1" d="M7.15,24.51,6.09,23.45h0ZM8,23.66l1.06,1.06h0Zm24,0,1.06-1.06h0Zm.85.85,1.07-1.06h0ZM20,5V5ZM31.67,26.83H8.33v3H31.67Zm-23.5-.16v-1h-3v1Zm0-1.1.86-.85L6.94,22.6l-.85.85Zm1.62-2.7v-6.2h-3v6.2Zm20.34-6.2v6.2h3v-6.2Zm.76,8,.85.85,2.13-2.12-.86-.85Zm.9,1v1h3v-1Zm0-.12a.15.15,0,0,1,0,.12h3a3.19,3.19,0,0,0-.92-2.24Zm-1.61-2.7a2.62,2.62,0,0,0,.76,1.85l2.12-2.12a.36.36,0,0,1,.12.27Zm3-6.2A13.17,13.17,0,0,0,20,3.5v3A10.17,10.17,0,0,1,30.17,16.67Zm-23.34,0A10.17,10.17,0,0,1,20,6.5v-3A13.17,13.17,0,0,0,6.83,16.67Zm-.76,8a2.62,2.62,0,0,0,.76-1.85h-3a.39.39,0,0,1,.11-.27Zm-.9,1a.17.17,0,0,1,0-.12L6.09,23.45a3.19,3.19,0,0,0-.92,2.24Zm.16,1.14a.16.16,0,0,1-.16-.16h-3a3.15,3.15,0,0,0,3.16,3.16Zm23.34,3a3.16,3.16,0,0,0,3.16-3.16h-3a.16.16,0,0,1-.16.16Z"/></svg>