<svg width="2726" height="2223" viewBox="0 0 2726 2223" fill="none" xmlns="http://www.w3.org/2000/svg">
<path d="M769.916 283.352C206.67 283.352 20.631 799.147 0.730469 1071.81V1981.08C0.730469 2042.69 25.2224 2101.77 68.8198 2145.33C112.417 2188.9 171.549 2213.37 233.205 2213.37C294.861 2213.37 353.991 2188.9 397.589 2145.33C441.186 2101.77 465.679 2042.69 465.679 1981.08V1628.88H1069.93V1981.08C1069.93 2042.69 1094.42 2101.77 1138.02 2145.33C1181.62 2188.9 1240.75 2213.37 1302.41 2213.37C1364.06 2213.37 1423.19 2188.9 1466.79 2145.33C1510.39 2101.77 1534.88 2042.69 1534.88 1981.08V1068.8C1516.79 797.039 1334.37 283.352 769.916 283.352ZM465.076 1164.3V1099.53C472.916 1025.41 518.445 747.929 769.916 747.929C1021.39 747.929 1063.6 1024.51 1071.44 1093.2V1164.3H465.076Z" fill="#FF7A7A"/>
<path d="M2516.85 618.136C2666.13 606.695 2716.5 542.562 2724.94 420.019C2739.42 258.635 2478.25 218.288 2442.06 353.477C2422.16 427.545 2351.59 454.945 2291.27 464.881C2253.01 430.401 2211.15 400.119 2166.42 374.554H2164.61C2210.29 340.752 2246.44 295.738 2269.56 243.88C2294.59 180.651 2319.32 36.4297 2213.47 5.41741C2080.77 -24.6916 1997.24 105.379 2040.36 189.986C2060.27 232.137 2065.47 279.728 2055.14 325.175C1917.55 277.248 1768.96 270.344 1627.5 305.304C1597.51 313.07 1569.38 326.741 1544.76 345.514C1520.14 364.287 1499.52 387.784 1484.13 414.623C1468.73 441.462 1458.86 471.103 1455.09 501.804C1451.33 532.505 1453.75 563.646 1462.21 593.401C1470.67 623.155 1485 650.923 1504.36 675.07C1523.72 699.218 1547.72 719.258 1574.94 734.016C1602.17 748.775 1632.08 757.951 1662.9 761.009C1693.73 764.066 1724.86 760.943 1754.46 751.82C1817 740.218 1881.62 750.087 1937.82 779.821C2016.54 824.081 2075.65 917.418 2113.95 1057.43L2116.06 1064.05C2130.24 1115.89 2137.84 1169.3 2138.68 1223.02C2138.68 1276.92 2138.68 1979.66 2138.68 1979.66H2140.48C2140.48 1985.99 2138.37 1991.71 2138.37 1998.03C2140.54 2058.19 2166.01 2115.16 2209.4 2156.96C2252.8 2198.75 2310.74 2222.11 2371.04 2222.11C2431.34 2222.11 2489.28 2198.75 2532.68 2156.96C2576.07 2115.16 2601.54 2058.19 2603.71 1998.03C2603.71 1991.71 2602.2 1985.69 2601.9 1979.66H2603.71C2603.71 1979.66 2603.71 1279.33 2603.71 1226.94C2603.22 1127.53 2589.12 1028.66 2561.79 933.075C2531.93 819.272 2483.53 711.144 2418.54 613.016C2450.94 619.08 2484 620.802 2516.85 618.136Z" fill="#FF7A7A"/>
</svg>
