<svg width="154" height="150" viewBox="0 0 154 150" fill="none" xmlns="http://www.w3.org/2000/svg">
<rect x="24.9355" y="28" width="103.325" height="56" rx="28" fill="#FF7A7A"/>
<path d="M34.5999 97.88H38.9799V106.4H34.5999V97.88ZM32.5599 108.04H41.0199V96.24H32.5599V108.04ZM48.7399 101.54H45.9199V94.48H43.8599V112.56H45.9199V103.24H48.7399V101.54ZM63.1184 94.46V112.58H65.1984V94.46H63.1184ZM55.5784 95.8C52.8984 95.8 50.9384 98.28 50.9384 102.16C50.9384 106.08 52.8984 108.54 55.5784 108.54C58.2784 108.54 60.2384 106.08 60.2384 102.16C60.2384 98.28 58.2784 95.8 55.5784 95.8ZM55.5784 97.66C57.1584 97.66 58.2584 99.36 58.2584 102.16C58.2584 105 57.1584 106.7 55.5784 106.7C54.0184 106.7 52.9184 105 52.9184 102.16C52.9184 99.36 54.0184 97.66 55.5784 97.66ZM72.0768 98.32H73.8968V106.42C73.2768 106.46 72.6768 106.48 72.0768 106.5V98.32ZM75.7768 98.32H77.1168V96.66H68.8968V98.32H70.1968V106.54C69.5968 106.54 69.0368 106.54 68.5368 106.54L68.7768 108.24C71.0568 108.24 74.7768 108.16 77.5968 107.6L77.4568 106.1C76.9368 106.18 76.3568 106.24 75.7768 106.3V98.32ZM78.7568 101.22H76.6168V103.04H78.7568V111.64H80.6968V94.88H78.7568V101.22ZM82.2968 94.48V112.54H84.2768V94.48H82.2968ZM99.9152 94.46V112.58H101.995V94.46H99.9152ZM92.3752 95.8C89.6952 95.8 87.7352 98.28 87.7352 102.16C87.7352 106.08 89.6952 108.54 92.3752 108.54C95.0752 108.54 97.0352 106.08 97.0352 102.16C97.0352 98.28 95.0752 95.8 92.3752 95.8ZM92.3752 97.66C93.9552 97.66 95.0552 99.36 95.0552 102.16C95.0552 105 93.9552 106.7 92.3752 106.7C90.8152 106.7 89.7152 105 89.7152 102.16C89.7152 99.36 90.8152 97.66 92.3752 97.66ZM112.194 97.98H116.214V96.28H106.094V97.98H110.114V99.7C110.114 102.8 108.254 106.16 105.454 107.46L106.634 109.1C108.754 108.08 110.374 105.94 111.174 103.42C112.014 105.76 113.634 107.72 115.734 108.64L116.874 107.02C114.054 105.82 112.194 102.7 112.194 99.7V97.98ZM118.314 94.48V112.54H120.394V94.48H118.314Z" fill="#666666"/>
<path d="M62.0488 72.5007C62.0488 67.438 68.4874 63.334 76.4299 63.334C84.3723 63.334 90.8109 67.438 90.8109 72.5007" stroke="white" stroke-width="3" stroke-linecap="round" stroke-linejoin="round"/>
<path d="M76.4296 57.8333C81.3936 57.8333 85.4177 53.7293 85.4177 48.6667C85.4177 43.6041 81.3936 39.5 76.4296 39.5C71.4655 39.5 67.4414 43.6041 67.4414 48.6667C67.4414 53.7293 71.4655 57.8333 76.4296 57.8333Z" stroke="white" stroke-width="3" stroke-linecap="round" stroke-linejoin="round"/>
</svg>
