<svg width="154" height="150" viewBox="0 0 154 150" fill="none" xmlns="http://www.w3.org/2000/svg">
<path d="M35.0003 97.88H39.3803V106.4H35.0003V97.88ZM32.9603 108.04H41.4203V96.24H32.9603V108.04ZM49.1403 101.54H46.3203V94.48H44.2603V112.56H46.3203V103.24H49.1403V101.54ZM63.5188 94.46V112.58H65.5988V94.46H63.5188ZM55.9788 95.8C53.2988 95.8 51.3388 98.28 51.3388 102.16C51.3388 106.08 53.2988 108.54 55.9788 108.54C58.6788 108.54 60.6388 106.08 60.6388 102.16C60.6388 98.28 58.6788 95.8 55.9788 95.8ZM55.9788 97.66C57.5588 97.66 58.6588 99.36 58.6588 102.16C58.6588 105 57.5588 106.7 55.9788 106.7C54.4188 106.7 53.3188 105 53.3188 102.16C53.3188 99.36 54.4188 97.66 55.9788 97.66ZM72.4772 98.32H74.2972V106.42C73.6772 106.46 73.0772 106.48 72.4772 106.5V98.32ZM76.1772 98.32H77.5172V96.66H69.2972V98.32H70.5972V106.54C69.9972 106.54 69.4372 106.54 68.9372 106.54L69.1772 108.24C71.4572 108.24 75.1772 108.16 77.9972 107.6L77.8572 106.1C77.3372 106.18 76.7572 106.24 76.1772 106.3V98.32ZM79.1572 101.22H77.0172V103.04H79.1572V111.64H81.0972V94.88H79.1572V101.22ZM82.6972 94.48V112.54H84.6772V94.48H82.6972ZM100.316 94.46V112.58H102.396V94.46H100.316ZM92.7756 95.8C90.0956 95.8 88.1356 98.28 88.1356 102.16C88.1356 106.08 90.0956 108.54 92.7756 108.54C95.4756 108.54 97.4356 106.08 97.4356 102.16C97.4356 98.28 95.4756 95.8 92.7756 95.8ZM92.7756 97.66C94.3556 97.66 95.4556 99.36 95.4556 102.16C95.4556 105 94.3556 106.7 92.7756 106.7C91.2156 106.7 90.1156 105 90.1156 102.16C90.1156 99.36 91.2156 97.66 92.7756 97.66ZM112.594 97.98H116.614V96.28H106.494V97.98H110.514V99.7C110.514 102.8 108.654 106.16 105.854 107.46L107.034 109.1C109.154 108.08 110.774 105.94 111.574 103.42C112.414 105.76 114.034 107.72 116.134 108.64L117.274 107.02C114.454 105.82 112.594 102.7 112.594 99.7V97.98ZM118.714 94.48V112.54H120.794V94.48H118.714Z" fill="#666666"/>
<path d="M62.4492 72.5007C62.4492 67.438 68.8878 63.334 76.8303 63.334C84.7727 63.334 91.2113 67.438 91.2113 72.5007" stroke="#666666" stroke-width="3" stroke-linecap="round" stroke-linejoin="round"/>
<path d="M76.83 57.8333C81.794 57.8333 85.8181 53.7293 85.8181 48.6667C85.8181 43.6041 81.794 39.5 76.83 39.5C71.8659 39.5 67.8418 43.6041 67.8418 48.6667C67.8418 53.7293 71.8659 57.8333 76.83 57.8333Z" stroke="#666666" stroke-width="3" stroke-linecap="round" stroke-linejoin="round"/>
</svg>
