<svg id="Layer_1" data-name="Layer 1" xmlns="http://www.w3.org/2000/svg" viewBox="0 0 368 276.13"><defs><style>.cls-1{fill:#212121;}.cls-2{fill:none;stroke:#fc8383;stroke-linecap:round;stroke-linejoin:round;stroke-width:10px;}</style></defs><path class="cls-1" d="M4.9,223.62V227h12c-.7,5.6-5.6,9.9-13.9,12.2l1.7,3.3c10.4-3,16.6-9.4,16.6-18.8H4.9Zm8.2,23.1H28.5v7.2H13.1Zm-4,10.4H32.6v-13.8H9.1Zm19.4-35.7v9H21.3v3.4h7.2v8.1h4.1v-20.5Zm29.1,16.7a10.74,10.74,0,0,1-7-10v-4.6h-4v4.6A12.11,12.11,0,0,1,39.3,239l2.2,3.2a13.57,13.57,0,0,0,7.1-7.6,12.74,12.74,0,0,0,6.8,6.7Zm-12,10.4H65.9v9.2H70v-12.5H45.5v3.3Zm20.5-27v9.1H62.3v-8.5H58.4v21.1h3.9v-9.3h3.8v9.4H70v-21.9H66.1Zm45,8.1v3.7h-8.8v3.2h8.8v3.3h4.1v-18.3h-4.1v4.9h-7.5a17.61,17.61,0,0,0,.3-3.3H87.7v3.3H99.3c-.6,5-5,9-13.6,10.8l1.4,3.4c8-1.8,13.3-5.5,15.5-11Zm-15.2,24.3v-3.3h19.3v-9.4H91.7v3.3h19.4v3H91.8v9.7h24.4v-3.3Zm45.1-12.1a84.55,84.55,0,0,0,1-14.1v-2.4H123.6v3.3h14.3a77.31,77.31,0,0,1-1,12.8Zm-8.1-6.2h-4v10.9c-2.5,0-5,.1-7.2.1l.4,3.4a143.62,143.62,0,0,0,22-1.4l-.2-3a98.22,98.22,0,0,1-11.1.8v-10.8Zm22.5.7h-5.3v-14.8h-4.2v36.1h4.2v-17.8h5.3Zm5.2-11v3.4h12.6q-1.2,12.45-14.4,19.2l2.3,3.2c11.8-6,16.3-15.2,16.3-25.7H160.6Zm31.7,10.4h-5.5v-14.3h-4.1v36.1h4.1v-18.4h5.5Zm16.8-4.4c0-3,2.3-5,5.4-5s5.5,2,5.5,5-2.3,5-5.5,5S209.1,234.42,209.1,231.32Zm21.4,1.7v7.6h4.1v-19.1h-4.1v8.1h-6.7c-.8-4-4.4-6.6-9.2-6.6-5.4,0-9.4,3.4-9.4,8.4s4,8.4,9.4,8.4c4.8,0,8.4-2.7,9.2-6.8Zm-12.8,21h-5.2v-4.2h5.2Zm0-11.3v4.1h-5.2v-4.1h-3.8v14.5h12.8v-14.5Zm14.3-.3h-4.1v2.9a9.73,9.73,0,0,1-6.4,9.1l2.1,3.1a11.77,11.77,0,0,0,6.3-6.3,10.77,10.77,0,0,0,6.4,6.3l2-3.1a9.38,9.38,0,0,1-6.4-9.1v-2.9Zm40.4-10.1c-7.2-.9-12.5-4.9-12.5-9v-1.4h-4.2v1.4c0,4.2-5.2,8.1-12.5,9l1.5,3.2c5.9-.8,10.8-3.5,13.1-7.3,2.4,3.8,7.2,6.5,13.1,7.3Zm-6.6,21.6H249.5V250h16.3Zm0-7.1H249.5v-3.7h-4.1v14h24.5v-14h-4.1Zm-24.4-9.2v3.3h32.7v-3.3ZM284.5,225h-4.1v23.5h3.1a84.45,84.45,0,0,0,17.6-1.7l-.4-3.4a77.94,77.94,0,0,1-16.2,1.6Zm19.5-3.5v36.1h4.1v-36.1Zm16.6,6.7h12.7v-3.3H316.5v23.9h3a89.61,89.61,0,0,0,16.9-1.2l-.4-3.4a90.47,90.47,0,0,1-15.3,1.2v-17.2Zm28,7.1H343v-13.9h-4.1v36.2H343v-18.9h5.6Zm7.2,19.7a3.08,3.08,0,0,0,3.1-3.2,3.11,3.11,0,1,0-6.2,0A3,3,0,0,0,355.8,255Z"/><path class="cls-2" d="M179.2,140.52A63.5,63.5,0,1,0,115.7,77,63.46,63.46,0,0,0,179.2,140.52Z"/><path class="cls-2" d="M180.7,52.52v30"/><path class="cls-2" d="M181,104.52h-.3"/></svg>