<svg width="40" height="40" viewBox="0 0 40 40" fill="none" xmlns="http://www.w3.org/2000/svg">
<path d="M16.119 21.7604C15.5332 22.3462 15.5332 23.2959 16.119 23.8817C16.7048 24.4675 17.6546 24.4675 18.2403 23.8817L16.119 21.7604ZM26.3173 15.8048C26.9031 15.219 26.9031 14.2693 26.3173 13.6835C25.7315 13.0977 24.7817 13.0977 24.196 13.6835L26.3173 15.8048ZM18.2403 23.8817L26.3173 15.8048L24.196 13.6835L16.119 21.7604L18.2403 23.8817Z" fill="#9E9E9E"/>
<path d="M22.8842 34.6126L21.5426 35.2834L21.5426 35.2834L22.8842 34.6126ZM25.9679 34.3574L24.5342 33.9162L24.5342 33.9162L25.9679 34.3574ZM16.5554 22.7002L15.8845 24.0418L16.5554 22.7002ZM17.3007 23.4455L18.6424 22.7747L18.6424 22.7747L17.3007 23.4455ZM5.64352 14.033L6.08465 15.4666L5.64352 14.033ZM5.38831 17.1166L4.71749 18.4583L4.71749 18.4583L5.38831 17.1166ZM31.992 5.92572L32.4332 7.35939L31.992 5.92572ZM34.0752 8.00883L35.5088 8.44996L35.5088 8.44996L34.0752 8.00883ZM31.5509 4.49205L5.20239 12.5993L6.08465 15.4666L32.4332 7.35939L31.5509 4.49205ZM4.71749 18.4583L15.8845 24.0418L17.2262 21.3585L6.05913 15.775L4.71749 18.4583ZM15.9591 24.1163L21.5426 35.2834L24.2259 33.9417L18.6424 22.7747L15.9591 24.1163ZM27.4016 34.7985L35.5088 8.44996L32.6415 7.5677L24.5342 33.9162L27.4016 34.7985ZM21.5426 35.2834C22.8202 37.8386 26.5614 37.529 27.4016 34.7985L24.5342 33.9162C24.5167 33.9734 24.4955 33.9915 24.4841 34.0002C24.4657 34.0142 24.4331 34.0296 24.3887 34.0333C24.3443 34.037 24.3096 34.0272 24.2892 34.0164C24.2765 34.0096 24.2526 33.9952 24.2259 33.9417L21.5426 35.2834ZM15.8845 24.0418C15.9168 24.0579 15.9429 24.0841 15.9591 24.1163L18.6424 22.7747C18.3359 22.1619 17.839 21.6649 17.2262 21.3585L15.8845 24.0418ZM5.20239 12.5993C2.47188 13.4394 2.16226 17.1807 4.71749 18.4583L6.05913 15.775C6.00566 15.7483 5.99124 15.7244 5.98453 15.7117C5.97372 15.6913 5.96389 15.6566 5.96757 15.6122C5.97124 15.5678 5.98664 15.5352 6.00066 15.5168C6.00937 15.5054 6.02752 15.4842 6.08465 15.4666L5.20239 12.5993ZM32.4332 7.35939C32.4784 7.34547 32.505 7.34911 32.5226 7.35387C32.5456 7.36004 32.5739 7.37469 32.6 7.40083C32.6262 7.42698 32.6408 7.45528 32.647 7.47824C32.6518 7.49592 32.6554 7.52247 32.6415 7.5677L35.5088 8.44996C36.2564 6.02024 33.9806 3.74445 31.5509 4.49205L32.4332 7.35939Z" fill="#9E9E9E"/>
</svg>
