<svg width="80" height="80" viewBox="0 0 80 80" fill="none" xmlns="http://www.w3.org/2000/svg">
<path d="M59.6291 6.97046C60.3153 8.25546 61.2649 9.38118 62.416 10.274C63.567 11.1669 64.8936 11.8068 66.3089 12.1518V12.1518C68.7007 12.7344 70.8065 14.1505 72.2481 16.146C73.6896 18.1415 74.3726 20.5855 74.1743 23.0393V23.0393C74.0543 24.4914 74.2432 25.9525 74.7284 27.3264C75.2136 28.7003 75.9842 29.9559 76.9894 31.0106V31.0106C78.687 32.7945 79.6927 35.1253 79.8259 37.5842C79.959 40.0431 79.2109 42.4689 77.7159 44.4257V44.4257C76.8323 45.5838 76.203 46.9153 75.8691 48.3332C75.5353 49.7512 75.5044 51.2236 75.7786 52.6543V52.6543C76.2424 55.072 75.8286 57.5759 74.6116 59.7158C73.3946 61.8558 71.4542 63.4914 69.1392 64.3288V64.3288C67.769 64.8235 66.5189 65.6025 65.4712 66.6146C64.4234 67.6267 63.6016 68.8491 63.0598 70.2014V70.2014C62.1419 72.4851 60.44 74.3668 58.2596 75.5088C56.0793 76.6507 53.5633 76.9781 51.1633 76.4321V76.4321C49.7422 76.1086 48.2688 76.0887 46.8395 76.3739C45.4102 76.6591 44.0572 77.2428 42.8691 78.0869V78.0869C40.8632 79.5129 38.4146 80.1769 35.9632 79.9596C33.5117 79.7423 31.2181 78.6579 29.4944 76.9013V76.9013C28.4746 75.8602 27.2463 75.0464 25.8899 74.5134C24.5335 73.9804 23.0797 73.7402 21.6239 73.8086V73.8086C19.1674 73.9198 16.7517 73.152 14.8101 71.6431C12.8685 70.1342 11.528 67.9828 11.0291 65.5749C10.7328 64.1489 10.1388 62.8016 9.28589 61.6209C8.43301 60.4403 7.34051 59.453 6.07983 58.7236V58.7236C3.94806 57.4916 2.32602 55.5392 1.50564 53.2177C0.685262 50.8962 0.720421 48.3582 1.60478 46.0603V46.0603C2.12614 44.6994 2.35473 43.2438 2.27562 41.7886C2.19652 40.3333 1.81149 38.9111 1.14567 37.6147V37.6147C0.0208484 35.4283 -0.288208 32.9126 0.27393 30.5189C0.836068 28.1252 2.23263 26.01 4.21313 24.5528C5.39365 23.6933 6.37858 22.5933 7.10298 21.3254C7.82738 20.0575 8.2748 18.6504 8.41574 17.197C8.6512 14.7466 9.75295 12.4605 11.523 10.7497C13.293 9.03888 15.6152 8.01548 18.0722 7.86345V7.86345C19.5269 7.77346 20.9462 7.3773 22.2373 6.7009C23.5284 6.0245 24.6621 5.08311 25.5642 3.93832V3.93832C27.0881 2.00593 29.251 0.680228 31.6645 0.199374C34.0781 -0.281481 36.584 0.114026 38.7321 1.31484V1.31484C40.0045 2.02349 41.4119 2.45622 42.8627 2.58487C44.3135 2.71352 45.7751 2.5352 47.1524 2.06153V2.06153C49.4763 1.26467 52.0078 1.32101 54.2939 2.22047C56.58 3.11992 58.4713 4.80375 59.6291 6.97046V6.97046Z" fill="#FFD2D2"/>
<path d="M39.9123 73.3789C33.3091 73.3799 26.854 71.4227 21.3633 67.7548C15.8726 64.0869 11.593 58.8732 9.06561 52.7729C6.53824 46.6726 5.87671 39.9598 7.16467 33.4835C8.45263 27.0072 11.6322 21.0583 16.3013 16.3892C20.9704 11.7201 26.9193 8.54052 33.3956 7.25256C39.8719 5.9646 46.5847 6.62613 52.685 9.1535C58.7852 11.6809 63.999 15.9605 67.6669 21.4512C71.3348 26.9419 73.292 33.397 73.291 40.0002C73.2803 48.8495 69.7602 57.3333 63.5028 63.5907C57.2454 69.8481 48.7616 73.3682 39.9123 73.3789V73.3789ZM39.9123 7.1209C33.4091 7.11991 27.0518 9.04739 21.6442 12.6596C16.2365 16.2718 12.0215 21.4065 9.5322 27.4143C7.04287 33.4221 6.39103 40.0332 7.65911 46.4115C8.9272 52.7898 12.0582 58.6488 16.6563 63.2475C21.2543 67.8463 27.1128 70.9782 33.4909 72.2473C39.869 73.5163 46.4802 72.8655 52.4884 70.3771C58.4966 67.8887 63.6319 63.6745 67.245 58.2674C70.858 52.8603 72.7865 46.5033 72.7865 40.0002C72.7771 31.2838 69.3108 22.927 63.1478 16.7631C56.9849 10.5992 48.6286 7.13159 39.9123 7.1209V7.1209Z" fill="#FFF5F5"/>
<path d="M39.9132 72.1076C33.5617 72.1076 27.3529 70.2241 22.072 66.6954C16.791 63.1666 12.6751 58.151 10.2447 52.2829C7.81436 46.4149 7.17872 39.9579 8.4182 33.7285C9.65767 27.4992 12.7166 21.7773 17.2081 17.2865C21.6996 12.7958 27.4219 9.73774 33.6515 8.49924C39.881 7.26075 46.3379 7.8974 52.2056 10.3287C58.0733 12.76 63.0882 16.8767 66.6161 22.1582C70.1441 27.4397 72.0266 33.6488 72.0256 40.0003C72.0149 48.5133 68.628 56.6745 62.608 62.6936C56.5879 68.7127 48.4262 72.0983 39.9132 72.1076V72.1076ZM39.9132 8.39239C33.6617 8.39239 27.5507 10.2462 22.3528 13.7193C17.1549 17.1924 13.1036 22.1289 10.7113 27.9045C8.31899 33.68 7.69304 40.0353 8.91264 46.1667C10.1322 52.298 13.1426 57.93 17.563 62.3504C21.9835 66.7709 27.6155 69.7812 33.7468 71.0008C39.8781 72.2204 46.2334 71.5945 52.009 69.2021C57.7846 66.8098 62.7211 62.7586 66.1942 57.5607C69.6673 52.3628 71.5211 46.2517 71.5211 40.0003C71.5077 31.6228 68.1729 23.5926 62.2477 17.6702C56.3225 11.7479 48.2906 8.41686 39.9132 8.40752V8.39239Z" fill="#FFF5F5"/>
<path d="M43.6561 33.99H26.4219V30.1052H43.6561V33.99ZM42.8691 40.4578V47.2133C42.8853 48.386 42.4374 49.5176 41.6229 50.3615C40.8186 51.2334 39.8067 51.8877 38.6816 52.2635C37.5599 52.6413 36.3841 52.8339 35.2004 52.8336C33.3351 52.8516 31.5032 52.3389 29.9182 51.3554C29.1819 50.947 28.5711 50.3454 28.1514 49.6155C27.7318 48.8856 27.5193 48.0551 27.5368 47.2133V40.4578C27.5193 39.6161 27.7318 38.7855 28.1514 38.0556C28.5711 37.3257 29.1819 36.7242 29.9182 36.3158C31.5032 35.3322 33.3351 34.8195 35.2004 34.8375C36.3841 34.8373 37.5599 35.0298 38.6816 35.4076C39.8077 35.7814 40.82 36.436 41.6229 37.3097C42.4374 38.1536 42.8853 39.2851 42.8691 40.4578V40.4578ZM40.2658 28.6623H29.9333V24.8027H40.2658V28.6623ZM37.9248 46.2497V41.4215C37.9248 39.548 37.0167 38.6113 35.2004 38.6113C33.3842 38.6113 32.4811 39.5497 32.4811 41.4215V46.2497C32.4811 48.1214 33.3842 49.0598 35.2004 49.0598C37.0167 49.0598 37.9248 48.1214 37.9248 46.2497ZM50.2905 53.0102H45.3462V25.0954H50.2905V36.3309H53.8927V40.3368H50.2905V53.0102Z" fill="black"/>
</svg>
