<svg width="80" height="80" viewBox="0 0 80 80" fill="none" xmlns="http://www.w3.org/2000/svg">
<path d="M59.7478 6.97046C60.4354 8.25546 61.3869 9.38118 62.5403 10.274C63.6936 11.1669 65.0228 11.8068 66.4409 12.1518V12.1518C68.8375 12.7344 70.9475 14.1505 72.3919 16.146C73.8364 18.1415 74.5207 20.5855 74.322 23.0393V23.0393C74.2018 24.4914 74.391 25.9525 74.8772 27.3264C75.3634 28.7003 76.1355 29.9559 77.1428 31.0106V31.0106C78.8437 32.7945 79.8514 35.1253 79.9848 37.5842C80.1182 40.0431 79.3686 42.4689 77.8707 44.4257V44.4257C76.9853 45.5838 76.3547 46.9153 76.0202 48.3332C75.6857 49.7512 75.6548 51.2236 75.9295 52.6543V52.6543C76.3943 55.072 75.9796 57.5759 74.7602 59.7158C73.5408 61.8558 71.5965 63.4914 69.2769 64.3288V64.3288C67.9039 64.8235 66.6514 65.6025 65.6015 66.6146C64.5517 67.6267 63.7283 68.8491 63.1854 70.2014V70.2014C62.2656 72.4851 60.5603 74.3668 58.3756 75.5088C56.1909 76.6507 53.6699 76.9781 51.2652 76.4321V76.4321C49.8413 76.1086 48.3649 76.0887 46.9328 76.3739C45.5006 76.6591 44.1449 77.2428 42.9544 78.0869V78.0869C40.9446 79.5129 38.4911 80.1769 36.0348 79.9596C33.5785 79.7423 31.2803 78.6579 29.5531 76.9013V76.9013C28.5313 75.8602 27.3005 75.0464 25.9414 74.5134C24.5823 73.9804 23.1257 73.7402 21.667 73.8086V73.8086C19.2056 73.9198 16.7851 73.152 14.8396 71.6431C12.8941 70.1342 11.551 67.9828 11.0511 65.5749C10.7542 64.1489 10.159 62.8016 9.30438 61.6209C8.44981 60.4403 7.35513 59.453 6.09194 58.7236V58.7236C3.95592 57.4916 2.33065 55.5392 1.50864 53.2177C0.686627 50.8962 0.721855 48.3582 1.60798 46.0603V46.0603C2.13038 44.6994 2.35942 43.2438 2.28016 41.7886C2.20089 40.3333 1.8151 38.9111 1.14795 37.6147V37.6147C0.0208899 35.4283 -0.288782 32.9126 0.274476 30.5189C0.837733 28.1252 2.23708 26.01 4.22152 24.5528C5.40439 23.6933 6.39128 22.5933 7.11712 21.3254C7.84297 20.0575 8.29128 18.6504 8.43249 17.197C8.66843 14.7466 9.77238 12.4605 11.5459 10.7497C13.3195 9.03888 15.6463 8.01548 18.1082 7.86345V7.86345C19.5658 7.77346 20.988 7.3773 22.2816 6.7009C23.5752 6.0245 24.7112 5.08311 25.6151 3.93832V3.93832C27.142 2.00593 29.3093 0.680228 31.7276 0.199374C34.1459 -0.281481 36.6568 0.114026 38.8092 1.31484V1.31484C40.0842 2.02349 41.4944 2.45622 42.9481 2.58487C44.4018 2.71352 45.8663 2.5352 47.2463 2.06153V2.06153C49.5748 1.26467 52.1114 1.32101 54.402 2.22047C56.6927 3.11992 58.5877 4.80375 59.7478 6.97046V6.97046Z" fill="#D1D1D1"/>
<path d="M39.9924 73.3789C33.3762 73.3799 26.9082 71.4227 21.4066 67.7548C15.9049 64.0869 11.6167 58.8732 9.08434 52.7729C6.55194 46.6726 5.88909 39.9598 7.17962 33.4835C8.47014 27.0072 11.6561 21.0583 16.3345 16.3892C21.0129 11.7201 26.9736 8.54052 33.4628 7.25256C39.952 5.9646 46.6781 6.62613 52.7906 9.1535C58.903 11.6809 64.1272 15.9605 67.8023 21.4512C71.4775 26.9419 73.4386 33.397 73.4376 40.0002C73.4269 48.8495 69.8998 57.3333 63.6299 63.5907C57.36 69.8481 48.8594 73.3682 39.9924 73.3789V73.3789ZM39.9924 7.1209C33.4764 7.11991 27.1063 9.04739 21.6879 12.6596C16.2695 16.2718 12.0461 21.4065 9.55186 27.4143C7.05758 33.4221 6.40444 40.0332 7.67505 46.4115C8.94565 52.7898 12.0829 58.6488 16.6901 63.2475C21.2973 67.8463 27.1675 70.9782 33.5583 72.2473C39.9491 73.5163 46.5735 72.8655 52.5936 70.3771C58.6138 67.8887 63.7593 63.6745 67.3796 58.2674C70.9998 52.8603 72.9321 46.5033 72.9321 40.0002C72.9228 31.2838 69.4495 22.927 63.2743 16.7631C57.099 10.5992 48.7262 7.13159 39.9924 7.1209V7.1209Z" fill="#F9F9F9"/>
<path d="M39.9928 72.1076C33.6287 72.1076 27.4075 70.2241 22.116 66.6954C16.8245 63.1666 12.7004 58.151 10.2652 52.2829C7.83001 46.4149 7.19311 39.9579 8.43505 33.7285C9.67699 27.4992 12.742 21.7773 17.2424 17.2865C21.7429 12.7958 27.4766 9.73774 33.7186 8.49924C39.9605 7.26075 46.4303 7.8974 52.3096 10.3287C58.189 12.76 63.2139 16.8767 66.7489 22.1582C70.2838 27.4397 72.1701 33.6488 72.1691 40.0003C72.1584 48.5133 68.7648 56.6744 62.7327 62.6936C56.7007 68.7127 48.5227 72.0983 39.9928 72.1076V72.1076ZM39.9928 8.39239C33.7289 8.39239 27.6056 10.2462 22.3974 13.7193C17.1892 17.1924 13.1298 22.1289 10.7327 27.9045C8.33565 33.68 7.70845 40.0353 8.93048 46.1667C10.1525 52.298 13.1689 57.93 17.5981 62.3504C22.0274 66.7709 27.6705 69.7812 33.8141 71.0008C39.9576 72.2204 46.3256 71.5945 52.1126 69.2021C57.8997 66.8098 62.846 62.7585 66.3261 57.5607C69.8061 52.3628 71.6636 46.2517 71.6636 40.0003C71.6502 31.6228 68.3087 23.5926 62.3717 17.6702C56.4348 11.7479 48.3869 8.41686 39.9928 8.40752V8.39239Z" fill="#F9F9F9"/>
<path d="M43.7432 33.988H26.4746V30.1032H43.7432V33.988ZM42.9545 40.4559V47.2114C42.9708 48.3841 42.522 49.5156 41.7059 50.3595C40.9 51.2314 39.8861 51.8857 38.7587 52.2615C37.6348 52.6394 36.4567 52.8319 35.2707 52.8317C33.4016 52.8497 31.566 52.337 29.9779 51.3534C29.2401 50.945 28.6281 50.3435 28.2076 49.6136C27.7872 48.8837 27.5742 48.0531 27.5918 47.2114V40.4559C27.5742 39.6141 27.7872 38.7836 28.2076 38.0537C28.6281 37.3238 29.2401 36.7222 29.9779 36.3138C31.566 35.3303 33.4016 34.8176 35.2707 34.8356C36.4567 34.8353 37.6348 35.0279 38.7587 35.4057C39.8871 35.7795 40.9014 36.4341 41.7059 37.3077C42.522 38.1516 42.9708 39.2832 42.9545 40.4559V40.4559ZM40.3461 28.6603H29.993V24.8008H40.3461V28.6603ZM38.0005 46.2477V41.4195C38.0005 39.5461 37.0905 38.6094 35.2707 38.6094C33.4508 38.6094 32.5459 39.5478 32.5459 41.4195V46.2477C32.5459 48.1195 33.4508 49.0579 35.2707 49.0579C37.0905 49.0579 38.0005 48.1195 38.0005 46.2477ZM50.3908 53.0082H45.4367V25.0934H50.3908V36.329H54.0002V40.3348H50.3908V53.0082Z" fill="black"/>
</svg>
