<svg width="807" height="668" viewBox="0 0 807 668" fill="none" xmlns="http://www.w3.org/2000/svg">
<path d="M258.651 95.9178C227.895 83.9159 150.649 50.8175 177.091 6.37905C189.23 -14.0221 241.985 42.7021 246.482 56.708C247.717 60.5535 255.755 84.7986 261.282 84.7986C274.553 84.7986 231.201 81.1308 221.817 89.4803C203.166 106.075 169.855 125.551 169.855 151.221C169.855 180.87 147.119 203.137 119.209 214.425C90.6217 225.987 37.9874 208.618 17.2592 238.126C1.48668 260.58 -7.86551 306.799 18.9036 325.324C54.4483 349.922 97.9627 354 141.572 354C212.693 354 273.842 317.131 344.486 317.131C440.531 317.131 461.526 203.531 427.69 143.321C409.929 111.715 359.435 74.8498 317.847 74.8498C263.802 74.8498 368.483 87.3506 382.964 81.2873C391.789 77.592 454 24.8521 454 61.6824C454 89.2648 397.875 85.3838 377.044 85.3838" stroke="black" stroke-width="3" stroke-linecap="round"/>
<path d="M305.655 164.378C265.525 214.336 340.845 176.251 294.132 155.104C275.408 146.628 271.616 190.219 305.655 174.81" stroke="black" stroke-width="3" stroke-linecap="round"/>
<path d="M199.48 169.26C197.795 228.407 154.906 162.76 192.179 164.018C227.626 165.214 204.059 207.529 193.506 179.745" stroke="black" stroke-width="3" stroke-linecap="round"/>
<path d="M117 216.894C147.544 212.633 172.565 216.894 202.739 216.894C220.262 216.894 236.822 227 253 227" stroke="black" stroke-width="3" stroke-linecap="round"/>
<path d="M99 237.838C108.231 240.909 132.546 253.678 142.656 245.059C147.167 241.214 147.856 233.23 140.05 232.839C129.218 232.296 109.667 229.649 104.864 237.838" stroke="black" stroke-width="3" stroke-linecap="round"/>
<path d="M57 248.114C47.1572 244.646 14.9428 228.165 22.0019 250.478C23.7244 255.922 40.3227 253.431 45.2249 253.431" stroke="black" stroke-width="3" stroke-linecap="round"/>
<path d="M75 264C69.8567 291.127 81.1484 300.271 61.9105 315.862C55.4032 321.136 20.558 333.812 39.6583 322.345" stroke="black" stroke-width="3" stroke-linecap="round"/>
<path d="M81 301C108.074 324.203 123.42 321.94 158 321.94" stroke="black" stroke-width="3" stroke-linecap="round"/>
<path d="M216.967 343C173.264 372.418 139.516 408.722 151.41 456.278C164.639 509.171 260.238 462.947 211.037 448.375" stroke="black" stroke-width="3" stroke-linecap="round"/>
<path d="M400.817 301C476.423 314.031 484 349.23 484 408.594C484 439.688 441.163 432.212 415.671 432.212C383.289 432.212 400.935 405.969 424.583 405.969" stroke="black" stroke-width="3" stroke-linecap="round"/>
<path d="M222.971 432.143C169.481 497.85 245.312 559 320.594 559C415.393 559 411.379 465.265 370.885 411" stroke="black" stroke-width="3" stroke-linecap="round"/>
<path d="M306.179 422C278.701 432.392 257.348 446.053 265.917 474.861C271.683 494.246 290.827 499.869 308.819 490.72C318.133 485.983 324 464.91 324 456.36C324 432.109 295.393 445.092 288.358 432.572" stroke="black" stroke-width="3" stroke-linecap="round"/>
<path d="M252.338 543C240.108 557.967 228.675 572.312 228.675 590.388C228.675 609.1 220.955 606.185 202.055 606.185C141.199 606.185 186.072 656.005 220.13 662.934C324.174 684.101 230.758 589.462 276 569.327" stroke="black" stroke-width="3" stroke-linecap="round"/>
<path d="M388.79 543C402.076 559.154 415.736 571.469 429.102 586.243C440.387 598.717 442.569 590.333 463.135 590.333C507.446 590.333 488.355 641.249 454.214 642.926C435.918 643.825 351.386 649.822 370.948 619.551C377.14 609.969 392.871 606.906 388.46 593.255C385.171 583.075 375.076 569.977 365 564.037" stroke="black" stroke-width="3" stroke-linecap="round"/>
<path d="M241 91C239.097 89.233 190.378 45.0903 225.98 54.2494C232.973 56.0485 229.245 85.0627 229.245 91" stroke="black" stroke-width="3" stroke-linecap="round"/>
<path d="M341 74.6783C369.926 69.7306 446.371 24.9091 459.956 66.5902C471.339 101.515 386.522 90.2768 358.794 90.2768" stroke="black" stroke-width="3" stroke-linecap="round"/>
<path d="M594.939 228.579C653.645 269.434 591.248 282.682 552.755 263.089C538.025 255.591 540.285 241.122 548.451 232.03C558.121 221.262 575.804 235.481 587.191 235.481" stroke="black" stroke-width="3" stroke-linecap="round"/>
<path d="M642 221C648.386 249.297 650 275.34 650 304" stroke="black" stroke-width="3" stroke-linecap="round"/>
<path d="M751 214C724.183 218.401 645.387 235 672.653 235" stroke="black" stroke-width="3" stroke-linecap="round"/>
<path d="M688 228.223C702.941 228.223 727.914 222.739 735 235" stroke="black" stroke-width="3" stroke-linecap="round"/>
<path d="M634 263C691.524 263 747.619 270 805 270" stroke="black" stroke-width="3" stroke-linecap="round"/>
<path d="M720 270C716.875 283.682 714.301 297.242 712 311" stroke="black" stroke-width="3" stroke-linecap="round"/>
</svg>
