<svg width="500" height="80" viewBox="0 0 500 80" fill="none" xmlns="http://www.w3.org/2000/svg">
<rect width="500" height="80" rx="10" fill="#FEE500"/>
<path d="M159.958 32.336V34.352H167.374C167.278 35.552 167.086 36.68 166.798 37.736L158.854 38.24L159.19 40.376L166.054 39.704C164.782 42.368 162.502 44.624 158.71 46.52L160.054 48.44C167.926 44.48 169.822 38.816 169.822 32.336H159.958ZM178.702 38.72H175.414V30.152H172.942V51.824H175.414V40.784H178.702V38.72ZM182.036 32.336V34.352H189.452C189.356 35.552 189.164 36.68 188.876 37.736L180.932 38.24L181.268 40.376L188.132 39.704C186.86 42.368 184.58 44.624 180.788 46.52L182.132 48.44C190.004 44.48 191.9 38.816 191.9 32.336H182.036ZM200.78 38.72H197.492V30.152H195.02V51.824H197.492V40.784H200.78V38.72ZM207.018 37.256C207.018 34.904 209.346 33.416 212.586 33.416C215.802 33.416 218.13 34.904 218.13 37.256C218.13 39.608 215.802 41.096 212.586 41.096C209.346 41.096 207.018 39.608 207.018 37.256ZM213.81 47.168V43.04C217.77 42.68 220.554 40.472 220.554 37.256C220.554 33.728 217.17 31.448 212.586 31.448C207.978 31.448 204.618 33.728 204.618 37.256C204.618 40.472 207.378 42.656 211.338 43.016V47.168H202.794V49.184H222.426V47.168H213.81ZM227.032 47.36H239.512V51.848H241.984V45.392H227.032V47.36ZM235.888 41.792V39.8H242.272V37.904H229.816V36.152H241.6V34.304H229.816V32.624H242.128V30.728H227.344V39.8H233.392V41.792H224.824V43.784H244.456V41.792H235.888ZM256.743 31.4C252.207 31.4 248.775 33.848 248.775 37.52C248.775 41.216 252.207 43.64 256.743 43.64C261.255 43.64 264.711 41.216 264.711 37.52C264.711 33.848 261.255 31.4 256.743 31.4ZM256.743 33.44C259.935 33.44 262.311 35.024 262.311 37.52C262.311 40.016 259.935 41.6 256.743 41.6C253.527 41.6 251.175 40.016 251.175 37.52C251.175 35.024 253.527 33.44 256.743 33.44ZM246.951 47.072V49.112H266.583V47.072H246.951ZM280.045 47.264V43.568H286.813V41.576H273.829V38.552H286.333V31.688H271.357V33.68H283.885V36.584H271.405V43.568H277.573V47.264H269.029V49.304H288.661V47.264H280.045ZM313.057 38.792C313.657 36.56 313.657 34.76 313.657 33.032V31.208H298.777V33.2H311.209C311.209 34.832 311.185 36.392 310.633 38.528L313.057 38.792ZM306.217 49.952C303.001 49.952 301.033 49.16 301.033 47.792C301.033 46.448 303.001 45.656 306.217 45.656C309.409 45.656 311.329 46.448 311.329 47.792C311.329 49.16 309.409 49.952 306.217 49.952ZM306.217 43.76C301.537 43.76 298.585 45.296 298.585 47.792C298.585 50.312 301.537 51.848 306.217 51.848C310.825 51.848 313.801 50.312 313.801 47.792C313.801 45.296 310.825 43.76 306.217 43.76ZM306.697 40.088V36.104H304.201V40.088H296.521V42.08H316.057V40.088H306.697ZM328.344 32.96C331.44 32.96 333.48 34.016 333.48 35.744C333.48 37.496 331.44 38.552 328.344 38.552C325.224 38.552 323.184 37.496 323.184 35.744C323.184 34.016 325.224 32.96 328.344 32.96ZM328.344 40.544C332.904 40.544 336.024 38.672 336.024 35.744C336.024 32.84 332.904 30.968 328.344 30.968C323.76 30.968 320.64 32.84 320.64 35.744C320.64 38.672 323.76 40.544 328.344 40.544ZM338.208 42.392H318.552V44.432H323.352V51.848H325.872V44.432H330.816V51.848H333.336V44.432H338.232L338.208 42.392ZM346.966 45.152C345.214 45.152 343.942 43.952 343.942 42.128C343.942 40.304 345.214 39.104 346.966 39.104C348.718 39.104 349.99 40.304 349.99 42.128C349.99 43.952 348.718 45.152 346.966 45.152ZM346.966 37.064C343.846 37.064 341.59 39.176 341.59 42.128C341.59 45.104 343.846 47.192 346.966 47.192C350.062 47.192 352.342 45.104 352.342 42.128C352.342 39.176 350.062 37.064 346.966 37.064ZM348.166 30.488H345.694V33.512H340.534V35.528H353.23V33.512H348.166V30.488ZM360.814 38.888H357.478V30.176H354.982V51.872H357.478V40.952H360.814V38.888ZM363.956 32.456V34.472H371.684C371.252 39.464 368.564 43.28 362.876 46.016L364.196 47.984C371.636 44.384 374.228 38.912 374.228 32.456H363.956ZM378.14 30.176V51.848H380.612V30.176H378.14Z" fill="#3A2020"/>
<path d="M151 39C151 45.6274 144.732 51 137 51C134.245 51 131.676 50.3179 129.51 49.14L123 51L125.17 45.42C123.796 43.5635 123 41.3614 123 39C123 32.3726 129.268 27 137 27C144.732 27 151 32.3726 151 39Z" fill="#3A2020"/>
<path d="M129.51 49.14L129.988 48.2615C129.757 48.1363 129.487 48.1065 129.235 48.1785L129.51 49.14ZM123 51L122.068 50.6376C121.93 50.9915 122.005 51.3929 122.261 51.6736C122.517 51.9543 122.91 52.0659 123.275 51.9615L123 51ZM125.17 45.42L126.102 45.7825C126.226 45.4625 126.178 45.101 125.974 44.8251L125.17 45.42ZM137 52C145.134 52 152 46.3188 152 39H150C150 44.9361 144.33 50 137 50V52ZM129.032 50.0185C131.347 51.2771 134.08 52 137 52V50C134.41 50 132.005 49.3587 129.988 48.2615L129.032 50.0185ZM129.235 48.1785L122.725 50.0385L123.275 51.9615L129.785 50.1015L129.235 48.1785ZM123.932 51.3624L126.102 45.7825L124.238 45.0576L122.068 50.6376L123.932 51.3624ZM122 39C122 41.5931 122.875 44.0009 124.366 46.015L125.974 44.8251C124.716 43.1262 124 41.1297 124 39H122ZM137 26C128.866 26 122 31.6812 122 39H124C124 33.0639 129.67 28 137 28V26ZM152 39C152 31.6812 145.134 26 137 26V28C144.33 28 150 33.0639 150 39H152Z" fill="#3A2020"/>
</svg>
