<svg width="154" height="150" viewBox="0 0 154 150" fill="none" xmlns="http://www.w3.org/2000/svg">
<path d="M75.4669 98.86C71.8469 98.44 69.2669 96.54 69.2669 94.36V93.66H67.1469V94.36C67.1469 96.5 64.5669 98.42 60.9469 98.86L61.6869 100.48C64.6269 100.06 67.0269 98.76 68.1869 96.86C69.3669 98.76 71.7869 100.04 74.7069 100.48L75.4669 98.86ZM69.2669 105.12H67.1269V105.54C67.1269 107.68 64.8069 109.44 61.2269 109.9L61.9669 111.48C64.8469 111.06 67.1069 109.84 68.2069 108.06C69.2869 109.84 71.5469 111.06 74.4269 111.48L75.1869 109.9C71.5869 109.44 69.2669 107.68 69.2669 105.54V105.12ZM72.0269 102.42V100.2H69.9669V102.42H66.4869V100.2H64.4269V102.42H60.0469V104.08H76.3869V102.42H72.0269ZM80.0253 104.94C83.0453 104.4 85.4453 102.9 86.6253 100.78C87.8053 102.9 90.2053 104.4 93.2453 104.94L94.0253 103.24C90.2653 102.68 87.7853 100.42 87.6853 97.86H93.3253V96.18H87.6653V93.84H85.6053V96.18H79.9253V97.86H85.5853C85.4853 100.42 83.0053 102.68 79.2453 103.24L80.0253 104.94ZM78.4653 107.64V109.34H94.8253V107.64H78.4653Z" fill="#666666"/>
<g clip-path="url(#clip0_763_831)">
<path d="M90.9643 42.7617H63.0371C61.3846 42.7617 60.0449 44.1049 60.0449 45.7617V64.7617C60.0449 66.4186 61.3846 67.7617 63.0371 67.7617H90.9643C92.6168 67.7617 93.9565 66.4186 93.9565 64.7617V45.7617C93.9565 44.1049 92.6168 42.7617 90.9643 42.7617Z" stroke="#666666" stroke-width="3" stroke-miterlimit="10"/>
<path d="M80.4515 54.4009L74.5469 50.9309C74.3957 50.8433 74.2242 50.7971 74.0497 50.7969C73.8751 50.7966 73.7035 50.8423 73.5521 50.9293C73.4006 51.0164 73.2746 51.1418 73.1866 51.293C73.0987 51.4442 73.0518 51.6158 73.0508 51.7909V58.6909C73.0518 58.8659 73.0987 59.0376 73.1866 59.1888C73.2746 59.3399 73.4006 59.4653 73.5521 59.5524C73.7035 59.6394 73.8751 59.6851 74.0497 59.6848C74.2242 59.6846 74.3957 59.6384 74.5469 59.5509L80.4515 56.0809C80.5914 55.9902 80.7066 55.8658 80.7863 55.7191C80.866 55.5724 80.9077 55.4079 80.9077 55.2409C80.9077 55.0738 80.866 54.9094 80.7863 54.7626C80.7066 54.6159 80.5914 54.4915 80.4515 54.4009Z" stroke="#666666" stroke-width="3" stroke-miterlimit="10"/>
</g>
<defs>
<clipPath id="clip0_763_831">
<rect width="43.8856" height="44" fill="white" transform="translate(55.0586 33)"/>
</clipPath>
</defs>
</svg>
