<svg width="154" height="150" viewBox="0 0 154 150" fill="none" xmlns="http://www.w3.org/2000/svg">
<rect x="24.9355" y="28" width="103.325" height="56" rx="28" fill="#FF7A7A"/>
<path d="M75.2657 98.86C71.6457 98.44 69.0657 96.54 69.0657 94.36V93.66H66.9457V94.36C66.9457 96.5 64.3657 98.42 60.7457 98.86L61.4857 100.48C64.4257 100.06 66.8257 98.76 67.9857 96.86C69.1657 98.76 71.5857 100.04 74.5057 100.48L75.2657 98.86ZM69.0657 105.12H66.9257V105.54C66.9257 107.68 64.6057 109.44 61.0257 109.9L61.7657 111.48C64.6457 111.06 66.9057 109.84 68.0057 108.06C69.0857 109.84 71.3457 111.06 74.2257 111.48L74.9857 109.9C71.3857 109.44 69.0657 107.68 69.0657 105.54V105.12ZM71.8257 102.42V100.2H69.7657V102.42H66.2857V100.2H64.2257V102.42H59.8457V104.08H76.1857V102.42H71.8257ZM79.8241 104.94C82.8441 104.4 85.2441 102.9 86.4241 100.78C87.6041 102.9 90.0041 104.4 93.0441 104.94L93.8241 103.24C90.0641 102.68 87.5841 100.42 87.4841 97.86H93.1241V96.18H87.4641V93.84H85.4041V96.18H79.7241V97.86H85.3841C85.2841 100.42 82.8041 102.68 79.0441 103.24L79.8241 104.94ZM78.2641 107.64V109.34H94.6241V107.64H78.2641Z" fill="#666666"/>
<g clip-path="url(#clip0_763_859)">
<path d="M90.7631 42.7617H62.8359C61.1834 42.7617 59.8438 44.1049 59.8438 45.7617V64.7617C59.8438 66.4186 61.1834 67.7617 62.8359 67.7617H90.7631C92.4157 67.7617 93.7553 66.4186 93.7553 64.7617V45.7617C93.7553 44.1049 92.4157 42.7617 90.7631 42.7617Z" stroke="white" stroke-width="3" stroke-miterlimit="10"/>
<path d="M80.2503 54.4009L74.3457 50.9309C74.1945 50.8433 74.0231 50.7971 73.8485 50.7969C73.6739 50.7966 73.5023 50.8423 73.3509 50.9293C73.1994 51.0164 73.0734 51.1418 72.9855 51.293C72.8975 51.4442 72.8507 51.6158 72.8496 51.7909V58.6909C72.8507 58.8659 72.8975 59.0376 72.9855 59.1888C73.0734 59.3399 73.1994 59.4653 73.3509 59.5524C73.5023 59.6394 73.6739 59.6851 73.8485 59.6848C74.0231 59.6846 74.1945 59.6384 74.3457 59.5509L80.2503 56.0809C80.3903 55.9902 80.5054 55.8658 80.5851 55.7191C80.6648 55.5724 80.7065 55.4079 80.7065 55.2409C80.7065 55.0738 80.6648 54.9094 80.5851 54.7626C80.5054 54.6159 80.3903 54.4915 80.2503 54.4009Z" stroke="white" stroke-width="3" stroke-miterlimit="10"/>
</g>
<defs>
<clipPath id="clip0_763_859">
<rect width="43.8856" height="44" fill="white" transform="translate(54.8574 33)"/>
</clipPath>
</defs>
</svg>
