<svg width="52" height="52" viewBox="0 0 52 52" fill="none" xmlns="http://www.w3.org/2000/svg">
<path d="M32.4689 18.3603L26.9824 6.46552C26.5952 5.62608 25.4021 5.62608 25.0149 6.46552L19.5284 18.3603C19.3706 18.7025 19.0463 18.938 18.6722 18.9824L5.66413 20.5247C4.74612 20.6335 4.37744 21.7682 5.05615 22.3959L14.6734 31.2896C14.95 31.5454 15.0738 31.9265 15.0004 32.2961L12.4475 45.1441C12.2673 46.0508 13.2325 46.7521 14.0392 46.3005L25.4695 39.9023C25.7983 39.7183 26.199 39.7183 26.5278 39.9023L37.9581 46.3005C38.7648 46.7521 39.73 46.0508 39.5498 45.1441L36.9969 32.2961C36.9235 31.9265 37.0473 31.5454 37.3239 31.2896L46.9411 22.3959C47.6199 21.7682 47.2512 20.6335 46.3332 20.5247L33.3251 18.9824C32.951 18.938 32.6267 18.7025 32.4689 18.3603Z" fill="#FF7A7A"/>
</svg>
