<svg width="65" height="65" viewBox="0 0 65 65" fill="none" xmlns="http://www.w3.org/2000/svg">
<circle cx="32.1543" cy="32.1543" r="32.1543" fill="white"/>
<path d="M17.5391 46.7676H46.7702" stroke="#FF5D5D" stroke-width="3" stroke-linecap="round" stroke-linejoin="round"/>
<path d="M24.8469 46.7674V48.2674C25.2447 48.2674 25.6262 48.1094 25.9075 47.8281L24.8469 46.7674ZM17.5391 46.7674H16.0391C16.0391 47.5958 16.7106 48.2674 17.5391 48.2674V46.7674ZM17.5391 39.4596L16.4784 38.3989C16.1971 38.6803 16.0391 39.0618 16.0391 39.4596H17.5391ZM38.1706 18.8281L39.2313 19.8887L39.2313 19.8887L38.1706 18.8281ZM40.7543 18.8281L39.6936 19.8887L39.6936 19.8887L40.7543 18.8281ZM45.4784 23.5522L46.5391 22.4915L46.5391 22.4915L45.4784 23.5522ZM45.4784 26.1359L44.4177 25.0752L45.4784 26.1359ZM24.8469 45.2674H17.5391V48.2674H24.8469V45.2674ZM19.0391 46.7674V39.4596H16.0391V46.7674H19.0391ZM18.5997 40.5203L39.2313 19.8887L37.1099 17.7674L16.4784 38.3989L18.5997 40.5203ZM39.6936 19.8887L44.4177 24.6128L46.5391 22.4915L41.815 17.7674L39.6936 19.8887ZM44.4177 25.0752L23.7862 45.7067L25.9075 47.8281L46.5391 27.1965L44.4177 25.0752ZM44.4177 24.6128C44.5454 24.7405 44.5454 24.9475 44.4177 25.0752L46.5391 27.1965C47.8383 25.8973 47.8383 23.7908 46.5391 22.4915L44.4177 24.6128ZM39.2313 19.8887C39.3589 19.761 39.566 19.761 39.6936 19.8887L41.815 17.7674C40.5157 16.4682 38.4092 16.4682 37.1099 17.7674L39.2313 19.8887Z" fill="#FF5D5D"/>
<path d="M32.1543 24.8438L39.4621 32.1515" stroke="#FF5D5D" stroke-width="2" stroke-linecap="round" stroke-linejoin="round"/>
</svg>
