<svg width="682" height="350" viewBox="0 0 682 350" fill="none" xmlns="http://www.w3.org/2000/svg">
<rect width="682" height="350" rx="10" fill="#F5F5F5"/>
<ellipse cx="339.772" cy="155.674" rx="19.7719" ry="19.6736" fill="#DCDCDC"/>
<rect x="338.912" y="146.266" width="1.7193" height="18.8182" rx="0.859649" fill="white"/>
<rect x="349.23" y="154.818" width="1.71074" height="18.9123" rx="0.855372" transform="rotate(90 349.23 154.818)" fill="white"/>
<path d="M224.219 216.24C220.811 216.24 218.819 215.4 218.819 213.888C218.819 212.376 220.811 211.536 224.219 211.536C227.579 211.536 229.571 212.376 229.571 213.888C229.571 215.4 227.579 216.24 224.219 216.24ZM224.219 210C219.611 210 216.827 211.392 216.827 213.888C216.827 216.384 219.611 217.776 224.219 217.776C228.779 217.776 231.563 216.384 231.563 213.888C231.563 211.392 228.779 210 224.219 210ZM225.203 206.88V204.384H231.683V202.8H218.891V198.816H231.539V197.232H216.923V204.384H223.235V206.88H214.475V208.464H233.963V206.88H225.203ZM238.761 202.632C238.761 200.64 240.345 199.2 242.433 199.2C244.545 199.2 246.081 200.64 246.081 202.632C246.081 204.648 244.545 206.088 242.433 206.088C240.345 206.088 238.761 204.648 238.761 202.632ZM252.297 200.952V204.312H247.665C247.857 203.784 247.953 203.232 247.953 202.632C247.953 202.008 247.857 201.456 247.689 200.952H252.297ZM252.297 205.92V208.992H254.289V196.248H252.297V199.344H246.777C245.793 198.24 244.257 197.544 242.433 197.544C239.241 197.544 236.889 199.632 236.889 202.632C236.889 205.656 239.241 207.768 242.433 207.768C244.257 207.768 245.793 207.072 246.777 205.92H252.297ZM247.161 216.192C243.921 216.192 241.953 215.232 241.953 213.624C241.953 211.992 243.921 211.032 247.161 211.032C250.449 211.032 252.417 211.992 252.417 213.624C252.417 215.232 250.449 216.192 247.161 216.192ZM247.161 209.496C242.745 209.496 240.009 211.008 240.009 213.624C240.009 216.24 242.745 217.752 247.161 217.752C251.601 217.752 254.361 216.24 254.361 213.624C254.361 211.008 251.601 209.496 247.161 209.496ZM271.063 206.376C267.967 205.32 265.855 202.632 265.855 199.728V197.352H263.887V199.56C263.887 202.848 261.799 205.776 258.535 206.952L259.567 208.512C262.087 207.552 264.007 205.584 264.895 203.064C265.855 205.272 267.703 207.048 270.031 207.912L271.063 206.376ZM268.495 216.216C265.303 216.216 263.359 215.328 263.359 213.84C263.359 212.328 265.303 211.44 268.495 211.44C271.663 211.44 273.607 212.328 273.607 213.84C273.607 215.328 271.663 216.216 268.495 216.216ZM268.495 209.904C264.103 209.904 261.391 211.32 261.391 213.84C261.391 216.336 264.103 217.752 268.495 217.752C272.863 217.752 275.575 216.336 275.575 213.84C275.575 211.32 272.863 209.904 268.495 209.904ZM275.335 201.816V196.272H273.367V209.304H275.335V203.448H278.527V201.816H275.335ZM290.43 198.096C293.958 198.096 295.974 198.912 295.974 200.352C295.974 201.792 293.958 202.608 290.43 202.608C286.902 202.608 284.886 201.792 284.886 200.352C284.886 198.912 286.902 198.096 290.43 198.096ZM290.43 204.072C295.158 204.072 297.99 202.776 297.99 200.352C297.99 197.928 295.158 196.608 290.43 196.608C285.702 196.608 282.87 197.928 282.87 200.352C282.87 202.776 285.702 204.072 290.43 204.072ZM285.03 213.816H297.678V208.968H283.038V210.456H295.734V212.376H283.11V217.536H298.326V216H285.03V213.816ZM280.686 205.536V207.12H300.174V205.536H280.686ZM323.923 215.904H314.059V213.12H323.923V215.904ZM323.923 211.584H314.059V208.872H312.115V217.488H325.891V208.872H323.923V211.584ZM314.035 205.584C311.899 205.584 310.363 204.192 310.363 202.224C310.363 200.256 311.899 198.888 314.035 198.888C316.171 198.888 317.707 200.256 317.707 202.224C317.707 204.192 316.171 205.584 314.035 205.584ZM323.899 196.272V201.384H319.507C319.099 198.888 316.939 197.256 314.035 197.256C310.819 197.256 308.491 199.272 308.491 202.224C308.491 205.2 310.819 207.216 314.035 207.216C316.987 207.216 319.147 205.536 319.531 202.992H323.899V207.816H325.891V196.272H323.899ZM340.961 213.504V209.448H347.849V207.864H334.601V204.384H347.345V197.832H332.609V199.44H345.425V202.8H332.657V209.448H338.969V213.504H330.209V215.112H349.769V213.504H340.961ZM369.567 206.568H356.727V199.848H369.351V198.216H354.783V208.176H369.567V206.568ZM352.287 213.24V214.872H371.823V213.24H352.287ZM385.084 211.152C383.404 211.152 382.228 209.784 382.228 207.864C382.228 205.992 383.404 204.624 385.084 204.624C386.74 204.624 387.94 205.992 387.94 207.864C387.94 209.784 386.74 211.152 385.084 211.152ZM385.084 202.968C382.42 202.968 380.476 204.984 380.476 207.864C380.476 210.792 382.42 212.784 385.084 212.784C387.748 212.784 389.692 210.792 389.692 207.864C389.692 204.984 387.748 202.968 385.084 202.968ZM386.044 196.872H384.1V199.92H379.732V201.528H390.412V199.92H386.044V196.872ZM396.1 196.224V205.32H393.34V196.728H391.492V216.72H393.34V206.928H396.1V217.752H397.996V196.224H396.1ZM403.755 206.712C407.091 206.136 410.259 204.336 411.579 201.792C412.875 204.336 416.067 206.136 419.403 206.712L420.171 205.152C416.379 204.6 412.659 202.128 412.659 199.296V199.176H419.403V197.592H403.683V199.176H410.475V199.296C410.475 202.128 406.755 204.6 403.011 205.152L403.755 206.712ZM421.299 208.512H401.859V210.12H410.547V217.776H412.515V210.12H421.323L421.299 208.512ZM430.297 198.288H428.401V202.392C428.401 206.088 426.625 209.952 423.673 211.68L424.897 213.168C427.033 211.848 428.593 209.4 429.361 206.544C430.129 209.16 431.569 211.44 433.609 212.688L434.737 211.152C431.905 209.424 430.297 205.776 430.297 202.32V198.288ZM435.961 203.976H432.409V205.608H435.961V216.72H437.809V196.728H435.961V203.976ZM440.329 196.248V217.776H442.201V196.248H440.329ZM452.735 208.32C453.623 208.536 454.655 208.656 455.711 208.656C456.791 208.656 457.823 208.536 458.735 208.32V213.384H452.735V208.32ZM455.711 199.152C459.167 199.152 461.663 200.736 461.663 203.136C461.663 205.536 459.167 207.12 455.711 207.12C452.255 207.12 449.783 205.536 449.783 203.136C449.783 200.736 452.255 199.152 455.711 199.152ZM460.703 213.384V207.552C462.479 206.616 463.535 205.08 463.535 203.136C463.535 199.776 460.295 197.616 455.711 197.616C451.151 197.616 447.887 199.776 447.887 203.136C447.887 205.08 448.967 206.64 450.767 207.576V213.384H445.967V215.016H465.527V213.384H460.703Z" fill="#DCDCDC"/>
</svg>
