<svg width="40" height="40" viewBox="0 0 40 40" fill="none" xmlns="http://www.w3.org/2000/svg">
<path d="M15 28.3333V26.8333C14.1716 26.8333 13.5 27.5048 13.5 28.3333H15ZM25 28.3333H26.5C26.5 27.5048 25.8284 26.8333 25 26.8333V28.3333ZM15 29.8333H25V26.8333H15V29.8333ZM23.5 28.3333V29.9999H26.5V28.3333H23.5ZM16.5 29.9999V28.3333H13.5V29.9999H16.5ZM20 33.4999C18.067 33.4999 16.5 31.9329 16.5 29.9999H13.5C13.5 33.5898 16.4101 36.4999 20 36.4999V33.4999ZM23.5 29.9999C23.5 31.9329 21.933 33.4999 20 33.4999V36.4999C23.5899 36.4999 26.5 33.5898 26.5 29.9999H23.5Z" fill="white"/>
<path d="M7.15515 24.5119L6.09449 23.4512L6.09449 23.4512L7.15515 24.5119ZM8.00652 23.6605L9.06718 24.7212L9.06718 24.7212L8.00652 23.6605ZM31.9941 23.6604L33.0548 22.5998L33.0548 22.5998L31.9941 23.6604ZM32.8455 24.5119L33.9062 23.4512L33.9062 23.4512L32.8455 24.5119ZM20.0003 5L20.0003 6.5L20.0003 5ZM31.667 26.8334H8.33366V29.8334H31.667V26.8334ZM8.16699 26.6667V25.6904H5.16699V26.6667H8.16699ZM8.21581 25.5725L9.06718 24.7212L6.94586 22.5998L6.09449 23.4512L8.21581 25.5725ZM9.83366 22.8707V16.6667H6.83366V22.8707H9.83366ZM30.167 16.6667V22.8707H33.167V16.6667H30.167ZM30.9334 24.7211L31.7848 25.5725L33.9062 23.4512L33.0548 22.5998L30.9334 24.7211ZM31.8337 25.6904V26.6667H34.8337V25.6904H31.8337ZM31.7848 25.5725C31.8161 25.6038 31.8337 25.6462 31.8337 25.6904H34.8337C34.8337 24.8505 34.5 24.0451 33.9062 23.4512L31.7848 25.5725ZM30.167 22.8707C30.167 23.5647 30.4427 24.2303 30.9334 24.7211L33.0548 22.5998C33.1266 22.6716 33.167 22.7691 33.167 22.8707H30.167ZM33.167 16.6667C33.167 9.39491 27.2721 3.49998 20.0003 3.5L20.0003 6.5C25.6152 6.49999 30.167 11.0518 30.167 16.6667H33.167ZM9.83366 16.6667C9.83366 11.0518 14.3854 6.50001 20.0003 6.5L20.0003 3.5C12.7286 3.50002 6.83366 9.39493 6.83366 16.6667H9.83366ZM9.06718 24.7212C9.55795 24.2304 9.83366 23.5648 9.83366 22.8707H6.83366C6.83366 22.7691 6.87402 22.6717 6.94586 22.5998L9.06718 24.7212ZM8.16699 25.6904C8.16699 25.6462 8.18455 25.6038 8.21581 25.5725L6.09449 23.4512C5.50062 24.0451 5.16699 24.8505 5.16699 25.6904H8.16699ZM8.33366 26.8334C8.24161 26.8334 8.16699 26.7587 8.16699 26.6667H5.16699C5.16699 28.4156 6.58476 29.8334 8.33366 29.8334V26.8334ZM31.667 29.8334C33.4159 29.8334 34.8337 28.4156 34.8337 26.6667H31.8337C31.8337 26.7587 31.759 26.8334 31.667 26.8334V29.8334Z" fill="white"/>
</svg>
