<svg width="155" height="150" viewBox="0 0 155 150" fill="none" xmlns="http://www.w3.org/2000/svg">
<path d="M52.138 102.06C49.378 101.14 47.858 98.92 47.858 96.64V96.32H51.638V94.64H41.938V96.32H45.778V96.64C45.778 99.12 44.198 101.42 41.338 102.38L42.418 104C44.538 103.26 46.038 101.78 46.838 99.88C47.618 101.6 49.058 102.98 51.078 103.64L52.138 102.06ZM43.738 106.9H53.558V111.54H55.618V105.24H43.738V106.9ZM58.178 98.08H55.618V93.46H53.558V104.36H55.618V99.78H58.178V98.08ZM72.8165 104.12H74.8765V93.46H72.8165V97.08H69.1565V98.76H72.8165V104.12ZM70.6365 101.78C67.8965 100.88 66.3965 98.62 66.3965 96.12V94.44H64.3165V96.22C64.3165 98.86 62.7365 101.3 59.8365 102.28L60.9165 103.94C63.0965 103.16 64.6165 101.58 65.4165 99.58C66.1965 101.34 67.5965 102.7 69.5365 103.4L70.6365 101.78ZM68.8565 109.92C66.2965 109.92 64.8365 109.26 64.8365 108.08C64.8365 106.9 66.2965 106.24 68.8565 106.24C71.4165 106.24 72.8965 106.9 72.8965 108.08C72.8965 109.26 71.4165 109.92 68.8565 109.92ZM68.8565 104.62C65.0965 104.62 62.7765 105.9 62.7765 108.08C62.7765 110.26 65.0965 111.54 68.8565 111.54C72.6365 111.54 74.9565 110.26 74.9565 108.08C74.9565 105.9 72.6365 104.62 68.8565 104.62ZM83.5749 105.96C82.1149 105.96 81.0549 104.96 81.0549 103.44C81.0549 101.92 82.1149 100.92 83.5749 100.92C85.0349 100.92 86.0949 101.92 86.0949 103.44C86.0949 104.96 85.0349 105.96 83.5749 105.96ZM83.5749 99.22C80.9749 99.22 79.0949 100.98 79.0949 103.44C79.0949 105.92 80.9749 107.66 83.5749 107.66C86.1549 107.66 88.0549 105.92 88.0549 103.44C88.0549 100.98 86.1549 99.22 83.5749 99.22ZM84.5749 93.74H82.5149V96.26H78.2149V97.94H88.7949V96.26H84.5749V93.74ZM95.1149 100.74H92.3349V93.48H90.2549V111.56H92.3349V102.46H95.1149V100.74ZM97.7334 95.38V97.06H104.173C103.813 101.22 101.573 104.4 96.8334 106.68L97.9334 108.32C104.133 105.32 106.293 100.76 106.293 95.38H97.7334ZM109.553 93.48V111.54H111.613V93.48H109.553Z" fill="#666666"/>
<path d="M62.7734 69.666H92.0305" stroke="#666666" stroke-width="3" stroke-linecap="round" stroke-linejoin="round"/>
<path d="M70.0877 69.6657V71.1657C70.4862 71.1657 70.8683 71.0072 71.1497 70.725L70.0877 69.6657ZM62.7734 69.6657H61.2734C61.2734 70.4942 61.945 71.1657 62.7734 71.1657V69.6657ZM62.7734 62.3324L61.7114 61.2731C61.4309 61.5543 61.2734 61.9353 61.2734 62.3324H62.7734ZM83.4232 41.6288L84.4853 42.688L84.4853 42.688L83.4232 41.6288ZM86.0092 41.6288L84.9472 42.688L84.9472 42.688L86.0092 41.6288ZM90.7375 46.3694L91.7995 45.3101L91.7995 45.3101L90.7375 46.3694ZM90.7375 48.9621L89.6754 47.9028L90.7375 48.9621ZM70.0877 68.1657H62.7734V71.1657H70.0877V68.1657ZM64.2734 69.6657V62.3324H61.2734V69.6657H64.2734ZM63.8355 63.3917L84.4853 42.688L82.3612 40.5695L61.7114 61.2731L63.8355 63.3917ZM84.9472 42.688L89.6755 47.4287L91.7995 45.3101L87.0712 40.5695L84.9472 42.688ZM89.6754 47.9028L69.0257 68.6065L71.1497 70.725L91.7995 50.0214L89.6754 47.9028ZM89.6754 47.4287C89.8056 47.5591 89.8056 47.7723 89.6754 47.9028L91.7995 50.0214C93.0976 48.72 93.0976 46.6115 91.7995 45.3101L89.6754 47.4287ZM84.4853 42.688C84.6133 42.5597 84.8192 42.5597 84.9472 42.688L87.0713 40.5695C85.7711 39.2659 83.6614 39.2659 82.3612 40.5695L84.4853 42.688Z" fill="#666666"/>
<path d="M77.4023 47.666L84.7166 54.9993" stroke="#666666" stroke-width="3" stroke-linecap="round" stroke-linejoin="round"/>
</svg>
