<svg width="154" height="150" viewBox="0 0 154 150" fill="none" xmlns="http://www.w3.org/2000/svg">
<rect x="24.9355" y="28" width="103.325" height="56" rx="28" fill="#FF7A7A"/>
<path d="M51.5365 102.06C48.7765 101.14 47.2565 98.92 47.2565 96.64V96.32H51.0365V94.64H41.3365V96.32H45.1765V96.64C45.1765 99.12 43.5965 101.42 40.7365 102.38L41.8165 104C43.9365 103.26 45.4365 101.78 46.2365 99.88C47.0165 101.6 48.4565 102.98 50.4765 103.64L51.5365 102.06ZM43.1365 106.9H52.9565V111.54H55.0165V105.24H43.1365V106.9ZM57.5765 98.08H55.0165V93.46H52.9565V104.36H55.0165V99.78H57.5765V98.08ZM72.2149 104.12H74.2749V93.46H72.2149V97.08H68.5549V98.76H72.2149V104.12ZM70.0349 101.78C67.2949 100.88 65.7949 98.62 65.7949 96.12V94.44H63.7149V96.22C63.7149 98.86 62.1349 101.3 59.2349 102.28L60.3149 103.94C62.4949 103.16 64.0149 101.58 64.8149 99.58C65.5949 101.34 66.9949 102.7 68.9349 103.4L70.0349 101.78ZM68.2549 109.92C65.6949 109.92 64.2349 109.26 64.2349 108.08C64.2349 106.9 65.6949 106.24 68.2549 106.24C70.8149 106.24 72.2949 106.9 72.2949 108.08C72.2949 109.26 70.8149 109.92 68.2549 109.92ZM68.2549 104.62C64.4949 104.62 62.1749 105.9 62.1749 108.08C62.1749 110.26 64.4949 111.54 68.2549 111.54C72.0349 111.54 74.3549 110.26 74.3549 108.08C74.3549 105.9 72.0349 104.62 68.2549 104.62ZM82.9734 105.96C81.5134 105.96 80.4534 104.96 80.4534 103.44C80.4534 101.92 81.5134 100.92 82.9734 100.92C84.4334 100.92 85.4934 101.92 85.4934 103.44C85.4934 104.96 84.4334 105.96 82.9734 105.96ZM82.9734 99.22C80.3734 99.22 78.4934 100.98 78.4934 103.44C78.4934 105.92 80.3734 107.66 82.9734 107.66C85.5534 107.66 87.4534 105.92 87.4534 103.44C87.4534 100.98 85.5534 99.22 82.9734 99.22ZM83.9734 93.74H81.9134V96.26H77.6134V97.94H88.1934V96.26H83.9734V93.74ZM94.5134 100.74H91.7334V93.48H89.6534V111.56H91.7334V102.46H94.5134V100.74ZM97.1318 95.38V97.06H103.572C103.212 101.22 100.972 104.4 96.2318 106.68L97.3318 108.32C103.532 105.32 105.692 100.76 105.692 95.38H97.1318ZM108.952 93.48V111.54H111.012V93.48H108.952Z" fill="#666666"/>
<path d="M62.1719 69.666H91.4289" stroke="white" stroke-width="3" stroke-linecap="round" stroke-linejoin="round"/>
<path d="M69.4861 69.6657V71.1657C69.8846 71.1657 70.2668 71.0072 70.5482 70.725L69.4861 69.6657ZM62.1719 69.6657H60.6719C60.6719 70.4942 61.3434 71.1657 62.1719 71.1657V69.6657ZM62.1719 62.3324L61.1098 61.2731C60.8294 61.5543 60.6719 61.9353 60.6719 62.3324H62.1719ZM82.8217 41.6288L83.8837 42.688L83.8837 42.688L82.8217 41.6288ZM85.4076 41.6288L84.3456 42.688L84.3456 42.688L85.4076 41.6288ZM90.1359 46.3694L91.198 45.3101L91.198 45.3101L90.1359 46.3694ZM90.1359 48.9621L89.0739 47.9028L90.1359 48.9621ZM69.4861 68.1657H62.1719V71.1657H69.4861V68.1657ZM63.6719 69.6657V62.3324H60.6719V69.6657H63.6719ZM63.2339 63.3917L83.8837 42.688L81.7596 40.5695L61.1098 61.2731L63.2339 63.3917ZM84.3456 42.688L89.0739 47.4287L91.198 45.3101L86.4697 40.5695L84.3456 42.688ZM89.0739 47.9028L68.4241 68.6065L70.5482 70.725L91.198 50.0214L89.0739 47.9028ZM89.0739 47.4287C89.204 47.5591 89.204 47.7723 89.0739 47.9028L91.198 50.0214C92.496 48.72 92.496 46.6115 91.198 45.3101L89.0739 47.4287ZM83.8837 42.688C84.0117 42.5597 84.2176 42.5597 84.3456 42.688L86.4697 40.5695C85.1695 39.2659 83.0598 39.2659 81.7596 40.5695L83.8837 42.688Z" fill="white"/>
<path d="M76.8008 47.666L84.115 54.9993" stroke="white" stroke-width="3" stroke-linecap="round" stroke-linejoin="round"/>
</svg>
