<svg width="1333" height="864" viewBox="0 0 1333 864" fill="none" xmlns="http://www.w3.org/2000/svg">
<g filter="url(#filter0_d_1323_2210)">
<path d="M799.448 557.783C793.497 564.994 789.004 572.853 784.516 581.68" stroke="black" stroke-width="3" stroke-linecap="round"/>
<path d="M474.995 314.004C478.751 288.231 479.062 255.318 497.731 233.245C508.078 221.013 525.326 211.035 538.478 201.85C565.461 183.004 592.683 172.805 624.717 166.877C698.974 153.137 726.854 222.201 708.634 280.601" stroke="black" stroke-width="3" stroke-linecap="round"/>
<path d="M468.674 323.798C442.658 329.695 413.99 331.128 394.611 351.463C374.751 372.303 355.692 396.344 348.447 423.713C333.819 478.973 365.138 509.598 423.245 507.705C506.82 504.983 589.263 460.405 653.788 408.676C675.179 391.527 695.585 365.419 711.244 343.222" stroke="black" stroke-width="3" stroke-linecap="round"/>
<path d="M452.51 326.695C499.56 323.252 539.41 321.46 584.699 304.608" stroke="black" stroke-width="3" stroke-linecap="round"/>
<path d="M383.379 424.55C386.856 423.679 424.419 411.036 407.236 400.627C399.646 396.03 390.338 405.63 389.359 411.568" stroke="black" stroke-width="3" stroke-linecap="round"/>
<path d="M436.896 400.829C444.515 399.102 483.612 383.386 488.838 394.821C494.597 407.425 482.948 410.349 472.669 412.678C467.683 413.808 459.602 417.244 454.649 416.319C449.651 415.386 451.946 408.029 446.243 406.693" stroke="black" stroke-width="3" stroke-linecap="round"/>
<path d="M384.442 476.607C408.051 466.103 426.967 456.481 429.819 430.46" stroke="black" stroke-width="3" stroke-linecap="round"/>
<path d="M416.525 448.414C434.718 448.621 447.86 450.277 465.643 446.247" stroke="black" stroke-width="3" stroke-linecap="round"/>
<path d="M517.106 249.59C548.718 226.513 551.862 219.609 581.262 239.239" stroke="black" stroke-width="3" stroke-linecap="round"/>
<path d="M621.419 233.121C638.82 214.33 642.909 218.802 664.692 226.468C676.669 230.682 683.586 234.712 685.771 246.931" stroke="black" stroke-width="3" stroke-linecap="round"/>
<path d="M652.363 175.479C702.644 169.487 741.15 163.195 781.49 132.658C814.385 107.757 830.126 127.263 816.139 159.009C804.807 184.73 781.273 168.276 763.283 169.913C736.819 172.322 711.918 169.724 685.562 175.698" stroke="black" stroke-width="3" stroke-linecap="round"/>
<path d="M577.932 183.041C581.087 139.92 579.788 102.023 572.351 60.4445C566.286 26.5341 531.456 55.5663 521.629 73.9072C514.304 87.5778 523.3 123.255 536.395 131.071C564.687 147.96 570.148 155.941 579.284 190.599" stroke="black" stroke-width="3" stroke-linecap="round"/>
<path d="M1326.76 23.8574C1313.22 6.07886 1308.83 4.40232 1285.45 6.77567" stroke="black" stroke-width="3" stroke-linecap="round"/>
<path d="M791.648 139.253C783.627 143.612 730.122 179.689 769.622 180.107" stroke="black" stroke-width="3" stroke-linecap="round"/>
<path d="M717.557 278.578C764.533 317.881 792.547 371.73 809.707 429.731C815.727 450.081 818.824 475.523 805.401 494.757" stroke="black" stroke-width="3" stroke-linecap="round"/>
<path d="M510.203 486.95C504.257 518.506 502.054 564.248 519.181 592.264C550.746 643.896 641.963 609.634 688.026 599.193C742.637 586.815 792.951 581.046 821.209 524.676C829.025 509.085 833.203 455.333 816.348 444.94" stroke="black" stroke-width="3" stroke-linecap="round"/>
<path d="M586.483 568.282C533.536 592.74 471.993 613.74 422.678 644.26" stroke="black" stroke-width="3" stroke-linecap="round"/>
<path d="M425.61 639.112C407.83 673.735 411.714 693.558 441.711 717.542C456.831 729.631 479.638 732.957 499.615 728.43" stroke="black" stroke-width="3" stroke-linecap="round"/>
<path d="M503.064 724.661C529.516 684.496 570.261 653.102 603.657 618.184" stroke="black" stroke-width="3" stroke-linecap="round"/>
<path d="M668.491 588.544C644.704 624.698 622.199 660.951 592.2 692.502" stroke="black" stroke-width="3" stroke-linecap="round"/>
<path d="M592.788 695.8C609.76 703.403 628.871 714.803 649.09 710.735C688.103 702.887 698.384 700.367 710.369 661.236" stroke="black" stroke-width="3" stroke-linecap="round"/>
<path d="M711.143 665.541C710.073 619.297 717.525 588.268 748.412 551.003" stroke="black" stroke-width="3" stroke-linecap="round"/>
<path d="M696.733 377.432C689.452 409.754 681.012 441.868 672.754 474.015" stroke="black" stroke-width="3" stroke-linecap="round"/>
<path d="M673.407 473.869C644.802 499.134 638.812 515.596 642.841 552.24C644.406 566.468 653.671 581.882 669.948 581.058C704.272 579.32 743.424 569.249 736.395 529.95" stroke="black" stroke-width="3" stroke-linecap="round"/>
<path d="M740.336 528.926C740.773 487.591 743.132 444.615 735.94 404.407" stroke="black" stroke-width="3" stroke-linecap="round"/>
<path d="M511.65 494.098C502.99 507.415 484.457 550.864 511.544 554.578C534.02 557.659 557.363 547.592 562.464 526.268" stroke="black" stroke-width="3" stroke-linecap="round"/>
<path d="M551.834 489.47C560.092 507.567 560.544 523.576 557.301 543.517" stroke="black" stroke-width="3" stroke-linecap="round"/>
<path d="M598.934 450.403C577.753 481.765 525.147 553.372 570.547 587.491C593.276 604.573 654.711 580.292 678.428 574.917" stroke="black" stroke-width="3" stroke-linecap="round"/>
<path d="M660.209 238.871C648.603 237.952 639.082 235.987 628.96 242.936C617.389 250.881 612.308 262.523 613.848 276.019C615.855 293.602 624.8 302.849 643.417 300.947C653.858 299.881 664.162 294.802 670.373 286.436C681.642 271.257 654.655 246.388 641.47 242.737" stroke="black" stroke-width="3" stroke-linecap="round"/>
<path d="M556.268 246.697C544.661 245.778 535.141 243.813 525.019 250.762C513.447 258.707 508.366 270.349 509.907 283.845C511.914 301.428 520.859 310.675 539.476 308.773C549.917 307.707 560.22 302.628 566.431 294.263C577.701 279.083 550.714 254.214 537.528 250.564" stroke="black" stroke-width="3" stroke-linecap="round"/>
<path d="M613.465 269.258C634.029 271.391 639.823 282.789 638.326 301.702" stroke="black" stroke-width="3" stroke-linecap="round"/>
<path d="M506.023 279.038C513.676 275.336 534.698 263.298 533.402 279.681C532.747 287.948 533.656 302.559 522.518 301.677" stroke="black" stroke-width="3" stroke-linecap="round"/>
<path d="M550.825 252.111C547.839 258.275 534.72 281.313 548.428 282.398C557.514 283.117 566.6 283.836 575.687 284.555" stroke="black" stroke-width="3" stroke-linecap="round"/>
<path d="M654.759 248.143C625.808 263.861 644.139 274.731 664.717 276.36" stroke="black" stroke-width="3" stroke-linecap="round"/>
<path d="M412.232 469.562C415.486 489.692 426.023 502.235 439.866 483.148C451.329 467.344 454.59 462.483 456.16 442.641" stroke="black" stroke-width="3" stroke-linecap="round"/>
<path d="M356.854 577.193C330.806 580.308 306.03 584.426 280.381 588.998" stroke="black" stroke-width="3" stroke-linecap="round"/>
<path d="M240.164 584.835C243.904 566.011 247.276 557.997 225.287 556.848C210.125 556.056 192.634 554.403 177.461 556.683C162.035 559.002 127.529 601.539 152.464 611.798C176.63 621.741 191.472 607.147 209.729 596.799C218.652 591.74 221.051 568.975 232.202 560.671" stroke="black" stroke-width="3" stroke-linecap="round"/>
<path d="M211.855 628.991C211.82 639.389 213.504 648.549 207.736 657.136" stroke="black" stroke-width="3" stroke-linecap="round"/>
<path d="M183.725 620.847C183.657 640.528 180.203 662.674 187.54 681.202" stroke="black" stroke-width="3" stroke-linecap="round"/>
<path d="M255.951 673.393C218.173 680.206 181.422 681.181 143.288 681.05" stroke="black" stroke-width="3" stroke-linecap="round"/>
<path d="M103.213 636.658C108.118 630.424 123.026 619.818 118.501 610.116C109.513 590.842 77.5874 580.011 59.182 573.036C25.5998 560.311 14.4497 577.881 23.9633 611.131C30.2284 633.027 45.256 673.591 65.9405 687.037C74.4091 692.542 96.7393 682.217 104.856 678.679C128.828 668.23 124.146 642.915 127.405 620.65" stroke="black" stroke-width="3" stroke-linecap="round"/>
<path d="M215.518 733.592C211.4 744.29 207.401 754.219 207.361 765.746" stroke="black" stroke-width="3" stroke-linecap="round"/>
<path d="M211.521 725.533C197.587 719.205 106.756 661.96 99.1857 702.797C96.7389 715.996 97.3692 749.276 114.893 749.336" stroke="black" stroke-width="3" stroke-linecap="round"/>
<path d="M143.232 697.139C149.239 727.034 160.286 753.305 171.099 781.713" stroke="black" stroke-width="3" stroke-linecap="round"/>
<path d="M211.283 793.92C173.724 802.016 136.796 801.709 98.6198 801.577" stroke="black" stroke-width="3" stroke-linecap="round"/>
<path d="M150.903 805.783C154.525 822.025 158.577 838.023 162.804 854.097" stroke="black" stroke-width="3" stroke-linecap="round"/>
<path d="M102.73 777.455C98.4775 792.927 95.8669 807.19 94.3044 823.017C92.9159 837.082 52.2655 828.67 43.5598 826.865C30.3456 824.126 10.6497 815.059 6.10239 801.258" stroke="black" stroke-width="3" stroke-linecap="round"/>
<path d="M803.989 446.467C820.902 430.446 846.389 413.774 854.312 390.695C856.579 384.089 864.711 355.484 860.666 380.996C854.899 417.371 839.382 446.116 823.308 478.602" stroke="black" stroke-width="3" stroke-linecap="round"/>
</g>
<defs>
<filter id="filter0_d_1323_2210" x="0.602051" y="4.44727" width="1331.68" height="859.15" filterUnits="userSpaceOnUse" color-interpolation-filters="sRGB">
<feFlood flood-opacity="0" result="BackgroundImageFix"/>
<feColorMatrix in="SourceAlpha" type="matrix" values="0 0 0 0 0 0 0 0 0 0 0 0 0 0 0 0 0 0 127 0" result="hardAlpha"/>
<feOffset dy="4"/>
<feGaussianBlur stdDeviation="2"/>
<feComposite in2="hardAlpha" operator="out"/>
<feColorMatrix type="matrix" values="0 0 0 0 0 0 0 0 0 0 0 0 0 0 0 0 0 0 0.25 0"/>
<feBlend mode="normal" in2="BackgroundImageFix" result="effect1_dropShadow_1323_2210"/>
<feBlend mode="normal" in="SourceGraphic" in2="effect1_dropShadow_1323_2210" result="shape"/>
</filter>
</defs>
</svg>
